<svg width="22px" height="22px" viewBox="2 0 22 22" version="1.1" xmlns="http://www.w3.org/2000/svg" xmlns:xlink="http://www.w3.org/1999/xlink">
    <!-- Generator: Sketch 41.2 (35397) - http://www.bohemiancoding.com/sketch -->
    <desc>Created with Sketch.</desc>
    <defs></defs>
    <path d="M7.48157454,1.47403685 C9.1705751,0.491345617 11.0100503,0 13,0 C14.9905639,0 16.8294249,0.491345617 18.5190396,1.47403685 C20.207426,2.45672808 21.5438861,3.79257398 22.5259631,5.48157454 C23.5086544,7.1705751 24,9.01005025 24,11 C24,12.9899497 23.5086544,14.8294249 22.5259631,16.5184255 C21.5438861,18.207426 20.207426,19.5432719 18.5190396,20.5259631 C16.8294249,21.5086544 14.9905639,22 13,22 C11.0100503,22 9.1705751,21.5086544 7.48157454,20.5259631 C5.79257398,19.5432719 4.45672808,18.207426 3.47465103,16.5184255 C2.49134562,14.8294249 2,12.9899497 2,11 C2,9.01005025 2.49134562,7.1705751 3.47465103,5.48157454 C4.45672808,3.79257398 5.79257398,2.45672808 7.48157454,1.47403685 C7.48157454,1.47403685 5.79257398,2.45672808 7.48157454,1.47403685 L7.48157454,1.47403685 L7.48157454,1.47403685 Z M9.31490787,11 L11.1574539,11 L11.1574539,14.6850921 L9.31490787,14.6850921 L9.31490787,16.5276382 L16.6850921,16.5276382 L16.6850921,14.6850921 L14.8425461,14.6850921 C14.8425461,14.6850921 16.2244556,10.5393635 14.8425461,9.15745394 C13.4606365,7.77554439 9.31490787,9.15745394 9.31490787,9.15745394 L9.31490787,11 Z M14.8425461,7.31490787 L14.8425461,5.47236181 L11.1574539,5.47236181 L11.1574539,7.31490787 L14.8425461,7.31490787 Z" id="Fill-88" stroke="none" fill="#60CDA2" fill-rule="evenodd"></path>
</svg>