<?xml version="1.0" encoding="utf-8"?>
<!-- Generator: Adobe Illustrator 16.0.4, SVG Export Plug-In . SVG Version: 6.00 Build 0)  -->
<!DOCTYPE svg PUBLIC "-//W3C//DTD SVG 1.1//EN" "http://www.w3.org/Graphics/SVG/1.1/DTD/svg11.dtd">
<svg version="1.1" id="Layer_1" xmlns="http://www.w3.org/2000/svg" xmlns:xlink="http://www.w3.org/1999/xlink" x="0px" y="0px"
	 width="155.25px" height="27.25px" viewBox="0 0 155.25 27.25" enable-background="new 0 0 155.25 27.25" xml:space="preserve">
<g>
	<path fill="#6FD4B1" d="M114.037,10.77h3.227c1.516,0,2.612,0.227,3.289,0.68c0.677,0.453,1.016,1.169,1.016,2.148
		c0,0.677-0.189,1.235-0.566,1.676c-0.378,0.44-0.929,0.726-1.652,0.855v0.078c1.734,0.297,2.602,1.208,2.602,2.734
		c0,1.021-0.345,1.817-1.035,2.391c-0.69,0.573-1.655,0.859-2.895,0.859h-3.984V10.77z M115.365,15.661h2.188
		c0.938,0,1.612-0.147,2.023-0.441c0.411-0.294,0.617-0.79,0.617-1.488c0-0.641-0.229-1.103-0.688-1.387
		c-0.458-0.284-1.188-0.426-2.188-0.426h-1.953V15.661z M115.365,16.786v4.273h2.383c0.922,0,1.616-0.179,2.082-0.535
		c0.466-0.356,0.699-0.915,0.699-1.676c0-0.708-0.238-1.229-0.715-1.562s-1.202-0.5-2.176-0.5H115.365z"/>
	<path fill="#6FD4B1" d="M125.428,13.629v5.555c0,0.698,0.159,1.219,0.477,1.562c0.317,0.344,0.815,0.516,1.492,0.516
		c0.896,0,1.551-0.245,1.965-0.734s0.621-1.289,0.621-2.398v-4.5h1.297v8.562h-1.07l-0.188-1.148h-0.07
		c-0.266,0.422-0.634,0.745-1.105,0.969c-0.472,0.224-1.009,0.336-1.613,0.336c-1.042,0-1.822-0.247-2.34-0.742
		c-0.519-0.495-0.777-1.286-0.777-2.375v-5.602H125.428z"/>
	<path fill="#6FD4B1" d="M135.248,13.629v5.555c0,0.698,0.159,1.219,0.477,1.562c0.317,0.344,0.815,0.516,1.492,0.516
		c0.896,0,1.551-0.245,1.965-0.734s0.621-1.289,0.621-2.398v-4.5h1.297v8.562h-1.07l-0.188-1.148h-0.07
		c-0.266,0.422-0.634,0.745-1.105,0.969c-0.472,0.224-1.009,0.336-1.613,0.336c-1.042,0-1.822-0.247-2.34-0.742
		c-0.519-0.495-0.777-1.286-0.777-2.375v-5.602H135.248z"/>
	<path fill="#6FD4B1" d="M147.756,13.473c0.38,0,0.721,0.031,1.023,0.094l-0.18,1.203c-0.354-0.078-0.667-0.117-0.938-0.117
		c-0.693,0-1.285,0.281-1.777,0.844s-0.738,1.263-0.738,2.102v4.594h-1.297v-8.562h1.07l0.148,1.586h0.062
		c0.317-0.558,0.7-0.987,1.148-1.289C146.727,13.625,147.219,13.473,147.756,13.473z"/>
	<path fill="#6FD4B1" d="M153.146,21.278c0.229,0,0.45-0.017,0.664-0.051c0.213-0.034,0.383-0.069,0.508-0.105v0.992
		c-0.141,0.067-0.348,0.124-0.621,0.168s-0.52,0.066-0.738,0.066c-1.656,0-2.484-0.872-2.484-2.617v-5.094h-1.227v-0.625
		l1.227-0.539l0.547-1.828h0.75v1.984h2.484v1.008h-2.484v5.039c0,0.516,0.122,0.911,0.367,1.188
		C152.383,21.14,152.719,21.278,153.146,21.278z"/>
</g>
<g>
	<defs>
		<path id="SVGID_1_" d="M19.988,3.298C15.453-1.099,8.102-1.099,3.565,3.297c-4.534,4.395-4.536,11.521,0,15.915
			c2.26,2.189,8.184,7.412,8.184,7.412s5.965-5.208,8.239-7.411C24.523,14.817,24.525,7.691,19.988,3.298 M11.778,14.095
			c-1.556,0-2.932-1.367-2.932-2.911c0-1.438,1.376-2.771,2.932-2.771c1.556,0,2.931,1.298,2.931,2.771
			C14.708,12.763,13.406,14.095,11.778,14.095"/>
	</defs>
	<use xlink:href="#SVGID_1_"  overflow="visible" fill-rule="evenodd" clip-rule="evenodd" fill="#60CDA2"/>
	<clipPath id="SVGID_2_">
		<use xlink:href="#SVGID_1_"  overflow="visible"/>
	</clipPath>
</g>
<g>
	<defs>
		<path id="SVGID_3_" d="M45.748,19.019v0.427c-0.019,0.645-0.203,1.157-0.558,1.536c-0.352,0.379-0.812,0.569-1.379,0.569
			c-0.587,0-1.062-0.195-1.423-0.583c-0.363-0.388-0.544-0.896-0.544-1.522v-0.427v-8.791V9.801c0.02-0.645,0.206-1.157,0.558-1.537
			c0.352-0.379,0.813-0.568,1.38-0.568c0.587,0,1.062,0.195,1.423,0.583c0.362,0.389,0.543,0.896,0.543,1.522v0.427V19.019z"/>
	</defs>
	<use xlink:href="#SVGID_3_"  overflow="visible" fill-rule="evenodd" clip-rule="evenodd" fill="#FFFFFF"/>
	<clipPath id="SVGID_4_">
		<use xlink:href="#SVGID_3_"  overflow="visible"/>
	</clipPath>
</g>
<g>
	<defs>
		<path id="SVGID_5_" d="M53.436,24.313v0.426c-0.019,0.662-0.2,1.178-0.543,1.548c-0.343,0.368-0.809,0.554-1.395,0.554
			c-0.587,0-1.062-0.19-1.423-0.569c-0.362-0.379-0.543-0.891-0.543-1.536V24.31V10.143c0-0.455,0.019-0.796,0.059-1.024
			c0.039-0.228,0.117-0.437,0.235-0.626c0.313-0.53,0.841-0.796,1.584-0.796c0.921,0,1.538,0.455,1.851,1.365
			c0.626-0.53,1.243-0.906,1.85-1.123C55.715,7.72,56.43,7.61,57.251,7.61c0.978,0,1.884,0.176,2.716,0.526
			c0.831,0.352,1.545,0.839,2.143,1.465c0.596,0.626,1.066,1.371,1.41,2.234c0.342,0.863,0.513,1.797,0.513,2.801
			c0,1.006-0.171,1.935-0.513,2.789c-0.344,0.853-0.813,1.593-1.41,2.218c-0.598,0.626-1.303,1.114-2.114,1.465
			c-0.812,0.351-1.698,0.526-2.657,0.526c-0.763,0-1.453-0.104-2.069-0.311c-0.617-0.207-1.229-0.546-1.835-1.017V24.313z
			 M56.636,17.851c0.45,0,0.875-0.085,1.276-0.255c0.4-0.17,0.754-0.398,1.058-0.683c0.303-0.283,0.542-0.616,0.718-0.996
			c0.176-0.379,0.264-0.787,0.264-1.223c0-0.455-0.088-0.882-0.264-1.28c-0.176-0.399-0.411-0.74-0.705-1.024
			c-0.293-0.285-0.641-0.512-1.042-0.683c-0.401-0.171-0.837-0.256-1.306-0.256c-0.451,0-0.876,0.085-1.278,0.256
			c-0.401,0.171-0.749,0.398-1.042,0.683c-0.292,0.284-0.527,0.621-0.704,1.01c-0.176,0.389-0.264,0.81-0.264,1.266
			c0,0.436,0.087,0.849,0.264,1.237c0.176,0.39,0.411,0.727,0.704,1.01c0.294,0.284,0.641,0.513,1.042,0.683
			C55.759,17.766,56.185,17.851,56.636,17.851z"/>
	</defs>
	<use xlink:href="#SVGID_5_"  overflow="visible" fill-rule="evenodd" clip-rule="evenodd" fill="#FFFFFF"/>
	<clipPath id="SVGID_6_">
		<use xlink:href="#SVGID_5_"  overflow="visible"/>
	</clipPath>
</g>
<g>
	<defs>
		<path id="SVGID_7_" d="M70.492,24.313v0.426c-0.02,0.662-0.201,1.178-0.543,1.548c-0.343,0.368-0.808,0.554-1.395,0.554
			s-1.061-0.19-1.424-0.569c-0.362-0.379-0.543-0.891-0.543-1.536V24.31V10.143c0-0.455,0.019-0.796,0.058-1.024
			c0.04-0.228,0.119-0.437,0.235-0.626c0.313-0.53,0.841-0.796,1.584-0.796c0.92,0,1.537,0.455,1.851,1.365
			c0.626-0.53,1.242-0.906,1.849-1.123c0.606-0.218,1.321-0.328,2.143-0.328c0.978,0,1.882,0.176,2.716,0.526
			c0.831,0.352,1.545,0.839,2.142,1.465c0.597,0.626,1.067,1.371,1.41,2.234c0.343,0.863,0.514,1.797,0.514,2.801
			c0,1.006-0.171,1.935-0.514,2.789c-0.342,0.853-0.812,1.593-1.41,2.218c-0.597,0.626-1.301,1.114-2.114,1.465
			c-0.812,0.351-1.698,0.526-2.656,0.526c-0.764,0-1.454-0.104-2.07-0.311c-0.616-0.207-1.229-0.546-1.834-1.017V24.313z
			 M73.692,17.851c0.45,0,0.875-0.085,1.276-0.255c0.401-0.17,0.754-0.398,1.058-0.683c0.302-0.283,0.542-0.616,0.718-0.996
			c0.176-0.379,0.264-0.787,0.264-1.223c0-0.455-0.087-0.882-0.264-1.28c-0.177-0.399-0.411-0.74-0.704-1.024
			c-0.295-0.285-0.643-0.512-1.043-0.683c-0.4-0.171-0.836-0.256-1.306-0.256c-0.451,0-0.876,0.085-1.278,0.256
			c-0.401,0.171-0.748,0.398-1.042,0.683c-0.292,0.284-0.528,0.621-0.705,1.01c-0.175,0.389-0.264,0.81-0.264,1.266
			c0,0.436,0.088,0.849,0.264,1.237c0.177,0.39,0.412,0.727,0.705,1.01c0.294,0.284,0.641,0.513,1.042,0.683
			C72.816,17.766,73.242,17.851,73.692,17.851z"/>
	</defs>
	<use xlink:href="#SVGID_7_"  overflow="visible" fill-rule="evenodd" clip-rule="evenodd" fill="#FFFFFF"/>
	<clipPath id="SVGID_8_">
		<use xlink:href="#SVGID_7_"  overflow="visible"/>
	</clipPath>
</g>
<g>
	<defs>
		<path id="SVGID_9_" d="M87.607,19.019v0.427c-0.02,0.645-0.206,1.157-0.558,1.536c-0.352,0.379-0.812,0.569-1.379,0.569
			c-0.588,0-1.062-0.195-1.424-0.583c-0.363-0.388-0.544-0.896-0.544-1.522v-0.427v-8.791V9.801c0.02-0.645,0.205-1.157,0.558-1.537
			c0.352-0.379,0.812-0.568,1.379-0.568c0.588,0,1.062,0.195,1.424,0.583c0.362,0.389,0.543,0.896,0.543,1.522v0.427V19.019z"/>
	</defs>
	<use xlink:href="#SVGID_9_"  overflow="visible" fill-rule="evenodd" clip-rule="evenodd" fill="#FFFFFF"/>
	<clipPath id="SVGID_10_">
		<use xlink:href="#SVGID_9_"  overflow="visible"/>
	</clipPath>
</g>
<g>
	<defs>
		<path id="SVGID_11_" d="M98.865,21.323c-0.617,0.208-1.307,0.313-2.07,0.313c-0.958,0-1.844-0.176-2.657-0.526
			c-0.812-0.351-1.516-0.839-2.113-1.465c-0.597-0.625-1.067-1.365-1.408-2.218c-0.344-0.854-0.515-1.783-0.515-2.789
			c0-1.004,0.171-1.938,0.515-2.801c0.341-0.863,0.812-1.607,1.408-2.234c0.598-0.626,1.311-1.113,2.143-1.465
			C95,7.786,95.904,7.61,96.884,7.61c0.822,0,1.536,0.11,2.144,0.328c0.605,0.217,1.222,0.593,1.848,1.123
			c0.332-0.91,0.949-1.365,1.85-1.365c0.351,0,0.67,0.071,0.955,0.213c0.282,0.142,0.493,0.336,0.629,0.583
			c0.118,0.209,0.196,0.427,0.235,0.654c0.04,0.228,0.059,0.56,0.059,0.996V24.31v0.426c-0.019,0.664-0.206,1.181-0.558,1.55
			s-0.822,0.555-1.409,0.555c-0.568,0-1.032-0.195-1.394-0.583c-0.362-0.389-0.542-0.896-0.542-1.522V24.31v-4.012
			C100.093,20.772,99.482,21.114,98.865,21.323 M97.5,17.851c0.45,0,0.876-0.085,1.276-0.255c0.401-0.17,0.749-0.398,1.043-0.683
			c0.293-0.283,0.528-0.62,0.704-1.01c0.177-0.389,0.264-0.801,0.264-1.237c0-0.457-0.087-0.877-0.264-1.266
			c-0.176-0.389-0.411-0.726-0.704-1.01c-0.294-0.285-0.642-0.512-1.043-0.683c-0.4-0.171-0.827-0.256-1.276-0.256
			c-0.47,0-0.906,0.085-1.307,0.256c-0.402,0.171-0.75,0.398-1.042,0.683c-0.294,0.284-0.529,0.625-0.704,1.024
			c-0.177,0.398-0.265,0.825-0.265,1.28c0,0.437,0.088,0.844,0.265,1.223c0.175,0.379,0.416,0.712,0.719,0.996
			c0.302,0.284,0.655,0.513,1.057,0.683C96.625,17.766,97.051,17.851,97.5,17.851"/>
	</defs>
	<use xlink:href="#SVGID_11_"  overflow="visible" fill-rule="evenodd" clip-rule="evenodd" fill="#FFFFFF"/>
	<clipPath id="SVGID_12_">
		<use xlink:href="#SVGID_11_"  overflow="visible"/>
	</clipPath>
</g>
<g>
	<defs>
		<path id="SVGID_13_" d="M85.64,2.13c0.646,0,1.194,0.219,1.644,0.654c0.451,0.437,0.675,0.967,0.675,1.593
			c0,0.626-0.23,1.162-0.69,1.607c-0.459,0.446-1.022,0.669-1.688,0.669c-0.312,0-0.612-0.062-0.895-0.186
			c-0.284-0.124-0.534-0.285-0.749-0.483c-0.215-0.199-0.385-0.431-0.513-0.697c-0.128-0.265-0.191-0.55-0.191-0.854
			c0-0.663,0.23-1.213,0.69-1.65C84.382,2.349,84.954,2.13,85.64,2.13"/>
	</defs>
	<use xlink:href="#SVGID_13_"  overflow="visible" fill-rule="evenodd" clip-rule="evenodd" fill="#FFFFFF"/>
	<clipPath id="SVGID_14_">
		<use xlink:href="#SVGID_13_"  overflow="visible"/>
	</clipPath>
</g>
<g>
	<defs>
		<path id="SVGID_15_" d="M43.782,2.13c0.646,0,1.193,0.219,1.644,0.654c0.45,0.437,0.675,0.967,0.675,1.593
			c0,0.626-0.23,1.162-0.69,1.607c-0.461,0.446-1.023,0.669-1.688,0.669c-0.312,0-0.611-0.062-0.896-0.186
			c-0.284-0.124-0.534-0.285-0.749-0.483c-0.214-0.199-0.385-0.431-0.513-0.697c-0.127-0.265-0.191-0.55-0.191-0.854
			c0-0.663,0.23-1.213,0.69-1.65C42.523,2.349,43.097,2.13,43.782,2.13"/>
	</defs>
	<use xlink:href="#SVGID_15_"  overflow="visible" fill-rule="evenodd" clip-rule="evenodd" fill="#FFFFFF"/>
	<clipPath id="SVGID_16_">
		<use xlink:href="#SVGID_15_"  overflow="visible"/>
	</clipPath>
</g>
<g>
	<defs>
		<path id="SVGID_17_" d="M32.216,5.63V5.203c0.019-0.664,0.206-1.18,0.558-1.55c0.352-0.37,0.822-0.555,1.409-0.555
			c0.568,0,1.032,0.195,1.394,0.584c0.363,0.388,0.543,0.896,0.543,1.521V5.63v2.266h0.441h0.411
			c0.587,0.019,1.058,0.18,1.409,0.483c0.353,0.304,0.529,0.711,0.529,1.224c0,0.494-0.181,0.901-0.543,1.223
			c-0.363,0.322-0.826,0.484-1.395,0.484h-0.411h-0.441v7.709v0.427c-0.019,0.645-0.205,1.157-0.558,1.536
			c-0.351,0.379-0.821,0.569-1.408,0.569c-0.568,0-1.033-0.195-1.394-0.583c-0.363-0.388-0.544-0.896-0.544-1.522v-0.427v-7.709
			H32.01c-0.626,0-1.119-0.151-1.482-0.455c-0.362-0.303-0.542-0.721-0.542-1.252c0-1.176,0.743-1.745,2.23-1.707V5.63z"/>
	</defs>
	<use xlink:href="#SVGID_17_"  overflow="visible" fill-rule="evenodd" clip-rule="evenodd" fill="#FFFFFF"/>
	<clipPath id="SVGID_18_">
		<use xlink:href="#SVGID_17_"  overflow="visible"/>
	</clipPath>
</g>
</svg>
