<svg xmlns="http://www.w3.org/2000/svg" xmlns:xlink="http://www.w3.org/1999/xlink" width="196" height="196" viewBox="0 0 196 196" version="1.1">
  <title>
    register
  </title>
  <desc>
    Created with Sketch.
  </desc>
  <defs>
    <circle id="path-1" cx="97" cy="97" r="97"/>
    <rect id="path-3" x="0" y="0" width="201" height="176"/>
    <rect id="path-5" x="0" y="0" width="29" height="27.49"/>
    <polygon id="path-7" points="10.05 4.79 10.05 0.01 0.09 0.01 0.09 4.79"/>
    <polygon id="path-9" points="0 31.16 36.02 31.16 36.02 0 0 0"/>
    <polygon id="path-11" points="0 31.16 36.02 31.16 36.02 0 0 0"/>
    <polygon id="path-13" points="0 31.16 36.02 31.16 36.02 0 0 0"/>
    <polygon id="path-15" points="0 31.16 36.02 31.16 36.02 0 0 0"/>
    <polygon id="path-17" points="0 31.16 36.02 31.16 36.02 0 0 0"/>
    <polygon id="path-19" points="0 31.16 36.02 31.16 36.02 0 0 0"/>
    <polygon id="path-21" points="0 31.16 36.02 31.16 36.02 0 0 0"/>
    <polygon id="path-23" points="0 31.16 36.02 31.16 36.02 0 0 0"/>
    <polygon id="path-25" points="0 31.16 36.02 31.16 36.02 0 0 0"/>
    <polygon id="path-27" points="0 31.16 36.02 31.16 36.02 0 0 0"/>
    <polygon id="path-29" points="0 31.16 36.02 31.16 36.02 0 0 0"/>
    <polygon id="path-31" points="0 31.16 36.02 31.16 36.02 0 0 0"/>
    <polygon id="path-33" points="0 31.16 36.02 31.16 36.02 0 0 0"/>
    <polygon id="path-35" points="0 31.16 36.02 31.16 36.02 0 0 0"/>
    <polygon id="path-37" points="0 31.16 36.02 31.16 36.02 0 0 0"/>
    <polygon id="path-39" points="0 31.16 36.02 31.16 36.02 0 0 0"/>
    <polygon id="path-41" points="0 31.16 36.02 31.16 36.02 0 0 0"/>
    <polygon id="path-43" points="0 31.16 36.02 31.16 36.02 0 0 0"/>
    <polygon id="path-45" points="0 31.16 36.02 31.16 36.02 0 0 0"/>
    <polygon id="path-47" points="0 31.16 36.02 31.16 36.02 0 0 0"/>
    <polygon id="path-49" points="0 31.16 36.02 31.16 36.02 0 0 0"/>
    <polygon id="path-51" points="0 31.16 36.02 31.16 36.02 0 0 0"/>
    <polygon id="path-53" points="0 31.16 36.02 31.16 36.02 0 0 0"/>
    <polygon id="path-55" points="0 31.16 36.02 31.16 36.02 0 0 0"/>
    <polygon id="path-57" points="0 31.16 36.02 31.16 36.02 0 0 0"/>
    <polygon id="path-59" points="0 31.16 36.02 31.16 36.02 0 0 0"/>
    <rect id="path-61" x="0" y="0" width="29" height="27.49"/>
    <polygon id="path-63" points="0 30.43 30.11 30.43 30.11 0.13 0 0.13"/>
    <polygon id="path-65" points="0 30.43 30.11 30.43 30.11 0.13 0 0.13"/>
    <polygon id="path-67" points="0 30.43 30.11 30.43 30.11 0.13 0 0.13"/>
    <polygon id="path-69" points="0 30.43 30.11 30.43 30.11 0.13 0 0.13"/>
    <polygon id="path-71" points="0 30.43 30.11 30.43 30.11 0.13 0 0.13"/>
    <polygon id="path-73" points="0 30.43 30.11 30.43 30.11 0.13 0 0.13"/>
    <polygon id="path-75" points="0 30.43 30.11 30.43 30.11 0.13 0 0.13"/>
    <polygon id="path-77" points="0 30.43 30.11 30.43 30.11 0.13 0 0.13"/>
    <polygon id="path-79" points="0 30.43 30.11 30.43 30.11 0.13 0 0.13"/>
    <polygon id="path-81" points="0 30.43 30.11 30.43 30.11 0.13 0 0.13"/>
    <polygon id="path-83" points="0 30.43 30.11 30.43 30.11 0.13 0 0.13"/>
    <polygon id="path-85" points="0 30.43 30.11 30.43 30.11 0.13 0 0.13"/>
    <polygon id="path-87" points="0 30.43 30.11 30.43 30.11 0.13 0 0.13"/>
    <polygon id="path-89" points="0 30.43 30.11 30.43 30.11 0.13 0 0.13"/>
    <polygon id="path-91" points="0 30.43 30.11 30.43 30.11 0.13 0 0.13"/>
    <polygon id="path-93" points="0 30.43 30.11 30.43 30.11 0.13 0 0.13"/>
    <polygon id="path-95" points="0 30.43 30.11 30.43 30.11 0.13 0 0.13"/>
    <rect id="path-97" x="0" y="0" width="29.01" height="27.62"/>
  </defs>
  <g id="Page-1" stroke="none" stroke-width="1" fill="none" fill-rule="evenodd">
    <g id="poging-2" transform="translate(1.000000, 1.000000)">
      <g id="2">
        <g id="2">
          <g id="BUURTBERICHT-DIENST">
            <g id="BEELD">
              <g id="Mask" stroke="#4DC799" fill="#4DC799">
                <circle id="path-1" cx="97" cy="97" r="97"/>
              </g>
              <g id="ILLUSTRATIE-Clipped">
                <mask id="mask-2" fill="white">
                  <use xlink:href="#path-1"/>
                </mask>
                <g id="path-1"/>
                <g id="ILLUSTRATIE" mask="url(#mask-2)">
                  <g transform="translate(2.000000, 18.000000)" id="Group">
                    <g id="ILLUSTRATIE-Clipped">
                      <mask id="mask-4" fill="white">
                        <use xlink:href="#path-3"/>
                      </mask>
                      <g id="path-3"/>
                      <g id="ILLUSTRATIE" mask="url(#mask-4)">
                        <g transform="translate(12.000000, 17.000000)" id="Group">
                          <g transform="translate(0.497409, 0.704142)">
                            <rect id="Rectangle-8" fill="#333333" x="0.53" y="0.11" width="166.7" height="23.03"/>
                            <path d="M55.23 15.2L55.23 8.93 56.53 8.93 56.53 11.5 57.46 11.5 57.46 8.93 58.76 8.93 58.76 15.2 57.46 15.2 57.46 12.4 56.53 12.4 56.53 15.2 55.23 15.2ZM60.81 13.08L61.47 13.08 61.15 10.75 60.81 13.08ZM59.18 15.2L60.57 8.93 61.72 8.93 63.1 15.2 61.82 15.2 61.56 13.86 60.72 13.86 60.47 15.2 59.18 15.2ZM64.8 13.08L65.46 13.08 65.13 10.75 64.8 13.08ZM63.17 15.2L64.56 8.93 65.71 8.93 67.09 15.2 65.81 15.2 65.55 13.86 64.71 13.86 64.46 15.2 63.17 15.2ZM68.8 11.54L69.18 11.54C69.28 11.54 69.36 11.5 69.43 11.44 69.5 11.37 69.56 11.29 69.59 11.19 69.62 11.09 69.64 11 69.66 10.92 69.67 10.83 69.68 10.75 69.68 10.68 69.68 10.61 69.67 10.53 69.66 10.45 69.65 10.37 69.63 10.28 69.6 10.19 69.58 10.09 69.53 10.01 69.47 9.95 69.4 9.89 69.33 9.86 69.24 9.86L68.8 9.86 68.8 11.54ZM67.51 15.2L67.51 8.93 68.92 8.93C69.24 8.93 69.52 8.96 69.77 9.02 70.01 9.07 70.22 9.17 70.41 9.29 70.59 9.42 70.73 9.59 70.83 9.81 70.92 10.02 70.97 10.28 70.97 10.58 70.97 10.71 70.96 10.83 70.95 10.93 70.94 11.03 70.92 11.15 70.89 11.28 70.85 11.41 70.81 11.53 70.75 11.63 70.69 11.73 70.6 11.83 70.49 11.92 70.38 12.02 70.25 12.1 70.09 12.17 70.48 13.36 70.82 14.37 71.1 15.2L69.75 15.2 69.02 12.31 68.8 12.31 68.8 15.2 67.51 15.2ZM71.51 15.2L71.51 8.93 72.81 8.93 72.81 14.33 74.09 14.33 74.09 15.2 71.51 15.2ZM74.5 15.2L74.5 8.93 77.19 8.93 77.19 9.8 75.8 9.8 75.8 11.51 76.78 11.51 76.78 12.4 75.8 12.4 75.8 14.33 77.19 14.33 77.19 15.2 74.5 15.2ZM77.65 15.2L77.65 8.93 79.21 8.93 79.89 13.11 80.63 8.93 82.13 8.93 82.13 15.2 81.18 15.2 81.15 10.79C81.08 11.24 80.95 11.98 80.77 12.99 80.59 14.01 80.47 14.75 80.4 15.2L79.43 15.2 78.64 10.76 78.61 15.2 77.65 15.2ZM82.9 15.2L82.9 8.93 84.45 8.93 85.14 13.11 85.88 8.93 87.38 8.93 87.38 15.2 86.43 15.2 86.4 10.79C86.33 11.24 86.2 11.98 86.02 12.99 85.84 14.01 85.72 14.75 85.65 15.2L84.68 15.2 83.89 10.76 83.86 15.2 82.9 15.2ZM88.15 15.2L88.15 8.93 90.83 8.93 90.83 9.8 89.45 9.8 89.45 11.51 90.42 11.51 90.42 12.4 89.45 12.4 89.45 14.33 90.83 14.33 90.83 15.2 88.15 15.2ZM92.59 11.54L92.96 11.54C93.06 11.54 93.15 11.5 93.22 11.44 93.29 11.37 93.34 11.29 93.38 11.19 93.41 11.09 93.43 11 93.44 10.92 93.46 10.83 93.46 10.75 93.46 10.68 93.46 10.61 93.46 10.53 93.45 10.45 93.44 10.37 93.42 10.28 93.39 10.19 93.36 10.09 93.32 10.01 93.25 9.95 93.19 9.89 93.11 9.86 93.02 9.86L92.59 9.86 92.59 11.54ZM91.29 15.2L91.29 8.93 92.71 8.93C93.03 8.93 93.31 8.96 93.55 9.02 93.8 9.07 94.01 9.17 94.2 9.29 94.38 9.42 94.52 9.59 94.61 9.81 94.71 10.02 94.76 10.28 94.76 10.58 94.76 10.71 94.75 10.83 94.74 10.93 94.73 11.03 94.71 11.15 94.68 11.28 94.64 11.41 94.59 11.53 94.53 11.63 94.47 11.73 94.39 11.83 94.28 11.92 94.17 12.02 94.03 12.1 93.88 12.17 94.27 13.36 94.6 14.37 94.89 15.2L93.54 15.2 92.81 12.31 92.59 12.31 92.59 15.2 91.29 15.2ZM95.88 15.2L94.99 8.93 96.1 8.93 96.5 13.08 97.05 8.93 98 8.93 98.54 13.06 98.96 8.93 100.07 8.93 99.17 15.2 98.06 15.2 97.52 11.09 96.99 15.2 95.88 15.2ZM100.53 15.2L100.53 8.93 103.21 8.93 103.21 9.8 101.83 9.8 101.83 11.51 102.8 11.51 102.8 12.4 101.83 12.4 101.83 14.33 103.21 14.33 103.21 15.2 100.53 15.2ZM103.59 13.24L103.59 11.03C103.59 9.55 104.22 8.8 105.49 8.8 105.75 8.8 105.99 8.84 106.2 8.91 106.41 8.98 106.58 9.07 106.72 9.19 106.86 9.31 106.98 9.46 107.07 9.64 107.16 9.81 107.22 10.01 107.26 10.21 107.3 10.42 107.32 10.65 107.32 10.9L107.32 11.27 106.08 11.27 106.08 10.83C106.08 10.72 106.08 10.62 106.07 10.54 106.07 10.46 106.05 10.36 106.03 10.26 106 10.16 105.97 10.08 105.93 10.01 105.89 9.95 105.83 9.89 105.76 9.85 105.68 9.81 105.59 9.78 105.49 9.78 105.09 9.78 104.89 10.09 104.89 10.71L104.89 13.42C104.89 14.04 105.09 14.34 105.49 14.34 105.88 14.34 106.08 14.02 106.08 13.38L106.08 12.88 105.34 12.88 105.34 11.97 107.38 11.97 107.38 15.2 106.49 15.2 106.32 14.76C106.21 14.93 106.06 15.06 105.85 15.17 105.65 15.27 105.44 15.32 105.23 15.32 105 15.32 104.79 15.28 104.6 15.2 104.41 15.12 104.25 15.01 104.13 14.87 104.01 14.74 103.9 14.58 103.82 14.39 103.74 14.21 103.68 14.02 103.64 13.83 103.61 13.64 103.59 13.44 103.59 13.24L103.59 13.24ZM110.49 12.7L111.19 12.7 111.19 10.82 110.49 12.7ZM109.4 13.68L109.4 12.69 110.97 8.92 112.43 8.92 112.43 12.7 113.03 12.7 113.03 13.68 112.43 13.68 112.43 15.2 111.19 15.2 111.19 13.68 109.4 13.68ZM113.47 13.21L114.7 13.21C114.7 13.32 114.7 13.42 114.7 13.5 114.7 13.58 114.71 13.66 114.72 13.75 114.72 13.84 114.73 13.92 114.75 13.98 114.77 14.04 114.79 14.09 114.82 14.14 114.85 14.2 114.89 14.23 114.94 14.26 114.98 14.28 115.04 14.29 115.1 14.29 115.18 14.29 115.25 14.28 115.31 14.25 115.37 14.22 115.42 14.18 115.46 14.13 115.5 14.07 115.53 14.01 115.56 13.94 115.59 13.88 115.61 13.8 115.62 13.72 115.63 13.65 115.64 13.57 115.65 13.49 115.66 13.41 115.66 13.33 115.66 13.26 115.66 13.18 115.66 13.11 115.66 13.05L115.66 12.95C115.66 12.88 115.66 12.82 115.65 12.77 115.65 12.72 115.65 12.65 115.64 12.57 115.63 12.5 115.61 12.43 115.59 12.37 115.57 12.32 115.54 12.26 115.51 12.21 115.47 12.15 115.43 12.11 115.37 12.08 115.31 12.05 115.25 12.04 115.18 12.04 115.06 12.04 114.96 12.09 114.87 12.19 114.78 12.29 114.71 12.4 114.65 12.53L113.6 12.53 113.6 8.92 116.66 8.92 116.66 10.12 114.76 10.12 114.76 11.25C114.99 11.11 115.19 11.04 115.38 11.04 115.61 11.04 115.81 11.08 115.99 11.15 116.17 11.22 116.31 11.32 116.42 11.44 116.53 11.55 116.62 11.7 116.69 11.87 116.76 12.04 116.81 12.21 116.83 12.39 116.86 12.57 116.87 12.76 116.87 12.97 116.87 13.18 116.86 13.37 116.84 13.55 116.82 13.72 116.79 13.91 116.75 14.09 116.7 14.28 116.64 14.44 116.55 14.58 116.47 14.73 116.36 14.85 116.24 14.97 116.12 15.08 115.97 15.17 115.78 15.23 115.6 15.29 115.39 15.32 115.16 15.32 114.89 15.32 114.66 15.29 114.46 15.21 114.26 15.14 114.1 15.04 113.97 14.91 113.85 14.79 113.75 14.63 113.67 14.45 113.59 14.26 113.54 14.07 113.51 13.87 113.48 13.68 113.47 13.45 113.47 13.21L113.47 13.21Z" id="HAARLEMMERWEG-45" fill="#60CDA2"/>
                            <rect id="Rectangle-7" fill="#FFFFFF" x="0.53" y="22.71" width="166.7" height="196.42"/>
                            <g id="LOGO-//-GROEN" transform="translate(7.906478, 7.066228)">
                              <g id="Page-1" transform="translate(-0.000000, 0.000000)">
                                <path d="M3.78 4.67C3.27 4.67 2.82 4.23 2.82 3.74 2.82 3.27 3.27 2.84 3.78 2.84 4.28 2.84 4.73 3.26 4.73 3.74 4.73 4.24 4.3 4.67 3.78 4.67M6.44 1.19C4.97-0.23 2.58-0.23 1.11 1.19 -0.37 2.61-0.37 4.91 1.11 6.33 1.84 7.03 3.77 8.72 3.77 8.72 3.77 8.72 5.71 7.04 6.44 6.33 7.92 4.91 7.92 2.61 6.44 1.19" id="Fill-1" fill="#60CDA2"/>
                                <path d="M10.42 1.94L10.42 1.81C10.43 1.59 10.49 1.42 10.6 1.31 10.72 1.19 10.87 1.13 11.06 1.13 11.24 1.13 11.39 1.19 11.51 1.31 11.63 1.44 11.69 1.6 11.69 1.81L11.69 1.94 11.69 2.67 11.83 2.67 11.97 2.67C12.16 2.68 12.31 2.73 12.42 2.83 12.54 2.93 12.6 3.06 12.6 3.23 12.6 3.38 12.54 3.52 12.42 3.62 12.3 3.72 12.15 3.78 11.97 3.78L11.83 3.78 11.69 3.78 11.69 6.26 11.69 6.4C11.68 6.61 11.62 6.77 11.51 6.9 11.39 7.02 11.24 7.08 11.05 7.08 10.86 7.08 10.71 7.02 10.6 6.89 10.48 6.77 10.42 6.6 10.42 6.4L10.42 6.26 10.42 3.78 10.35 3.78C10.15 3.78 9.99 3.73 9.87 3.63 9.75 3.53 9.69 3.4 9.69 3.23 9.69 2.85 9.94 2.66 10.42 2.67L10.42 1.94Z" id="Fill-4" fill="#FEFEFE"/>
                                <path d="M14.82 6.26L14.82 6.4C14.81 6.61 14.75 6.77 14.64 6.9 14.52 7.02 14.37 7.08 14.19 7.08 14 7.08 13.84 7.02 13.73 6.89 13.61 6.77 13.55 6.6 13.55 6.4L13.55 6.26 13.55 3.43 13.55 3.29C13.56 3.08 13.62 2.92 13.73 2.79 13.84 2.67 13.99 2.61 14.18 2.61 14.37 2.61 14.52 2.67 14.64 2.8 14.76 2.92 14.82 3.09 14.82 3.29L14.82 3.43 14.82 6.26Z" id="Fill-6" fill="#FEFEFE"/>
                                <path d="M18.36 5.89C18.5 5.89 18.64 5.86 18.77 5.8 18.9 5.75 19.02 5.68 19.12 5.58 19.21 5.49 19.29 5.39 19.35 5.26 19.41 5.14 19.44 5.01 19.44 4.87 19.44 4.72 19.41 4.58 19.35 4.46 19.29 4.33 19.22 4.22 19.12 4.12 19.03 4.03 18.91 3.96 18.78 3.9 18.65 3.85 18.51 3.82 18.36 3.82 18.21 3.82 18.07 3.85 17.94 3.9 17.81 3.96 17.7 4.03 17.6 4.12 17.51 4.22 17.43 4.33 17.37 4.45 17.32 4.58 17.29 4.71 17.29 4.86 17.29 5 17.32 5.13 17.37 5.26 17.43 5.38 17.51 5.49 17.6 5.58 17.7 5.68 17.81 5.75 17.94 5.8 18.07 5.86 18.21 5.89 18.36 5.89L18.36 5.89ZM17.32 7.97L17.32 8.11C17.31 8.32 17.25 8.49 17.14 8.61 17.03 8.73 16.88 8.79 16.69 8.79 16.5 8.79 16.34 8.73 16.22 8.6 16.11 8.48 16.05 8.32 16.05 8.11L16.05 7.97 16.05 3.4C16.05 3.25 16.05 3.14 16.07 3.07 16.08 3 16.11 2.93 16.14 2.87 16.25 2.7 16.42 2.61 16.66 2.61 16.96 2.61 17.16 2.76 17.26 3.05 17.46 2.88 17.66 2.76 17.86 2.69 18.06 2.62 18.29 2.58 18.56 2.58 18.88 2.58 19.17 2.64 19.44 2.75 19.71 2.87 19.94 3.02 20.14 3.22 20.33 3.43 20.48 3.67 20.6 3.95 20.71 4.22 20.76 4.53 20.76 4.85 20.76 5.17 20.71 5.47 20.6 5.75 20.48 6.02 20.33 6.26 20.14 6.47 19.94 6.67 19.71 6.82 19.45 6.94 19.19 7.05 18.9 7.11 18.59 7.11 18.34 7.11 18.11 7.07 17.91 7.01 17.71 6.94 17.51 6.83 17.32 6.68L17.32 7.97Z" id="Fill-8" fill="#FEFEFE"/>
                                <path d="M23.9 5.89C24.05 5.89 24.19 5.86 24.32 5.8 24.45 5.75 24.56 5.68 24.66 5.58 24.76 5.49 24.84 5.39 24.89 5.26 24.95 5.14 24.98 5.01 24.98 4.87 24.98 4.72 24.95 4.58 24.89 4.46 24.84 4.33 24.76 4.22 24.67 4.12 24.57 4.03 24.46 3.96 24.33 3.9 24.2 3.85 24.05 3.82 23.9 3.82 23.76 3.82 23.62 3.85 23.49 3.9 23.36 3.96 23.24 4.03 23.15 4.12 23.05 4.22 22.98 4.33 22.92 4.45 22.86 4.58 22.83 4.71 22.83 4.86 22.83 5 22.86 5.13 22.92 5.26 22.98 5.38 23.05 5.49 23.15 5.58 23.24 5.68 23.36 5.75 23.49 5.8 23.62 5.86 23.76 5.89 23.9 5.89L23.9 5.89ZM22.86 7.97L22.86 8.11C22.86 8.32 22.8 8.49 22.69 8.61 22.57 8.73 22.42 8.79 22.23 8.79 22.04 8.79 21.89 8.73 21.77 8.6 21.65 8.48 21.59 8.32 21.59 8.11L21.59 7.97 21.59 3.4C21.59 3.25 21.6 3.14 21.61 3.07 21.62 3 21.65 2.93 21.69 2.87 21.79 2.7 21.96 2.61 22.2 2.61 22.5 2.61 22.7 2.76 22.8 3.05 23.01 2.88 23.21 2.76 23.41 2.69 23.6 2.62 23.84 2.58 24.1 2.58 24.42 2.58 24.71 2.64 24.99 2.75 25.26 2.87 25.49 3.02 25.68 3.22 25.88 3.43 26.03 3.67 26.14 3.95 26.25 4.22 26.31 4.53 26.31 4.85 26.31 5.17 26.25 5.47 26.14 5.75 26.03 6.02 25.88 6.26 25.68 6.47 25.49 6.67 25.26 6.82 24.99 6.94 24.73 7.05 24.44 7.11 24.13 7.11 23.88 7.11 23.66 7.07 23.46 7.01 23.26 6.94 23.06 6.83 22.86 6.68L22.86 7.97Z" id="Fill-11" fill="#FEFEFE"/>
                                <path d="M28.43 6.26L28.43 6.4C28.42 6.61 28.36 6.77 28.24 6.9 28.13 7.02 27.98 7.08 27.8 7.08 27.6 7.08 27.45 7.02 27.33 6.89 27.21 6.77 27.16 6.6 27.16 6.4L27.16 6.26 27.16 3.43 27.16 3.29C27.16 3.08 27.22 2.92 27.34 2.79 27.45 2.67 27.6 2.61 27.79 2.61 27.98 2.61 28.13 2.67 28.25 2.8 28.37 2.92 28.43 3.09 28.43 3.29L28.43 3.43 28.43 6.26Z" id="Fill-14" fill="#FEFEFE"/>
                                <path d="M31.64 5.89C31.79 5.89 31.93 5.86 32.06 5.8 32.19 5.75 32.3 5.68 32.4 5.58 32.49 5.49 32.57 5.38 32.62 5.26 32.68 5.13 32.71 5 32.71 4.86 32.71 4.71 32.68 4.58 32.62 4.45 32.57 4.33 32.49 4.22 32.4 4.12 32.3 4.03 32.19 3.96 32.06 3.9 31.93 3.85 31.79 3.82 31.64 3.82 31.49 3.82 31.35 3.85 31.22 3.9 31.09 3.96 30.97 4.03 30.88 4.12 30.78 4.22 30.71 4.33 30.65 4.46 30.59 4.58 30.56 4.72 30.56 4.87 30.56 5.01 30.59 5.14 30.65 5.26 30.71 5.39 30.78 5.49 30.88 5.58 30.98 5.68 31.1 5.75 31.23 5.8 31.36 5.86 31.5 5.89 31.64 5.89M32.08 7.01C31.88 7.07 31.66 7.11 31.41 7.11 31.1 7.11 30.81 7.05 30.55 6.94 30.28 6.82 30.06 6.67 29.86 6.47 29.67 6.26 29.51 6.02 29.4 5.75 29.29 5.47 29.24 5.17 29.24 4.85 29.24 4.53 29.29 4.22 29.4 3.95 29.51 3.67 29.67 3.43 29.86 3.22 30.06 3.02 30.29 2.87 30.56 2.75 30.83 2.64 31.12 2.58 31.44 2.58 31.71 2.58 31.94 2.62 32.14 2.69 32.33 2.76 32.54 2.88 32.74 3.05 32.85 2.76 33.05 2.61 33.34 2.61 33.45 2.61 33.56 2.63 33.65 2.68 33.74 2.72 33.81 2.79 33.86 2.87 33.89 2.93 33.92 3 33.93 3.08 33.94 3.15 33.95 3.26 33.95 3.4L33.95 7.97 33.95 8.11C33.94 8.32 33.88 8.49 33.77 8.61 33.65 8.73 33.5 8.79 33.31 8.79 33.13 8.79 32.98 8.72 32.86 8.6 32.74 8.47 32.68 8.31 32.68 8.11L32.68 7.97 32.68 6.68C32.48 6.83 32.29 6.94 32.08 7.01" id="Fill-16" fill="#FEFEFE"/>
                                <path d="M27.79 0.81C28 0.81 28.17 0.88 28.32 1.03 28.47 1.17 28.54 1.34 28.54 1.54 28.54 1.74 28.46 1.91 28.32 2.06 28.17 2.2 27.98 2.27 27.77 2.27 27.66 2.27 27.57 2.25 27.48 2.21 27.38 2.17 27.3 2.12 27.23 2.06 27.16 1.99 27.11 1.92 27.07 1.83 27.02 1.75 27 1.66 27 1.56 27 1.34 27.08 1.17 27.23 1.03 27.38 0.88 27.56 0.81 27.79 0.81" id="Fill-19" fill="#FEFEFE"/>
                                <path d="M14.18 0.81C14.39 0.81 14.57 0.88 14.71 1.03 14.86 1.17 14.93 1.34 14.93 1.54 14.93 1.74 14.86 1.91 14.71 2.06 14.56 2.2 14.38 2.27 14.16 2.27 14.06 2.27 13.96 2.25 13.87 2.21 13.78 2.17 13.7 2.12 13.63 2.06 13.56 1.99 13.5 1.92 13.46 1.83 13.42 1.75 13.4 1.66 13.4 1.56 13.4 1.34 13.47 1.17 13.62 1.03 13.77 0.88 13.96 0.81 14.18 0.81" id="Fill-21" fill="#FEFEFE"/>
                              </g>
                            </g>
                            <g id="BUURT-VERBETEREN" transform="translate(9.642979, 33.574870)">
                              <g id="BRON" transform="translate(0.000000, 12.463854)">
                                <path d="M35.76 6.41L36.95 6.18C36.95 6.29 36.95 6.4 36.96 6.49 36.96 6.58 36.97 6.68 36.99 6.78 37.01 6.89 37.03 6.98 37.06 7.05 37.1 7.11 37.14 7.17 37.2 7.22 37.25 7.26 37.32 7.29 37.4 7.29 37.63 7.29 37.75 7.14 37.75 6.84 37.75 6.43 37.52 6.03 37.06 5.63L36.69 5.32C36.58 5.22 36.49 5.14 36.42 5.08 36.35 5.01 36.27 4.93 36.17 4.82 36.08 4.71 36.01 4.6 35.95 4.5 35.9 4.4 35.86 4.27 35.82 4.13 35.78 3.99 35.76 3.83 35.76 3.67 35.76 3.2 35.91 2.83 36.21 2.56 36.51 2.28 36.91 2.15 37.4 2.15 37.81 2.15 38.16 2.29 38.45 2.58 38.74 2.88 38.88 3.23 38.88 3.64L38.88 3.68 38.88 3.78 37.67 3.95C37.67 3.92 37.67 3.89 37.67 3.84 37.67 3.79 37.68 3.74 37.68 3.71 37.68 3.63 37.67 3.56 37.66 3.49 37.65 3.42 37.63 3.35 37.61 3.28 37.58 3.21 37.54 3.15 37.49 3.11 37.44 3.07 37.38 3.05 37.3 3.05 37.18 3.05 37.08 3.1 37.01 3.2 36.95 3.3 36.92 3.42 36.92 3.55 36.92 3.67 36.94 3.79 36.97 3.89 37.01 4 37.07 4.1 37.14 4.19 37.22 4.28 37.29 4.35 37.36 4.41 37.42 4.47 37.51 4.55 37.61 4.64 37.72 4.72 37.8 4.79 37.84 4.83 38.01 4.97 38.15 5.11 38.26 5.24 38.38 5.37 38.48 5.51 38.59 5.67 38.69 5.83 38.76 6.01 38.81 6.19 38.86 6.38 38.89 6.58 38.89 6.8 38.89 7.2 38.74 7.54 38.45 7.8 38.16 8.05 37.81 8.18 37.39 8.18 37.13 8.18 36.89 8.13 36.68 8.04 36.47 7.94 36.3 7.8 36.17 7.63 36.05 7.46 35.95 7.28 35.88 7.07 35.81 6.86 35.77 6.64 35.76 6.41L35.76 6.41ZM40.51 6.1L41.11 6.1 40.82 3.95 40.51 6.1ZM39.04 8.06L40.3 2.27 41.33 2.27 42.59 8.06 41.43 8.06 41.19 6.82 40.43 6.82 40.21 8.06 39.04 8.06ZM42.96 8.06L42.96 2.27 44.37 2.27 44.99 6.13 45.66 2.27 47.01 2.27 47.01 8.06 46.15 8.06 46.12 3.99C46.06 4.4 45.95 5.08 45.78 6.03 45.62 6.97 45.51 7.65 45.45 8.06L44.57 8.06 43.85 3.96 43.83 8.06 42.96 8.06ZM47.7 8.06L47.7 2.27 50.13 2.27 50.13 3.07 48.88 3.07 48.88 4.65 49.76 4.65 49.76 5.47 48.88 5.47 48.88 7.26 50.13 7.26 50.13 8.06 47.7 8.06ZM50.55 8.06L50.55 2.26 51.39 2.26 52.67 5.3 52.67 2.26 53.64 2.26 53.64 8.06 52.83 8.06 51.56 4.85 51.56 8.06 50.55 8.06ZM55.66 8.06L55.66 2.27 56.83 2.27 56.83 4.64 57.67 4.64 57.67 2.27 58.85 2.27 58.85 8.06 57.67 8.06 57.67 5.48 56.83 5.48 56.83 8.06 55.66 8.06ZM59.54 8.06L59.54 2.27 61.97 2.27 61.97 3.07 60.72 3.07 60.72 4.65 61.6 4.65 61.6 5.47 60.72 5.47 60.72 7.26 61.97 7.26 61.97 8.06 59.54 8.06ZM62.94 8.06L62.94 3.14 62.09 3.14 62.09 2.27 64.95 2.27 64.95 3.14 64.11 3.14 64.11 8.06 62.94 8.06ZM67.85 4.76C67.91 4.76 67.96 4.75 68.01 4.74 68.06 4.74 68.1 4.73 68.14 4.72 68.18 4.71 68.21 4.69 68.24 4.67 68.27 4.64 68.29 4.62 68.31 4.6 68.32 4.58 68.34 4.55 68.35 4.5 68.37 4.46 68.38 4.42 68.38 4.4 68.39 4.37 68.39 4.32 68.4 4.26 68.4 4.2 68.4 4.15 68.4 4.11L68.4 3.93 68.4 3.89C68.4 3.8 68.4 3.74 68.4 3.7 68.4 3.65 68.4 3.6 68.39 3.53 68.38 3.47 68.37 3.42 68.36 3.38 68.34 3.35 68.32 3.31 68.3 3.27 68.27 3.22 68.24 3.19 68.2 3.17 68.16 3.15 68.11 3.14 68.05 3.12 67.99 3.11 67.92 3.1 67.85 3.1L67.85 4.76ZM66.66 8.06L66.66 2.27 68.07 2.27C68.57 2.27 68.94 2.41 69.17 2.69 69.4 2.97 69.52 3.38 69.52 3.91 69.52 4.17 69.49 4.4 69.44 4.59 69.39 4.78 69.32 4.94 69.23 5.07 69.14 5.2 69.02 5.3 68.88 5.37 68.74 5.45 68.58 5.5 68.42 5.53 68.25 5.57 68.06 5.58 67.84 5.58L67.84 8.06 66.66 8.06ZM71.12 6.1L71.72 6.1 71.42 3.95 71.12 6.1ZM69.64 8.06L70.9 2.27 71.94 2.27 73.19 8.06 72.03 8.06 71.79 6.82 71.04 6.82 70.81 8.06 69.64 8.06ZM74.74 4.68L75.08 4.68C75.17 4.68 75.24 4.65 75.31 4.59 75.37 4.53 75.42 4.45 75.45 4.36 75.48 4.27 75.5 4.18 75.51 4.11 75.52 4.03 75.53 3.95 75.53 3.89 75.53 3.82 75.52 3.75 75.51 3.67 75.5 3.6 75.49 3.52 75.46 3.43 75.44 3.34 75.4 3.27 75.34 3.21 75.28 3.15 75.21 3.13 75.13 3.13L74.74 3.13 74.74 4.68ZM73.56 8.06L73.56 2.27 74.84 2.27C75.13 2.27 75.39 2.29 75.61 2.35 75.83 2.4 76.02 2.49 76.19 2.61 76.35 2.72 76.48 2.88 76.57 3.08 76.65 3.28 76.69 3.52 76.69 3.79 76.69 3.91 76.69 4.02 76.68 4.11 76.67 4.21 76.65 4.32 76.62 4.44 76.59 4.56 76.55 4.67 76.49 4.76 76.44 4.85 76.36 4.95 76.26 5.04 76.16 5.13 76.04 5.2 75.9 5.26 76.25 6.37 76.56 7.3 76.81 8.06L75.6 8.06 74.93 5.39 74.74 5.39 74.74 8.06 73.56 8.06ZM77.19 8.06L77.19 2.27 78.36 2.27 78.36 4.47 79.27 2.27 80.58 2.27 79.4 4.64 80.67 8.06 79.45 8.06 78.57 5.41 78.36 5.96 78.36 8.06 77.19 8.06ZM82.02 6.41L83.21 6.18C83.21 6.29 83.21 6.4 83.21 6.49 83.22 6.58 83.23 6.68 83.25 6.78 83.27 6.89 83.29 6.98 83.32 7.05 83.35 7.11 83.4 7.17 83.45 7.22 83.51 7.26 83.58 7.29 83.66 7.29 83.89 7.29 84 7.14 84 6.84 84 6.43 83.77 6.03 83.32 5.63L82.95 5.32C82.84 5.22 82.74 5.14 82.67 5.08 82.61 5.01 82.52 4.93 82.43 4.82 82.34 4.71 82.26 4.6 82.21 4.5 82.16 4.4 82.11 4.27 82.08 4.13 82.04 3.99 82.02 3.83 82.02 3.67 82.02 3.2 82.17 2.83 82.47 2.56 82.77 2.28 83.16 2.15 83.66 2.15 84.07 2.15 84.42 2.29 84.71 2.58 85 2.88 85.14 3.23 85.14 3.64L85.14 3.68 85.14 3.78 83.92 3.95C83.92 3.92 83.92 3.89 83.93 3.84 83.93 3.79 83.93 3.74 83.93 3.71 83.93 3.63 83.93 3.56 83.92 3.49 83.91 3.42 83.89 3.35 83.86 3.28 83.84 3.21 83.8 3.15 83.75 3.11 83.7 3.07 83.63 3.05 83.56 3.05 83.43 3.05 83.34 3.1 83.27 3.2 83.21 3.3 83.17 3.42 83.17 3.55 83.17 3.67 83.19 3.79 83.23 3.89 83.27 4 83.33 4.1 83.4 4.19 83.48 4.28 83.55 4.35 83.61 4.41 83.68 4.47 83.76 4.55 83.87 4.64 83.98 4.72 84.06 4.79 84.1 4.83 84.27 4.97 84.41 5.11 84.52 5.24 84.63 5.37 84.74 5.51 84.84 5.67 84.94 5.83 85.02 6.01 85.07 6.19 85.12 6.38 85.15 6.58 85.15 6.8 85.15 7.2 85 7.54 84.71 7.8 84.42 8.05 84.07 8.18 83.65 8.18 83.38 8.18 83.14 8.13 82.94 8.04 82.73 7.94 82.56 7.8 82.43 7.63 82.3 7.46 82.2 7.28 82.14 7.07 82.07 6.86 82.03 6.64 82.02 6.41L82.02 6.41ZM85.54 6.13L85.54 4.21C85.54 2.84 86.1 2.15 87.22 2.15 87.46 2.15 87.67 2.18 87.86 2.25 88.04 2.31 88.19 2.4 88.32 2.51 88.44 2.62 88.55 2.76 88.63 2.92 88.71 3.09 88.77 3.26 88.8 3.45 88.84 3.65 88.85 3.86 88.85 4.09L88.85 4.59 87.7 4.59 87.7 4.05C87.7 3.95 87.7 3.85 87.69 3.78 87.69 3.7 87.68 3.61 87.66 3.52 87.64 3.42 87.62 3.34 87.58 3.28 87.55 3.22 87.51 3.17 87.45 3.12 87.38 3.08 87.31 3.06 87.22 3.06 86.88 3.06 86.71 3.34 86.71 3.92L86.71 6.42C86.71 6.99 86.88 7.27 87.22 7.27 87.33 7.27 87.41 7.24 87.48 7.19 87.55 7.13 87.6 7.05 87.63 6.94 87.66 6.83 87.68 6.73 87.69 6.63 87.7 6.52 87.71 6.41 87.71 6.28L87.71 5.68 88.85 5.68 88.85 6.17C88.85 6.39 88.83 6.6 88.8 6.78 88.77 6.97 88.71 7.15 88.63 7.33 88.56 7.5 88.46 7.65 88.34 7.77 88.22 7.89 88.07 7.99 87.88 8.07 87.69 8.14 87.47 8.18 87.22 8.18 86.97 8.18 86.75 8.14 86.55 8.07 86.36 8 86.2 7.9 86.07 7.78 85.95 7.66 85.84 7.51 85.76 7.33 85.68 7.15 85.62 6.97 85.59 6.77 85.56 6.58 85.54 6.36 85.54 6.13L85.54 6.13ZM89.4 8.06L89.4 2.27 90.58 2.27 90.58 4.64 91.42 4.64 91.42 2.27 92.6 2.27 92.6 8.06 91.42 8.06 91.42 5.48 90.58 5.48 90.58 8.06 89.4 8.06ZM93.22 6.16L93.22 4.21C93.22 2.84 93.78 2.15 94.91 2.15 96.05 2.15 96.61 2.84 96.61 4.21L96.61 6.13C96.61 6.36 96.6 6.57 96.56 6.77 96.53 6.97 96.47 7.15 96.39 7.33 96.3 7.51 96.2 7.66 96.07 7.78 95.94 7.9 95.78 8 95.59 8.07 95.39 8.14 95.17 8.18 94.91 8.18 94.66 8.18 94.44 8.14 94.25 8.07 94.05 8 93.89 7.91 93.76 7.79 93.64 7.67 93.53 7.52 93.45 7.35 93.36 7.18 93.31 6.99 93.27 6.8 93.23 6.6 93.22 6.39 93.22 6.16L93.22 6.16ZM95.44 6.42L95.44 3.92C95.44 3.34 95.26 3.06 94.91 3.06 94.81 3.06 94.72 3.08 94.65 3.14 94.57 3.19 94.52 3.26 94.48 3.35 94.45 3.44 94.43 3.53 94.41 3.62 94.4 3.71 94.39 3.81 94.39 3.92L94.39 6.42C94.39 6.99 94.57 7.28 94.91 7.28 95.26 7.28 95.44 6.99 95.44 6.42L95.44 6.42ZM97.16 6.16L97.16 4.21C97.16 2.84 97.72 2.15 98.85 2.15 99.99 2.15 100.55 2.84 100.55 4.21L100.55 6.13C100.55 6.36 100.54 6.57 100.5 6.77 100.47 6.97 100.41 7.15 100.33 7.33 100.24 7.51 100.14 7.66 100.01 7.78 99.88 7.9 99.72 8 99.53 8.07 99.33 8.14 99.11 8.18 98.85 8.18 98.6 8.18 98.38 8.14 98.19 8.07 97.99 8 97.83 7.91 97.7 7.79 97.58 7.67 97.47 7.52 97.39 7.35 97.3 7.18 97.25 6.99 97.21 6.8 97.17 6.6 97.16 6.39 97.16 6.16L97.16 6.16ZM99.38 6.42L99.38 3.92C99.38 3.34 99.2 3.06 98.85 3.06 98.75 3.06 98.66 3.08 98.59 3.14 98.51 3.19 98.46 3.26 98.42 3.35 98.39 3.44 98.37 3.53 98.35 3.62 98.34 3.71 98.33 3.81 98.33 3.92L98.33 6.42C98.33 6.99 98.51 7.28 98.85 7.28 99.2 7.28 99.38 6.99 99.38 6.42L99.38 6.42ZM101.17 8.06L101.17 2.26 102.02 2.26 103.29 5.3 103.29 2.26 104.27 2.26 104.27 8.06 103.45 8.06 102.18 4.85 102.18 8.06 101.17 8.06ZM104.96 8.06L104.96 2.27 106.36 2.27 106.98 6.13 107.65 2.27 109.01 2.27 109.01 8.06 108.14 8.06 108.12 3.99C108.05 4.4 107.94 5.08 107.78 6.03 107.62 6.97 107.51 7.65 107.44 8.06L106.56 8.06 105.85 3.96 105.82 8.06 104.96 8.06ZM110.85 6.1L111.46 6.1 111.16 3.95 110.85 6.1ZM109.38 8.06L110.64 2.27 111.68 2.27 112.93 8.06 111.77 8.06 111.53 6.82 110.77 6.82 110.55 8.06 109.38 8.06ZM113.3 8.06L113.3 2.27 114.48 2.27 114.48 4.47 115.39 2.27 116.7 2.27 115.52 4.64 116.79 8.06 115.57 8.06 114.69 5.41 114.48 5.96 114.48 8.06 113.3 8.06ZM117.01 8.06L117.01 2.27 119.44 2.27 119.44 3.07 118.19 3.07 118.19 4.65 119.07 4.65 119.07 5.47 118.19 5.47 118.19 7.26 119.44 7.26 119.44 8.06 117.01 8.06ZM119.85 8.06L119.85 2.26 120.7 2.26 121.97 5.3 121.97 2.26 122.95 2.26 122.95 8.06 122.14 8.06 120.86 4.85 120.86 8.06 119.85 8.06Z" id="SAMEN-HET-PARK-SCHOO" fill="#60CDA2"/>
                                <path d="M37.26 16.14L146.74 16.14" id="Line-Copy" stroke="#E4E4E4" stroke-width="5"/>
                                <path d="M37.26 24.47L136.39 24.47" id="Line-Copy-2" stroke="#E4E4E4" stroke-width="5"/>
                                <rect id="Rectangle-4-Copy" fill="#F4F4F4" x="0" y="0" width="29" height="27.49"/>
                                <g id="Page-1">
                                  <g id="Mask" fill="#F4F4F4">
                                    <rect id="path-5" x="0" y="0" width="29" height="27.49"/>
                                  </g>
                                  <g id="Clipped">
                                    <mask id="mask-6" fill="white">
                                      <use xlink:href="#path-5"/>
                                    </mask>
                                    <g id="path-5"/>
                                    <g id="Group" mask="url(#mask-6)">
                                      <g transform="translate(-3.671486, 0.000000)">
                                        <polygon id="Fill-1" fill="#B6E9F3" points="2.2 18.33 33.41 18.33 33.41 0 2.2 0"/>
                                        <polygon id="Fill-2" fill="#7AC043" points="2.2 31.16 33.41 31.16 33.41 17.96 2.2 17.96"/>
                                        <g id="Group-41" stroke-width="1" fill="none">
                                          <g id="Group-5" transform="translate(25.965568, 0.948337)">
                                            <g id="Fill-3-Clipped">
                                              <mask id="mask-8" fill="white">
                                                <use xlink:href="#path-7"/>
                                              </mask>
                                              <g id="path-7"/>
                                              <path d="M8.89 2.48C8.53 2.48 8.22 2.63 8 2.88 7.92 2.17 7.31 1.62 6.58 1.62 6.35 1.62 6.13 1.68 5.94 1.77 5.85 0.78 5.01 0.01 4 0.01 2.92 0.01 2.05 0.87 2.05 1.94 2.05 1.97 2.05 2.01 2.05 2.04 1.89 1.98 1.71 1.94 1.53 1.94 0.74 1.94 0.09 2.58 0.09 3.37 0.09 4.15 0.74 4.79 1.53 4.79L8.89 4.79C9.53 4.79 10.05 4.27 10.05 3.64 10.05 3 9.53 2.48 8.89 2.48" id="Fill-3" fill="#F9F9F9" mask="url(#mask-8)"/>
                                            </g>
                                          </g>
                                          <path d="M25.49 7.46C25.24 7.46 25.02 7.57 24.87 7.74 24.81 7.25 24.39 6.86 23.87 6.86 23.71 6.86 23.56 6.9 23.43 6.97 23.36 6.28 22.78 5.73 22.07 5.73 21.31 5.73 20.7 6.34 20.7 7.09 20.7 7.11 20.7 7.13 20.7 7.15 20.59 7.11 20.47 7.09 20.34 7.09 19.78 7.09 19.33 7.53 19.33 8.09 19.33 8.64 19.78 9.08 20.34 9.08L25.49 9.08C25.94 9.08 26.31 8.72 26.31 8.27 26.31 7.83 25.94 7.46 25.49 7.46" id="Fill-6" fill="#F9F9F9"/>
                                          <path d="M23.84 18.09C23.84 18.09 18.37 22.33 18.37 31.16L11.08 31.16C11.08 31.16 13.54 21.11 20.19 18.09L23.84 18.09Z" id="Fill-8" fill="#FBE88C"/>
                                          <path d="M18.7 4.71C18.7 6.79 17 8.48 14.89 8.48 12.79 8.48 11.08 6.79 11.08 4.71 11.08 2.62 12.79 0.93 14.89 0.93 17 0.93 18.7 2.62 18.7 4.71" id="Fill-10" fill="#F3C653"/>
                                          <path d="M8.28 5.45C7.99 5.45 7.72 5.58 7.54 5.78 7.46 5.18 6.95 4.72 6.32 4.72 6.13 4.72 5.94 4.76 5.78 4.85 5.71 4.01 5 3.35 4.13 3.35 3.22 3.35 2.48 4.08 2.48 4.99 2.48 5.02 2.48 5.04 2.48 5.07 2.35 5.02 2.2 4.99 2.04 4.99 1.37 4.99 0.82 5.53 0.82 6.2 0.82 6.87 1.37 7.41 2.04 7.41L8.28 7.41C8.83 7.41 9.28 6.97 9.28 6.43 9.28 5.88 8.83 5.45 8.28 5.45" id="Fill-12" fill="#F9F9F9"/>
                                          <g id="Fill-14-Clipped">
                                            <mask id="mask-10" fill="white">
                                              <use xlink:href="#path-9"/>
                                            </mask>
                                            <g id="path-9"/>
                                            <polygon id="Fill-14" fill="#A0737E" mask="url(#mask-10)" points="17.14 19.35 17.78 19.35 17.78 16.98 17.14 16.98"/>
                                          </g>
                                          <g id="Fill-16-Clipped">
                                            <mask id="mask-12" fill="white">
                                              <use xlink:href="#path-11"/>
                                            </mask>
                                            <g id="path-9"/>
                                            <polygon id="Fill-16" fill="#88515E" mask="url(#mask-12)" points="17.14 19.35 17.5 19.35 17.5 16.98 17.14 16.98"/>
                                          </g>
                                          <g id="Fill-17-Clipped">
                                            <mask id="mask-14" fill="white">
                                              <use xlink:href="#path-13"/>
                                            </mask>
                                            <g id="path-9"/>
                                            <path d="M19.31 15.21C19.31 16.23 18.48 17.05 17.46 17.05 16.44 17.05 15.61 16.23 15.61 15.21 15.61 14.2 16.44 13.38 17.46 13.38 18.48 13.38 19.31 14.2 19.31 15.21" id="Fill-17" fill="#A8D27C" mask="url(#mask-14)"/>
                                          </g>
                                          <g id="Fill-18-Clipped">
                                            <mask id="mask-16" fill="white">
                                              <use xlink:href="#path-15"/>
                                            </mask>
                                            <g id="path-9"/>
                                            <path d="M17.46 17.05C16.44 17.05 15.61 16.23 15.61 15.21 15.61 14.2 16.44 13.38 17.46 13.38L17.46 17.05Z" id="Fill-18" fill="#92C75B" mask="url(#mask-16)"/>
                                          </g>
                                          <g id="Fill-19-Clipped">
                                            <mask id="mask-18" fill="white">
                                              <use xlink:href="#path-17"/>
                                            </mask>
                                            <g id="path-9"/>
                                            <path d="M27.51 21.01C27.51 21.21 26.66 21.37 25.61 21.37 24.56 21.37 23.71 21.21 23.71 21.01 23.71 20.81 24.56 20.65 25.61 20.65 26.66 20.65 27.51 20.81 27.51 21.01" id="Fill-19" fill="#A8D27C" mask="url(#mask-18)"/>
                                          </g>
                                          <g id="Fill-20-Clipped">
                                            <mask id="mask-20" fill="white">
                                              <use xlink:href="#path-19"/>
                                            </mask>
                                            <g id="path-9"/>
                                            <path d="M33.94 24.04C33.94 24.24 33.09 24.4 32.04 24.4 30.99 24.4 30.14 24.24 30.14 24.04 30.14 23.84 30.99 23.68 32.04 23.68 33.09 23.68 33.94 23.84 33.94 24.04" id="Fill-20" fill="#A8D27C" mask="url(#mask-20)"/>
                                          </g>
                                          <g id="Fill-21-Clipped">
                                            <mask id="mask-22" fill="white">
                                              <use xlink:href="#path-21"/>
                                            </mask>
                                            <g id="path-9"/>
                                            <path d="M28.21 27.1C28.21 27.29 27.36 27.45 26.31 27.45 25.26 27.45 24.41 27.29 24.41 27.1 24.41 26.9 25.26 26.74 26.31 26.74 27.36 26.74 28.21 26.9 28.21 27.1" id="Fill-21" fill="#A8D27C" mask="url(#mask-22)"/>
                                          </g>
                                          <g id="Fill-22-Clipped">
                                            <mask id="mask-24" fill="white">
                                              <use xlink:href="#path-23"/>
                                            </mask>
                                            <g id="path-9"/>
                                            <path d="M6.31 27.45C6.31 27.65 5.46 27.81 4.41 27.81 3.36 27.81 2.51 27.65 2.51 27.45 2.51 27.25 3.36 27.1 4.41 27.1 5.46 27.1 6.31 27.25 6.31 27.45" id="Fill-22" fill="#A8D27C" mask="url(#mask-24)"/>
                                          </g>
                                          <g id="Fill-23-Clipped">
                                            <mask id="mask-26" fill="white">
                                              <use xlink:href="#path-25"/>
                                            </mask>
                                            <g id="path-9"/>
                                            <path d="M11.08 21.37C11.08 21.56 10.23 21.72 9.18 21.72 8.13 21.72 7.28 21.56 7.28 21.37 7.28 21.17 8.13 21.01 9.18 21.01 10.23 21.01 11.08 21.17 11.08 21.37" id="Fill-23" fill="#A8D27C" mask="url(#mask-26)"/>
                                          </g>
                                          <g id="Fill-24-Clipped">
                                            <mask id="mask-28" fill="white">
                                              <use xlink:href="#path-27"/>
                                            </mask>
                                            <g id="path-9"/>
                                            <path d="M4.93 19.13C4.93 19.33 4.08 19.49 3.03 19.49 1.98 19.49 1.13 19.33 1.13 19.13 1.13 18.93 1.98 18.77 3.03 18.77 4.08 18.77 4.93 18.93 4.93 19.13" id="Fill-24" fill="#A8D27C" mask="url(#mask-28)"/>
                                          </g>
                                          <g id="Fill-25-Clipped">
                                            <mask id="mask-30" fill="white">
                                              <use xlink:href="#path-29"/>
                                            </mask>
                                            <g id="path-9"/>
                                            <polygon id="Fill-25" fill="#A0737E" mask="url(#mask-30)" points="12.07 22.47 13.63 22.47 13.63 16.77 12.07 16.77"/>
                                          </g>
                                          <g id="Fill-26-Clipped">
                                            <mask id="mask-32" fill="white">
                                              <use xlink:href="#path-31"/>
                                            </mask>
                                            <g id="path-9"/>
                                            <polygon id="Fill-26" fill="#88515E" mask="url(#mask-32)" points="12.07 22.47 12.85 22.47 12.85 16.77 12.07 16.77"/>
                                          </g>
                                          <g id="Fill-27-Clipped">
                                            <mask id="mask-34" fill="white">
                                              <use xlink:href="#path-33"/>
                                            </mask>
                                            <g id="path-9"/>
                                            <path d="M14.61 12.93C14.57 12.93 14.54 12.93 14.5 12.93 14.25 12.28 13.71 11.77 13.04 11.56 12.82 11.48 12.58 11.45 12.33 11.45 11.27 11.45 10.37 12.16 10.1 13.13 8.96 13.4 8.11 14.42 8.11 15.64 8.11 17.06 9.27 18.22 10.71 18.22 11.68 18.22 12.53 17.7 12.98 16.92 13.4 17.32 13.97 17.57 14.61 17.57 15.9 17.57 16.95 16.53 16.95 15.25 16.95 13.97 15.9 12.93 14.61 12.93" id="Fill-27" fill="#90BD5D" mask="url(#mask-34)"/>
                                          </g>
                                          <g id="Fill-28-Clipped">
                                            <mask id="mask-36" fill="white">
                                              <use xlink:href="#path-35"/>
                                            </mask>
                                            <g id="path-9"/>
                                            <path d="M12.98 16.92C12.53 17.7 11.68 18.22 10.71 18.22 9.27 18.22 8.11 17.06 8.11 15.64 8.11 14.42 8.96 13.4 10.1 13.13 10.37 12.16 11.27 11.45 12.33 11.45 12.58 11.45 12.82 11.48 13.04 11.56L12.98 16.92Z" id="Fill-28" fill="#74AD32" mask="url(#mask-36)"/>
                                          </g>
                                          <g id="Fill-29-Clipped">
                                            <mask id="mask-38" fill="white">
                                              <use xlink:href="#path-37"/>
                                            </mask>
                                            <g id="path-9"/>
                                            <polygon id="Fill-29" fill="#A0737E" mask="url(#mask-38)" points="4.07 25.57 5.8 25.57 5.8 19.25 4.07 19.25"/>
                                          </g>
                                          <g id="Fill-30-Clipped">
                                            <mask id="mask-40" fill="white">
                                              <use xlink:href="#path-39"/>
                                            </mask>
                                            <g id="path-9"/>
                                            <polygon id="Fill-30" fill="#88515E" mask="url(#mask-40)" points="4.07 25.57 4.93 25.57 4.93 19.25 4.07 19.25"/>
                                          </g>
                                          <g id="Fill-31-Clipped">
                                            <mask id="mask-42" fill="white">
                                              <use xlink:href="#path-41"/>
                                            </mask>
                                            <g id="path-9"/>
                                            <path d="M9.86 14.54C9.86 17.24 7.65 19.43 4.93 19.43 2.21 19.43 0 17.24 0 14.54 0 11.84 2.21 9.65 4.93 9.65 7.65 9.65 9.86 11.84 9.86 14.54" id="Fill-31" fill="#A8D27C" mask="url(#mask-42)"/>
                                          </g>
                                          <g id="Fill-32-Clipped">
                                            <mask id="mask-44" fill="white">
                                              <use xlink:href="#path-43"/>
                                            </mask>
                                            <g id="path-9"/>
                                            <path d="M4.93 19.43C2.21 19.43 0 17.24 0 14.54 0 11.84 2.21 9.65 4.93 9.65L4.93 19.43Z" id="Fill-32" fill="#92C75B" mask="url(#mask-44)"/>
                                          </g>
                                          <g id="Fill-33-Clipped">
                                            <mask id="mask-46" fill="white">
                                              <use xlink:href="#path-45"/>
                                            </mask>
                                            <g id="path-9"/>
                                            <polygon id="Fill-33" fill="#A0737E" mask="url(#mask-46)" points="30.39 22.05 31.69 22.05 31.69 17.28 30.39 17.28"/>
                                          </g>
                                          <g id="Fill-34-Clipped">
                                            <mask id="mask-48" fill="white">
                                              <use xlink:href="#path-47"/>
                                            </mask>
                                            <g id="path-9"/>
                                            <polygon id="Fill-34" fill="#88515E" mask="url(#mask-48)" points="30.39 22.05 31.04 22.05 31.04 17.28 30.39 17.28"/>
                                          </g>
                                          <g id="Fill-35-Clipped">
                                            <mask id="mask-50" fill="white">
                                              <use xlink:href="#path-49"/>
                                            </mask>
                                            <g id="path-9"/>
                                            <path d="M27.45 11.23C27.45 14.84 29.06 17.76 31.04 17.76 33.02 17.76 34.63 14.84 34.63 11.23 34.63 7.63 33.02 4.71 31.04 4.71 29.06 4.71 27.45 7.63 27.45 11.23" id="Fill-35" fill="#A8D27C" mask="url(#mask-50)"/>
                                          </g>
                                          <g id="Fill-36-Clipped">
                                            <mask id="mask-52" fill="white">
                                              <use xlink:href="#path-51"/>
                                            </mask>
                                            <g id="path-9"/>
                                            <path d="M31.04 17.76C29.06 17.76 27.45 14.84 27.45 11.23 27.45 7.63 29.06 4.71 31.04 4.71L31.04 17.76Z" id="Fill-36" fill="#92C75B" mask="url(#mask-52)"/>
                                          </g>
                                          <g id="Fill-37-Clipped">
                                            <mask id="mask-54" fill="white">
                                              <use xlink:href="#path-53"/>
                                            </mask>
                                            <g id="path-9"/>
                                            <polygon id="Fill-37" fill="#A0737E" mask="url(#mask-54)" points="25.06 23.12 26.62 23.12 26.62 17.42 25.06 17.42"/>
                                          </g>
                                          <g id="Fill-38-Clipped">
                                            <mask id="mask-56" fill="white">
                                              <use xlink:href="#path-55"/>
                                            </mask>
                                            <g id="path-9"/>
                                            <polygon id="Fill-38" fill="#88515E" mask="url(#mask-56)" points="25.06 23.12 25.84 23.12 25.84 17.42 25.06 17.42"/>
                                          </g>
                                          <g id="Fill-39-Clipped">
                                            <mask id="mask-58" fill="white">
                                              <use xlink:href="#path-57"/>
                                            </mask>
                                            <g id="path-9"/>
                                            <path d="M27.6 13.58C27.56 13.58 27.53 13.58 27.49 13.58 27.24 12.93 26.71 12.42 26.03 12.21 25.81 12.14 25.57 12.1 25.32 12.1 24.26 12.1 23.36 12.81 23.09 13.78 21.95 14.05 21.1 15.07 21.1 16.29 21.1 17.72 22.27 18.87 23.71 18.87 24.68 18.87 25.52 18.35 25.97 17.57 26.39 17.97 26.97 18.22 27.6 18.22 28.89 18.22 29.94 17.18 29.94 15.9 29.94 14.62 28.89 13.58 27.6 13.58" id="Fill-39" fill="#90BD5D" mask="url(#mask-58)"/>
                                          </g>
                                          <g id="Fill-40-Clipped">
                                            <mask id="mask-60" fill="white">
                                              <use xlink:href="#path-59"/>
                                            </mask>
                                            <g id="path-9"/>
                                            <path d="M25.97 17.57C25.52 18.35 24.68 18.87 23.71 18.87 22.27 18.87 21.1 17.72 21.1 16.29 21.1 15.07 21.95 14.05 23.09 13.78 23.36 12.81 24.26 12.1 25.32 12.1 25.57 12.1 25.81 12.14 26.03 12.21L25.97 17.57Z" id="Fill-40" fill="#74AD32" mask="url(#mask-60)"/>
                                          </g>
                                        </g>
                                      </g>
                                    </g>
                                  </g>
                                </g>
                              </g>
                              <g id="BRON-Copy" transform="translate(0.000000, 45.822991)">
                                <g id="Page-1">
                                  <g id="Mask" fill="#F4F4F4">
                                    <rect id="path-11" x="0" y="0" width="29" height="27.49"/>
                                  </g>
                                  <g id="Clipped">
                                    <mask id="mask-62" fill="white">
                                      <use xlink:href="#path-61"/>
                                    </mask>
                                    <g id="path-11"/>
                                    <g id="Group" mask="url(#mask-62)">
                                      <g transform="translate(-0.367149, -0.366584)">
                                        <polygon id="Fill-1" fill="#ECA159" points="0 17.6 30.11 17.6 30.11 0 0 0"/>
                                        <g id="Group-24" stroke-width="1" fill="none">
                                          <path d="M18.61 17.75L18.57 17.73 18.05 17.52 19.26 14.61C19.26 14.61 19.37 14.36 19.64 14.27 19.64 14.27 19.85 14.21 19.97 13.94L20.29 13.2 20.26 13.18 20.32 13.04 20.36 13.06 20.41 12.94 20.58 13.01 18.61 17.75 18.61 17.75Z" id="Fill-2" fill="#1F5643"/>
                                          <path d="M20.57 13.01L20.59 13.02 20.77 13.09 20.72 13.21 20.76 13.23 20.71 13.37 20.67 13.36 20.38 14.11C20.26 14.38 20.37 14.57 20.37 14.57 20.5 14.84 20.39 15.09 20.39 15.09L19.19 17.99 18.6 17.75" id="Fill-4" fill="#19402F"/>
                                          <g id="Fill-6-Clipped">
                                            <mask id="mask-64" fill="white">
                                              <use xlink:href="#path-63"/>
                                            </mask>
                                            <g id="path-13"/>
                                            <polygon id="Fill-6" fill="#B57536" mask="url(#mask-64)" points="0 30.31 30.11 30.31 30.11 17.6 0 17.6"/>
                                          </g>
                                          <g id="Fill-8-Clipped">
                                            <mask id="mask-66" fill="white">
                                              <use xlink:href="#path-65"/>
                                            </mask>
                                            <g id="path-13"/>
                                            <path d="M23.54 18.77C23.33 17.75 22.52 17 21.55 17 21.16 17 20.8 17.12 20.49 17.33 20.21 16.44 19.45 15.81 18.56 15.81 17.65 15.81 16.88 16.47 16.61 17.39 16.3 17.18 15.93 17.05 15.54 17.05 14.69 17.05 13.96 17.63 13.65 18.46 13.33 18.23 12.96 18.1 12.55 18.1 11.57 18.1 10.76 18.86 10.55 19.88L10.06 19.99 10.06 23.42 25.77 23.42C25.72 20.02 24.2 19.04 23.54 18.77" id="Fill-8" fill="#8B3B1F" mask="url(#mask-66)"/>
                                          </g>
                                          <g id="Fill-9-Clipped">
                                            <mask id="mask-68" fill="white">
                                              <use xlink:href="#path-67"/>
                                            </mask>
                                            <g id="path-13"/>
                                            <path d="M18.53 23.42L25.77 23.42C25.72 20.02 24.2 19.04 23.54 18.77 23.33 17.75 22.52 17 21.55 17 21.16 17 20.8 17.12 20.49 17.33 20.21 16.44 19.45 15.81 18.56 15.81" id="Fill-9" fill="#682E13" mask="url(#mask-68)"/>
                                          </g>
                                          <g id="Fill-10-Clipped">
                                            <mask id="mask-70" fill="white">
                                              <use xlink:href="#path-69"/>
                                            </mask>
                                            <g id="path-13"/>
                                            <polygon id="Fill-10" fill="#B57536" mask="url(#mask-70)" points="12.25 5.96 30.11 5.96 30.11 5.52 12.25 5.52"/>
                                          </g>
                                          <g id="Fill-11-Clipped">
                                            <mask id="mask-72" fill="white">
                                              <use xlink:href="#path-71"/>
                                            </mask>
                                            <g id="path-13"/>
                                            <polygon id="Fill-11" fill="#B57536" mask="url(#mask-72)" points="15.43 9.76 30.11 9.76 30.11 9.32 15.43 9.32"/>
                                          </g>
                                          <g id="Fill-12-Clipped">
                                            <mask id="mask-74" fill="white">
                                              <use xlink:href="#path-73"/>
                                            </mask>
                                            <g id="path-13"/>
                                            <polygon id="Fill-12" fill="#B57536" mask="url(#mask-74)" points="20.08 9.51 20.53 9.51 20.53 5.92 20.08 5.92"/>
                                          </g>
                                          <g id="Fill-13-Clipped">
                                            <mask id="mask-76" fill="white">
                                              <use xlink:href="#path-75"/>
                                            </mask>
                                            <g id="path-13"/>
                                            <polygon id="Fill-13" fill="#B57536" mask="url(#mask-76)" points="26.92 9.51 27.36 9.51 27.36 5.92 26.92 5.92"/>
                                          </g>
                                          <g id="Fill-14-Clipped">
                                            <mask id="mask-78" fill="white">
                                              <use xlink:href="#path-77"/>
                                            </mask>
                                            <g id="path-13"/>
                                            <polygon id="Fill-14" fill="#B57536" mask="url(#mask-78)" points="23.41 5.44 23.85 5.44 23.85 1.84 23.41 1.84"/>
                                          </g>
                                          <g id="Fill-15-Clipped">
                                            <mask id="mask-80" fill="white">
                                              <use xlink:href="#path-79"/>
                                            </mask>
                                            <g id="path-13"/>
                                            <polygon id="Fill-15" fill="#B57536" mask="url(#mask-80)" points="19.46 1.84 19.9 1.84 19.9 0.13 19.46 0.13"/>
                                          </g>
                                          <g id="Fill-16-Clipped">
                                            <mask id="mask-82" fill="white">
                                              <use xlink:href="#path-81"/>
                                            </mask>
                                            <g id="path-13"/>
                                            <polygon id="Fill-16" fill="#B57536" mask="url(#mask-82)" points="27.25 1.84 27.69 1.84 27.69 0.13 27.25 0.13"/>
                                          </g>
                                          <g id="Fill-17-Clipped">
                                            <mask id="mask-84" fill="white">
                                              <use xlink:href="#path-83"/>
                                            </mask>
                                            <g id="path-13"/>
                                            <polygon id="Fill-17" fill="#B57536" mask="url(#mask-84)" points="16.37 2.09 30.11 2.09 30.11 1.65 16.37 1.65"/>
                                          </g>
                                          <g id="Fill-18-Clipped">
                                            <mask id="mask-86" fill="white">
                                              <use xlink:href="#path-85"/>
                                            </mask>
                                            <g id="path-13"/>
                                            <path d="M20.02 22.55L19.98 22.58 19.54 22.93 17.56 20.43C17.56 20.43 17.38 20.21 17.44 19.92 17.44 19.92 17.49 19.7 17.3 19.46L16.81 18.81 16.78 18.83 16.68 18.71 16.72 18.68 16.64 18.58 16.79 18.46" id="Fill-18" fill="#1F5643" mask="url(#mask-86)"/>
                                          </g>
                                          <g id="Fill-19-Clipped">
                                            <mask id="mask-88" fill="white">
                                              <use xlink:href="#path-87"/>
                                            </mask>
                                            <g id="path-13"/>
                                            <path d="M16.78 18.47L16.8 18.45 16.95 18.33 17.03 18.43 17.07 18.4 17.17 18.52 17.14 18.55 17.66 19.18C17.85 19.42 18.06 19.42 18.06 19.42 18.36 19.43 18.54 19.65 18.54 19.65L20.51 22.15 20.01 22.56" id="Fill-19" fill="#19402F" mask="url(#mask-88)"/>
                                          </g>
                                          <g id="Fill-20-Clipped">
                                            <mask id="mask-90" fill="white">
                                              <use xlink:href="#path-89"/>
                                            </mask>
                                            <g id="path-13"/>
                                            <path d="M24.6 21.18C24.46 20.57 23.92 20.11 23.27 20.11 23.01 20.11 22.76 20.19 22.55 20.31 22.36 19.78 21.86 19.39 21.26 19.39 20.65 19.39 20.13 19.79 19.95 20.35 19.74 20.22 19.5 20.14 19.23 20.14 18.66 20.14 18.17 20.5 17.96 20.99 17.75 20.86 17.49 20.77 17.22 20.77 16.57 20.77 16.02 21.24 15.88 21.85L15.55 21.92 15.55 23.99 26.1 23.99C26.07 21.93 25.05 21.34 24.6 21.18" id="Fill-20" fill="#9F4324" mask="url(#mask-90)"/>
                                          </g>
                                          <g id="Fill-21-Clipped">
                                            <mask id="mask-92" fill="white">
                                              <use xlink:href="#path-91"/>
                                            </mask>
                                            <g id="path-13"/>
                                            <path d="M21.24 23.99L26.1 23.99C26.07 21.93 25.05 21.34 24.6 21.18 24.46 20.57 23.92 20.11 23.27 20.11 23.01 20.11 22.76 20.19 22.55 20.31 22.36 19.78 21.86 19.39 21.26 19.39" id="Fill-21" fill="#8E3C1D" mask="url(#mask-92)"/>
                                          </g>
                                          <g id="Fill-22-Clipped">
                                            <mask id="mask-94" fill="white">
                                              <use xlink:href="#path-93"/>
                                            </mask>
                                            <g id="path-13"/>
                                            <path d="M10.32 11.1C9.64 11.08 9.93 11.7 9.46 11.8 9.08 11.89 8.55 11.23 8.17 11.74 7.35 12.84 10.24 13.06 8.81 14.19 8.29 14.61 7.55 14.78 6.94 15.08 6.03 15.53 5.34 16.84 4.99 17.76 4.39 19.31 5.1 20.63 5.16 22.12 5.19 22.79 5.14 23.18 4.75 23.66 4.34 24.16 4.09 24.68 4.42 25.32 4.42 25.32 4.56 25.68 5.89 25.68L10.36 25.68" id="Fill-22" fill="#2C4B5F" mask="url(#mask-94)"/>
                                          </g>
                                          <g id="Fill-23-Clipped">
                                            <mask id="mask-96" fill="white">
                                              <use xlink:href="#path-95"/>
                                            </mask>
                                            <g id="path-13"/>
                                            <path d="M10.32 11.09C11 11.07 10.71 11.69 11.18 11.79 11.56 11.88 12.09 11.22 12.47 11.73 13.29 12.83 10.4 13.05 11.83 14.18 12.35 14.6 13.09 14.77 13.7 15.07 14.61 15.52 15.3 16.83 15.65 17.75 16.25 19.3 15.54 20.61 15.48 22.11 15.45 22.78 15.5 23.16 15.89 23.65 16.3 24.15 16.55 24.67 16.22 25.3 16.22 25.3 16.08 25.67 14.75 25.67L10.28 25.67" id="Fill-23" fill="#112936" mask="url(#mask-96)"/>
                                          </g>
                                        </g>
                                      </g>
                                    </g>
                                  </g>
                                </g>
                                <path d="M35.96 6.97L35.96 1.17 37.13 1.17 37.13 6.97 35.96 6.97ZM37.82 6.97L37.82 1.17 39 1.17 39 6.16 40.15 6.16 40.15 6.97 37.82 6.97ZM40.53 6.97L40.53 1.17 41.7 1.17 41.7 6.16 42.86 6.16 42.86 6.97 40.53 6.97ZM43.23 6.97L43.23 1.17 45.66 1.17 45.66 1.97 44.41 1.97 44.41 3.55 45.29 3.55 45.29 4.37 44.41 4.37 44.41 6.16 45.66 6.16 45.66 6.97 43.23 6.97ZM46 5.15L46 3.11C46 1.74 46.57 1.05 47.71 1.05 47.96 1.05 48.17 1.08 48.36 1.15 48.55 1.21 48.7 1.3 48.83 1.41 48.96 1.52 49.06 1.66 49.14 1.82 49.23 1.99 49.28 2.16 49.32 2.35 49.36 2.55 49.38 2.76 49.38 2.99L49.38 3.33 48.25 3.33 48.25 2.92C48.25 2.82 48.25 2.73 48.25 2.66 48.24 2.58 48.23 2.49 48.2 2.4 48.18 2.31 48.15 2.23 48.12 2.17 48.08 2.11 48.03 2.06 47.96 2.02 47.89 1.98 47.81 1.96 47.71 1.96 47.36 1.96 47.18 2.24 47.18 2.82L47.18 5.32C47.18 5.89 47.36 6.17 47.71 6.17 48.07 6.17 48.25 5.88 48.25 5.29L48.25 4.82 47.59 4.82 47.59 3.98 49.42 3.98 49.42 6.97 48.62 6.97 48.47 6.56C48.37 6.71 48.23 6.84 48.05 6.93 47.86 7.03 47.68 7.08 47.48 7.08 47.27 7.08 47.08 7.04 46.91 6.96 46.74 6.89 46.6 6.79 46.49 6.66 46.38 6.53 46.29 6.39 46.21 6.22 46.14 6.05 46.08 5.87 46.05 5.7 46.02 5.52 46 5.34 46 5.15L46 5.15ZM51.23 5L51.83 5 51.53 2.85 51.23 5ZM49.75 6.97L51.01 1.17 52.05 1.17 53.3 6.97 52.14 6.97 51.9 5.72 51.14 5.72 50.92 6.97 49.75 6.97ZM54.83 5L55.43 5 55.14 2.85 54.83 5ZM53.36 6.97L54.61 1.17 55.65 1.17 56.9 6.97 55.75 6.97 55.51 5.72 54.75 5.72 54.52 6.97 53.36 6.97ZM57.28 6.97L57.28 1.17 58.45 1.17 58.45 6.16 59.61 6.16 59.61 6.97 57.28 6.97ZM62.46 5L63.06 5 62.77 2.85 62.46 5ZM60.99 6.97L62.24 1.17 63.28 1.17 64.54 6.97 63.38 6.97 63.14 5.72 62.38 5.72 62.15 6.97 60.99 6.97ZM64.91 6.97L64.91 1.17 67.33 1.17 67.33 1.97 66.08 1.97 66.08 3.55 66.97 3.55 66.97 4.37 66.08 4.37 66.08 6.97 64.91 6.97ZM68.43 6.97L67.37 1.17 68.48 1.17 68.99 4.68 69.56 1.17 70.66 1.17 69.51 6.97 68.43 6.97ZM72.2 5L72.8 5 72.5 2.85 72.2 5ZM70.73 6.97L71.98 1.17 73.02 1.17 74.27 6.97 73.11 6.97 72.87 5.72 72.12 5.72 71.89 6.97 70.73 6.97ZM74.65 6.97L74.65 1.17 75.82 1.17 75.82 6.16 76.98 6.16 76.98 6.97 74.65 6.97ZM78.6 5.15L78.6 3.11C78.6 1.74 79.17 1.05 80.31 1.05 80.55 1.05 80.77 1.08 80.96 1.15 81.14 1.21 81.3 1.3 81.43 1.41 81.56 1.52 81.66 1.66 81.74 1.82 81.82 1.99 81.88 2.16 81.92 2.35 81.96 2.55 81.97 2.76 81.97 2.99L81.97 3.33 80.85 3.33 80.85 2.92C80.85 2.82 80.85 2.73 80.84 2.66 80.84 2.58 80.82 2.49 80.8 2.4 80.78 2.31 80.75 2.23 80.72 2.17 80.68 2.11 80.63 2.06 80.56 2.02 80.49 1.98 80.41 1.96 80.31 1.96 79.95 1.96 79.77 2.24 79.77 2.82L79.77 5.32C79.77 5.89 79.95 6.17 80.31 6.17 80.67 6.17 80.85 5.88 80.85 5.29L80.85 4.82 80.18 4.82 80.18 3.98 82.02 3.98 82.02 6.97 81.22 6.97 81.07 6.56C80.97 6.71 80.83 6.84 80.64 6.93 80.46 7.03 80.27 7.08 80.08 7.08 79.87 7.08 79.68 7.04 79.51 6.96 79.34 6.89 79.2 6.79 79.09 6.66 78.98 6.53 78.88 6.39 78.81 6.22 78.73 6.05 78.68 5.87 78.65 5.7 78.61 5.52 78.6 5.34 78.6 5.15L78.6 5.15ZM82.67 6.97L82.67 1.17 85.09 1.17 85.09 1.97 83.84 1.97 83.84 3.55 84.73 3.55 84.73 4.37 83.84 4.37 83.84 6.16 85.09 6.16 85.09 6.97 82.67 6.97ZM85.31 5.31L86.5 5.08C86.5 5.2 86.5 5.3 86.51 5.39 86.51 5.48 86.52 5.58 86.54 5.68 86.56 5.79 86.58 5.88 86.62 5.95 86.65 6.01 86.69 6.07 86.75 6.12 86.81 6.16 86.87 6.19 86.95 6.19 87.18 6.19 87.3 6.04 87.3 5.74 87.3 5.33 87.07 4.93 86.61 4.53L86.25 4.22C86.13 4.12 86.04 4.04 85.97 3.98 85.9 3.91 85.82 3.83 85.73 3.72 85.63 3.61 85.56 3.5 85.51 3.4 85.45 3.3 85.41 3.18 85.37 3.03 85.33 2.89 85.31 2.73 85.31 2.57 85.31 2.1 85.46 1.73 85.76 1.46 86.06 1.18 86.46 1.05 86.95 1.05 87.36 1.05 87.71 1.19 88 1.48 88.29 1.78 88.43 2.13 88.43 2.54L88.43 2.58 88.43 2.68 87.22 2.85C87.22 2.82 87.22 2.79 87.22 2.74 87.23 2.69 87.23 2.64 87.23 2.61 87.23 2.53 87.22 2.46 87.21 2.39 87.2 2.32 87.18 2.25 87.16 2.18 87.13 2.11 87.1 2.05 87.04 2.01 86.99 1.97 86.93 1.95 86.86 1.95 86.73 1.95 86.63 2 86.57 2.1 86.5 2.2 86.47 2.32 86.47 2.45 86.47 2.57 86.49 2.69 86.53 2.79 86.56 2.9 86.62 3 86.7 3.09 86.77 3.18 86.84 3.25 86.91 3.31 86.97 3.37 87.06 3.45 87.17 3.54 87.27 3.62 87.35 3.69 87.4 3.73 87.56 3.87 87.7 4.01 87.81 4.14 87.93 4.27 88.04 4.41 88.14 4.57 88.24 4.73 88.31 4.91 88.37 5.09 88.42 5.28 88.44 5.48 88.44 5.7 88.44 6.1 88.3 6.44 88.01 6.7 87.71 6.95 87.36 7.08 86.95 7.08 86.68 7.08 86.44 7.03 86.23 6.94 86.02 6.84 85.85 6.7 85.73 6.53 85.6 6.36 85.5 6.18 85.43 5.97 85.36 5.76 85.32 5.54 85.31 5.31L85.31 5.31ZM90.09 3.66C90.16 3.66 90.21 3.65 90.26 3.64 90.31 3.64 90.35 3.63 90.39 3.62 90.42 3.61 90.46 3.59 90.48 3.57 90.51 3.54 90.53 3.52 90.55 3.5 90.57 3.48 90.59 3.45 90.6 3.4 90.61 3.36 90.62 3.32 90.63 3.3 90.64 3.27 90.64 3.22 90.64 3.16 90.65 3.1 90.65 3.05 90.65 3.01L90.65 2.83 90.65 2.79C90.65 2.7 90.65 2.64 90.65 2.6 90.65 2.55 90.64 2.5 90.64 2.43 90.63 2.37 90.62 2.32 90.6 2.28 90.59 2.25 90.57 2.21 90.54 2.17 90.52 2.12 90.48 2.09 90.44 2.07 90.41 2.05 90.36 2.04 90.3 2.02 90.24 2.01 90.17 2 90.09 2L90.09 3.66ZM88.91 6.97L88.91 1.17 90.31 1.17C90.82 1.17 91.19 1.31 91.42 1.59 91.65 1.87 91.76 2.28 91.76 2.81 91.76 3.07 91.74 3.3 91.69 3.49 91.63 3.69 91.56 3.84 91.47 3.97 91.38 4.1 91.27 4.2 91.13 4.27 90.98 4.35 90.83 4.4 90.66 4.43 90.5 4.47 90.31 4.48 90.09 4.48L90.09 6.97 88.91 6.97ZM92.13 5.06L92.13 3.11C92.13 1.74 92.7 1.05 93.83 1.05 94.96 1.05 95.53 1.74 95.53 3.11L95.53 5.03C95.53 5.26 95.51 5.47 95.48 5.67 95.44 5.87 95.39 6.05 95.3 6.23 95.22 6.41 95.11 6.56 94.99 6.68 94.86 6.8 94.7 6.9 94.5 6.97 94.31 7.04 94.08 7.08 93.83 7.08 93.58 7.08 93.36 7.04 93.16 6.97 92.97 6.9 92.8 6.81 92.68 6.69 92.55 6.57 92.45 6.42 92.36 6.25 92.28 6.08 92.22 5.89 92.19 5.7 92.15 5.5 92.13 5.29 92.13 5.06L92.13 5.06ZM94.36 5.32L94.36 2.82C94.36 2.24 94.18 1.96 93.83 1.96 93.72 1.96 93.64 1.98 93.56 2.04 93.49 2.09 93.44 2.16 93.4 2.25 93.37 2.34 93.34 2.43 93.33 2.52 93.31 2.61 93.31 2.71 93.31 2.82L93.31 5.32C93.31 5.89 93.48 6.18 93.83 6.18 94.18 6.18 94.36 5.89 94.36 5.32L94.36 5.32ZM96.7 6.97L96.7 2.04 95.85 2.04 95.85 1.17 98.71 1.17 98.71 2.04 97.87 2.04 97.87 6.97 96.7 6.97Z" id="ILLEGAAL-AFVAL-GESPO" fill="#60CDA2"/>
                                <path d="M37.26 15.1L146.74 15.1" id="Line-Copy" stroke="#E4E4E4" stroke-width="5"/>
                                <path d="M37.08 23.43L136.21 23.43" id="Line-Copy-2" stroke="#E4E4E4" stroke-width="5"/>
                              </g>
                              <path d="M0.38 6.6L0.38 0.15 1.73 0.15C2.16 0.15 2.52 0.19 2.79 0.27 3.07 0.35 3.29 0.48 3.45 0.65 3.61 0.83 3.72 1.04 3.78 1.29 3.84 1.54 3.87 1.86 3.87 2.24L3.87 4.35C3.87 4.58 3.87 4.78 3.85 4.95 3.84 5.12 3.81 5.29 3.77 5.45 3.73 5.62 3.68 5.76 3.61 5.87 3.54 5.98 3.45 6.09 3.35 6.19 3.24 6.28 3.11 6.36 2.96 6.42 2.8 6.48 2.63 6.52 2.42 6.55 2.22 6.58 1.98 6.6 1.72 6.6L0.38 6.6ZM1.74 5.69C1.86 5.69 1.96 5.68 2.03 5.68 2.1 5.68 2.18 5.67 2.25 5.65 2.32 5.64 2.37 5.62 2.41 5.59 2.44 5.57 2.47 5.53 2.5 5.49 2.53 5.44 2.55 5.38 2.55 5.32 2.56 5.25 2.57 5.17 2.57 5.07L2.57 1.6C2.57 1.39 2.5 1.25 2.38 1.18 2.25 1.11 2.04 1.07 1.74 1.07L1.74 5.69ZM4.56 6.6L4.56 0.15 7.25 0.15 7.25 1.05 5.86 1.05 5.86 2.8 6.84 2.8 6.84 3.72 5.86 3.72 5.86 5.7 7.25 5.7 7.25 6.6 4.56 6.6ZM10.49 5.68L10.61 5.68C10.78 5.68 10.92 5.66 11.03 5.62 11.13 5.58 11.21 5.51 11.27 5.42 11.32 5.32 11.36 5.21 11.37 5.09 11.39 4.97 11.4 4.81 11.4 4.61 11.4 4.27 11.34 4.01 11.22 3.82 11.11 3.64 10.9 3.54 10.62 3.54L10.49 3.54 10.49 5.68ZM10.48 2.69L10.71 2.69C10.83 2.69 10.93 2.67 11.01 2.62 11.09 2.58 11.15 2.51 11.19 2.42 11.23 2.34 11.26 2.24 11.28 2.14 11.3 2.04 11.3 1.92 11.3 1.79 11.3 1.68 11.3 1.59 11.28 1.5 11.27 1.42 11.25 1.36 11.23 1.3 11.21 1.25 11.18 1.2 11.13 1.17 11.09 1.13 11.05 1.1 11.01 1.08 10.98 1.07 10.93 1.05 10.85 1.04 10.78 1.04 10.73 1.03 10.68 1.03 10.64 1.03 10.57 1.03 10.48 1.03L10.48 2.69ZM9.19 6.6L9.19 0.15 10.52 0.15C10.76 0.15 10.97 0.17 11.15 0.19 11.33 0.22 11.51 0.27 11.69 0.34 11.86 0.41 12.01 0.51 12.12 0.63 12.23 0.75 12.32 0.91 12.39 1.11 12.46 1.31 12.5 1.55 12.5 1.82 12.5 2.16 12.42 2.42 12.26 2.61 12.1 2.81 11.85 2.96 11.52 3.07 12.28 3.26 12.67 3.8 12.67 4.7 12.67 5.34 12.51 5.82 12.2 6.13 11.89 6.44 11.42 6.6 10.78 6.6L9.19 6.6ZM13.24 4.2L13.24 0.15 14.55 0.15 14.55 4.16C14.55 4.39 14.55 4.56 14.55 4.66 14.56 4.77 14.56 4.89 14.57 5.04 14.58 5.19 14.6 5.3 14.62 5.36 14.65 5.42 14.68 5.48 14.72 5.55 14.76 5.62 14.82 5.66 14.88 5.69 14.95 5.71 15.03 5.72 15.13 5.72 15.22 5.72 15.3 5.71 15.37 5.69 15.44 5.66 15.49 5.62 15.53 5.55 15.58 5.48 15.61 5.42 15.63 5.36 15.66 5.3 15.67 5.2 15.68 5.05 15.69 4.9 15.7 4.78 15.7 4.68 15.7 4.58 15.7 4.41 15.7 4.19L15.7 4.16 15.7 0.15 17.01 0.15 17.01 4.2C17.01 4.41 17 4.59 16.99 4.76 16.98 4.93 16.96 5.1 16.92 5.28 16.89 5.46 16.84 5.62 16.79 5.76 16.73 5.89 16.65 6.02 16.56 6.15 16.46 6.27 16.35 6.38 16.22 6.46 16.09 6.54 15.93 6.6 15.75 6.65 15.56 6.7 15.36 6.72 15.13 6.72 14.9 6.72 14.69 6.7 14.51 6.65 14.32 6.6 14.17 6.54 14.04 6.46 13.91 6.38 13.8 6.27 13.7 6.15 13.6 6.02 13.53 5.89 13.47 5.76 13.41 5.62 13.37 5.46 13.33 5.28 13.3 5.1 13.27 4.93 13.26 4.76 13.25 4.59 13.24 4.41 13.24 4.2L13.24 4.2ZM17.72 4.2L17.72 0.15 19.02 0.15 19.02 4.16C19.02 4.39 19.03 4.56 19.03 4.66 19.03 4.77 19.04 4.89 19.05 5.04 19.06 5.19 19.07 5.3 19.1 5.36 19.12 5.42 19.15 5.48 19.19 5.55 19.24 5.62 19.29 5.66 19.36 5.69 19.42 5.71 19.51 5.72 19.6 5.72 19.7 5.72 19.78 5.71 19.85 5.69 19.91 5.66 19.97 5.62 20.01 5.55 20.05 5.48 20.08 5.42 20.11 5.36 20.13 5.3 20.15 5.2 20.16 5.05 20.17 4.9 20.17 4.78 20.18 4.68 20.18 4.58 20.18 4.41 20.18 4.19L20.18 4.16 20.18 0.15 21.48 0.15 21.48 4.2C21.48 4.41 21.48 4.59 21.47 4.76 21.45 4.93 21.43 5.1 21.4 5.28 21.36 5.46 21.32 5.62 21.26 5.76 21.2 5.89 21.13 6.02 21.03 6.15 20.94 6.27 20.82 6.38 20.69 6.46 20.56 6.54 20.41 6.6 20.22 6.65 20.04 6.7 19.83 6.72 19.6 6.72 19.37 6.72 19.17 6.7 18.98 6.65 18.8 6.6 18.64 6.54 18.51 6.46 18.38 6.38 18.27 6.27 18.17 6.15 18.08 6.02 18 5.89 17.95 5.76 17.89 5.62 17.84 5.46 17.81 5.28 17.77 5.1 17.75 4.93 17.74 4.76 17.73 4.59 17.72 4.41 17.72 4.2L17.72 4.2ZM23.53 2.84L23.9 2.84C24 2.84 24.09 2.8 24.16 2.74 24.23 2.67 24.28 2.58 24.31 2.48 24.35 2.38 24.37 2.28 24.38 2.2 24.4 2.11 24.4 2.03 24.4 1.96 24.4 1.88 24.4 1.8 24.39 1.72 24.38 1.64 24.36 1.55 24.33 1.45 24.3 1.35 24.26 1.27 24.19 1.21 24.13 1.14 24.05 1.11 23.96 1.11L23.53 1.11 23.53 2.84ZM22.22 6.6L22.22 0.15 23.64 0.15C23.97 0.15 24.25 0.19 24.49 0.25 24.74 0.31 24.95 0.4 25.14 0.53 25.32 0.66 25.46 0.84 25.56 1.06 25.65 1.28 25.7 1.54 25.7 1.85 25.7 1.99 25.7 2.1 25.69 2.21 25.68 2.31 25.65 2.43 25.62 2.57 25.59 2.7 25.54 2.82 25.48 2.93 25.42 3.03 25.33 3.13 25.22 3.23 25.11 3.33 24.97 3.42 24.82 3.48 25.21 4.71 25.55 5.75 25.83 6.6L24.48 6.6 23.74 3.63 23.53 3.63 23.53 6.6 22.22 6.6ZM26.86 6.6L26.86 1.13 25.91 1.13 25.91 0.15 29.09 0.15 29.09 1.13 28.16 1.13 28.16 6.6 26.86 6.6ZM31.84 6.6L30.66 0.15 31.89 0.15 32.46 4.06 33.09 0.15 34.31 0.15 33.04 6.6 31.84 6.6ZM34.74 6.6L34.74 0.15 37.43 0.15 37.43 1.05 36.04 1.05 36.04 2.8 37.03 2.8 37.03 3.72 36.04 3.72 36.04 5.7 37.43 5.7 37.43 6.6 34.74 6.6ZM39.2 2.84L39.58 2.84C39.68 2.84 39.76 2.8 39.83 2.74 39.91 2.67 39.96 2.58 39.99 2.48 40.02 2.38 40.05 2.28 40.06 2.2 40.07 2.11 40.08 2.03 40.08 1.96 40.08 1.88 40.07 1.8 40.06 1.72 40.05 1.64 40.03 1.55 40 1.45 39.98 1.35 39.93 1.27 39.87 1.21 39.8 1.14 39.73 1.11 39.64 1.11L39.2 1.11 39.2 2.84ZM37.9 6.6L37.9 0.15 39.32 0.15C39.64 0.15 39.92 0.19 40.17 0.25 40.41 0.31 40.63 0.4 40.81 0.53 41 0.66 41.14 0.84 41.23 1.06 41.33 1.28 41.38 1.54 41.38 1.85 41.38 1.99 41.37 2.1 41.36 2.21 41.35 2.31 41.33 2.43 41.3 2.57 41.26 2.7 41.21 2.82 41.15 2.93 41.09 3.03 41.01 3.13 40.9 3.23 40.78 3.33 40.65 3.42 40.5 3.48 40.88 4.71 41.22 5.75 41.51 6.6L40.16 6.6 39.42 3.63 39.2 3.63 39.2 6.6 37.9 6.6ZM43.23 5.68L43.35 5.68C43.52 5.68 43.66 5.66 43.76 5.62 43.87 5.58 43.95 5.51 44 5.42 44.06 5.32 44.09 5.21 44.11 5.09 44.13 4.97 44.14 4.81 44.14 4.61 44.14 4.27 44.08 4.01 43.96 3.82 43.84 3.64 43.64 3.54 43.36 3.54L43.23 3.54 43.23 5.68ZM43.22 2.69L43.44 2.69C43.56 2.69 43.66 2.67 43.74 2.62 43.82 2.58 43.89 2.51 43.93 2.42 43.97 2.34 44 2.24 44.01 2.14 44.03 2.04 44.04 1.92 44.04 1.79 44.04 1.68 44.03 1.59 44.02 1.5 44 1.42 43.98 1.36 43.96 1.3 43.95 1.25 43.91 1.2 43.87 1.17 43.82 1.13 43.78 1.1 43.75 1.08 43.71 1.07 43.66 1.05 43.59 1.04 43.52 1.04 43.46 1.03 43.42 1.03 43.38 1.03 43.31 1.03 43.22 1.03L43.22 2.69ZM41.92 6.6L41.92 0.15 43.25 0.15C43.49 0.15 43.7 0.17 43.88 0.19 44.07 0.22 44.25 0.27 44.42 0.34 44.6 0.41 44.74 0.51 44.86 0.63 44.97 0.75 45.06 0.91 45.13 1.11 45.2 1.31 45.23 1.55 45.23 1.82 45.23 2.16 45.15 2.42 44.99 2.61 44.83 2.81 44.59 2.96 44.25 3.07 45.02 3.26 45.4 3.8 45.4 4.7 45.4 5.34 45.25 5.82 44.94 6.13 44.63 6.44 44.15 6.6 43.51 6.6L41.92 6.6ZM46.01 6.6L46.01 0.15 48.7 0.15 48.7 1.05 47.31 1.05 47.31 2.8 48.3 2.8 48.3 3.72 47.31 3.72 47.31 5.7 48.7 5.7 48.7 6.6 46.01 6.6ZM49.78 6.6L49.78 1.13 48.83 1.13 48.83 0.15 52.01 0.15 52.01 1.13 51.09 1.13 51.09 6.6 49.78 6.6ZM52.45 6.6L52.45 0.15 55.14 0.15 55.14 1.05 53.75 1.05 53.75 2.8 54.74 2.8 54.74 3.72 53.75 3.72 53.75 5.7 55.14 5.7 55.14 6.6 52.45 6.6ZM56.91 2.84L57.28 2.84C57.38 2.84 57.47 2.8 57.54 2.74 57.61 2.67 57.67 2.58 57.7 2.48 57.73 2.38 57.75 2.28 57.77 2.2 57.78 2.11 57.79 2.03 57.79 1.96 57.79 1.88 57.78 1.8 57.77 1.72 57.76 1.64 57.74 1.55 57.71 1.45 57.69 1.35 57.64 1.27 57.58 1.21 57.51 1.14 57.44 1.11 57.35 1.11L56.91 1.11 56.91 2.84ZM55.61 6.6L55.61 0.15 57.03 0.15C57.35 0.15 57.63 0.19 57.88 0.25 58.12 0.31 58.34 0.4 58.52 0.53 58.71 0.66 58.85 0.84 58.94 1.06 59.04 1.28 59.08 1.54 59.08 1.85 59.08 1.99 59.08 2.1 59.07 2.21 59.06 2.31 59.04 2.43 59 2.57 58.97 2.7 58.92 2.82 58.86 2.93 58.8 3.03 58.72 3.13 58.6 3.23 58.49 3.33 58.36 3.42 58.21 3.48 58.59 4.71 58.93 5.75 59.22 6.6L57.87 6.6 57.13 3.63 56.91 3.63 56.91 6.6 55.61 6.6ZM59.63 6.6L59.63 0.15 62.32 0.15 62.32 1.05 60.93 1.05 60.93 2.8 61.92 2.8 61.92 3.72 60.93 3.72 60.93 5.7 62.32 5.7 62.32 6.6 59.63 6.6ZM62.79 6.6L62.79 0.15 63.73 0.15 65.14 3.52 65.14 0.15 66.23 0.15 66.23 6.6 65.32 6.6 63.91 3.02 63.91 6.6 62.79 6.6Z" id="DE-BUURT-VERBETEREN" fill="#333333"/>
                            </g>
                            <g id="BUURT-VERBETEREN-Copy" transform="translate(9.642979, 120.923018)">
                              <g id="BRON" transform="translate(0.000000, 13.259752)">
                                <path d="M36.87 5.7L38.06 5.47C38.06 5.59 38.06 5.69 38.07 5.78 38.07 5.87 38.08 5.97 38.1 6.08 38.12 6.19 38.14 6.27 38.17 6.34 38.21 6.41 38.25 6.47 38.31 6.51 38.36 6.56 38.43 6.58 38.51 6.58 38.74 6.58 38.86 6.43 38.86 6.14 38.86 5.73 38.63 5.32 38.17 4.92L37.81 4.61C37.69 4.51 37.6 4.43 37.53 4.37 37.46 4.3 37.38 4.21 37.28 4.1 37.19 3.99 37.12 3.89 37.06 3.78 37.01 3.68 36.97 3.56 36.93 3.41 36.89 3.27 36.87 3.12 36.87 2.95 36.87 2.48 37.02 2.11 37.32 1.83 37.62 1.56 38.02 1.42 38.51 1.42 38.92 1.42 39.27 1.57 39.56 1.86 39.85 2.15 39.99 2.51 39.99 2.92L39.99 2.96 39.99 3.06 38.78 3.23C38.78 3.21 38.78 3.17 38.78 3.12 38.78 3.07 38.79 3.03 38.79 2.99 38.79 2.92 38.78 2.84 38.77 2.77 38.76 2.7 38.74 2.63 38.72 2.56 38.69 2.48 38.65 2.43 38.6 2.39 38.55 2.34 38.49 2.32 38.42 2.32 38.29 2.32 38.19 2.37 38.12 2.48 38.06 2.58 38.03 2.7 38.03 2.83 38.03 2.96 38.05 3.07 38.08 3.17 38.12 3.28 38.18 3.38 38.26 3.47 38.33 3.56 38.4 3.64 38.47 3.7 38.53 3.76 38.62 3.83 38.73 3.92 38.83 4.01 38.91 4.07 38.95 4.11 39.12 4.26 39.26 4.4 39.37 4.53 39.49 4.65 39.6 4.8 39.7 4.96 39.8 5.12 39.87 5.3 39.92 5.49 39.97 5.67 40 5.88 40 6.09 40 6.5 39.85 6.84 39.56 7.1 39.27 7.36 38.92 7.49 38.51 7.49 38.24 7.49 38 7.44 37.79 7.34 37.58 7.24 37.41 7.1 37.28 6.93 37.16 6.76 37.06 6.57 36.99 6.37 36.92 6.16 36.88 5.94 36.87 5.7L36.87 5.7ZM40.47 7.37L40.47 1.54 41.31 1.54 42.59 4.59 42.59 1.54 43.56 1.54 43.56 7.37 42.75 7.37 41.48 4.13 41.48 7.37 40.47 7.37ZM44.18 5.45L44.18 3.49C44.18 2.11 44.75 1.43 45.88 1.43 47.01 1.43 47.58 2.11 47.58 3.49L47.58 5.42C47.58 5.65 47.56 5.87 47.53 6.07 47.49 6.26 47.43 6.45 47.35 6.63 47.27 6.81 47.16 6.96 47.03 7.08 46.91 7.2 46.74 7.3 46.55 7.37 46.35 7.44 46.13 7.48 45.88 7.48 45.63 7.48 45.41 7.44 45.21 7.37 45.01 7.3 44.85 7.21 44.73 7.09 44.6 6.97 44.49 6.82 44.41 6.65 44.33 6.48 44.27 6.29 44.23 6.09 44.2 5.9 44.18 5.68 44.18 5.45L44.18 5.45ZM46.4 5.72L46.4 3.2C46.4 2.62 46.23 2.34 45.88 2.34 45.77 2.34 45.68 2.36 45.61 2.42 45.54 2.47 45.48 2.54 45.45 2.63 45.41 2.72 45.39 2.81 45.38 2.9 45.36 2.99 45.35 3.09 45.35 3.2L45.35 5.72C45.35 6.29 45.53 6.57 45.88 6.57 46.23 6.57 46.4 6.29 46.4 5.72L46.4 5.72ZM48.2 7.37L48.2 1.54 50.62 1.54 50.62 2.35 49.37 2.35 49.37 3.94 50.25 3.94 50.25 4.76 49.37 4.76 49.37 6.56 50.62 6.56 50.62 7.37 48.2 7.37ZM51.04 7.37L51.04 1.54 52.21 1.54 52.21 7.37 51.04 7.37ZM53.43 7.37L52.63 1.54 53.63 1.54 53.99 5.4 54.49 1.54 55.35 1.54 55.84 5.38 56.21 1.54 57.22 1.54 56.4 7.37 55.4 7.37 54.91 3.55 54.43 7.37 53.43 7.37ZM57.63 7.37L57.63 1.54 60.05 1.54 60.05 2.35 58.8 2.35 58.8 3.94 59.69 3.94 59.69 4.76 58.8 4.76 58.8 6.56 60.05 6.56 60.05 7.37 57.63 7.37ZM61.65 3.96L61.98 3.96C62.07 3.96 62.15 3.93 62.22 3.87 62.28 3.81 62.33 3.74 62.36 3.64 62.39 3.55 62.41 3.47 62.42 3.39 62.43 3.31 62.44 3.24 62.44 3.17 62.44 3.1 62.43 3.03 62.42 2.95 62.41 2.88 62.39 2.8 62.37 2.71 62.34 2.62 62.3 2.55 62.25 2.49 62.19 2.43 62.12 2.4 62.04 2.4L61.65 2.4 61.65 3.96ZM60.47 7.37L60.47 1.54 61.75 1.54C62.04 1.54 62.3 1.57 62.52 1.62 62.74 1.68 62.93 1.76 63.1 1.88 63.26 2 63.39 2.16 63.48 2.36 63.56 2.56 63.6 2.8 63.6 3.07 63.6 3.19 63.6 3.3 63.59 3.4 63.58 3.49 63.56 3.6 63.53 3.72 63.5 3.84 63.46 3.95 63.4 4.05 63.35 4.14 63.27 4.23 63.17 4.32 63.07 4.41 62.95 4.49 62.81 4.55 63.16 5.66 63.47 6.6 63.72 7.37L62.51 7.37 61.84 4.68 61.65 4.68 61.65 7.37 60.47 7.37ZM64.09 7.37L64.09 1.54 65.27 1.54 65.27 3.75 66.18 1.54 67.49 1.54 66.31 3.93 67.58 7.37 66.36 7.37 65.48 4.7 65.27 5.25 65.27 7.37 64.09 7.37ZM67.72 7.37L67.72 6.63 69.25 2.35 67.89 2.35 67.89 1.54 70.4 1.54 70.4 2.28 68.86 6.56 70.4 6.56 70.4 7.37 67.72 7.37ZM72.18 5.4L72.78 5.4 72.49 3.23 72.18 5.4ZM70.71 7.37L71.96 1.54 73 1.54 74.26 7.37 73.1 7.37 72.86 6.12 72.1 6.12 71.87 7.37 70.71 7.37ZM75.79 5.4L76.39 5.4 76.09 3.23 75.79 5.4ZM74.31 7.37L75.57 1.54 76.61 1.54 77.86 7.37 76.7 7.37 76.46 6.12 75.7 6.12 75.48 7.37 74.31 7.37ZM78.24 7.37L78.24 1.54 79.64 1.54 80.26 5.42 80.93 1.54 82.29 1.54 82.29 7.37 81.42 7.37 81.4 3.27C81.33 3.69 81.22 4.37 81.06 5.32 80.9 6.26 80.79 6.95 80.72 7.37L79.84 7.37 79.13 3.24 79.1 7.37 78.24 7.37ZM82.98 7.37L82.98 1.54 84.15 1.54 84.15 3.93 85 3.93 85 1.54 86.18 1.54 86.18 7.37 85 7.37 85 4.77 84.15 4.77 84.15 7.37 82.98 7.37ZM86.87 7.37L86.87 1.54 89.29 1.54 89.29 2.35 88.04 2.35 88.04 3.94 88.93 3.94 88.93 4.76 88.04 4.76 88.04 6.56 89.29 6.56 89.29 7.37 86.87 7.37ZM89.71 7.37L89.71 1.54 90.93 1.54C91.31 1.54 91.63 1.57 91.88 1.64 92.13 1.71 92.33 1.83 92.47 1.99 92.62 2.15 92.72 2.34 92.77 2.57 92.83 2.79 92.85 3.08 92.85 3.43L92.85 5.34C92.85 5.54 92.85 5.72 92.83 5.88 92.82 6.03 92.8 6.18 92.76 6.33 92.73 6.48 92.68 6.61 92.62 6.71 92.56 6.81 92.48 6.91 92.38 6.99 92.28 7.08 92.17 7.15 92.03 7.2 91.89 7.26 91.73 7.3 91.55 7.32 91.36 7.35 91.15 7.37 90.91 7.37L89.71 7.37ZM90.93 6.54C91.05 6.54 91.13 6.54 91.2 6.54 91.26 6.53 91.33 6.52 91.39 6.51 91.46 6.5 91.5 6.48 91.53 6.46 91.56 6.44 91.59 6.4 91.62 6.36 91.64 6.32 91.66 6.27 91.67 6.21 91.67 6.15 91.68 6.07 91.68 5.98L91.68 2.85C91.68 2.66 91.62 2.53 91.51 2.47 91.39 2.4 91.2 2.37 90.93 2.37L90.93 6.54ZM93.47 7.37L93.47 1.54 95.89 1.54 95.89 2.35 94.64 2.35 94.64 3.94 95.53 3.94 95.53 4.76 94.64 4.76 94.64 6.56 95.89 6.56 95.89 7.37 93.47 7.37ZM96.31 7.37L96.31 1.54 97.16 1.54 98.43 4.59 98.43 1.54 99.41 1.54 99.41 7.37 98.6 7.37 97.32 4.13 97.32 7.37 96.31 7.37ZM101.42 7.37L101.42 1.54 102.6 1.54 102.6 3.93 103.44 3.93 103.44 1.54 104.62 1.54 104.62 7.37 103.44 7.37 103.44 4.77 102.6 4.77 102.6 7.37 101.42 7.37ZM105.24 5.45L105.24 3.49C105.24 2.11 105.8 1.43 106.94 1.43 108.07 1.43 108.64 2.11 108.64 3.49L108.64 5.42C108.64 5.65 108.62 5.87 108.59 6.07 108.55 6.26 108.49 6.45 108.41 6.63 108.33 6.81 108.22 6.96 108.09 7.08 107.97 7.2 107.8 7.3 107.61 7.37 107.41 7.44 107.19 7.48 106.94 7.48 106.69 7.48 106.46 7.44 106.27 7.37 106.07 7.3 105.91 7.21 105.78 7.09 105.66 6.97 105.55 6.82 105.47 6.65 105.39 6.48 105.33 6.29 105.29 6.09 105.26 5.9 105.24 5.68 105.24 5.45L105.24 5.45ZM107.46 5.72L107.46 3.2C107.46 2.62 107.29 2.34 106.94 2.34 106.83 2.34 106.74 2.36 106.67 2.42 106.59 2.47 106.54 2.54 106.51 2.63 106.47 2.72 106.45 2.81 106.43 2.9 106.42 2.99 106.41 3.09 106.41 3.2L106.41 5.72C106.41 6.29 106.59 6.57 106.94 6.57 107.29 6.57 107.46 6.29 107.46 5.72L107.46 5.72ZM109.18 5.45L109.18 3.49C109.18 2.11 109.75 1.43 110.88 1.43 112.01 1.43 112.58 2.11 112.58 3.49L112.58 5.42C112.58 5.65 112.56 5.87 112.53 6.07 112.49 6.26 112.43 6.45 112.35 6.63 112.27 6.81 112.16 6.96 112.03 7.08 111.91 7.2 111.74 7.3 111.55 7.37 111.35 7.44 111.13 7.48 110.88 7.48 110.63 7.48 110.4 7.44 110.21 7.37 110.01 7.3 109.85 7.21 109.72 7.09 109.6 6.97 109.49 6.82 109.41 6.65 109.33 6.48 109.27 6.29 109.23 6.09 109.2 5.9 109.18 5.68 109.18 5.45L109.18 5.45ZM111.4 5.72L111.4 3.2C111.4 2.62 111.23 2.34 110.88 2.34 110.77 2.34 110.68 2.36 110.61 2.42 110.54 2.47 110.48 2.54 110.45 2.63 110.41 2.72 110.39 2.81 110.38 2.9 110.36 2.99 110.35 3.09 110.35 3.2L110.35 5.72C110.35 6.29 110.53 6.57 110.88 6.57 111.23 6.57 111.4 6.29 111.4 5.72L111.4 5.72ZM113.19 7.37L113.19 1.54 115.62 1.54 115.62 2.35 114.37 2.35 114.37 3.94 115.25 3.94 115.25 4.76 114.37 4.76 114.37 7.37 113.19 7.37ZM115.96 7.37L115.96 1.54 117.17 1.54C117.56 1.54 117.88 1.57 118.13 1.64 118.38 1.71 118.58 1.83 118.72 1.99 118.86 2.15 118.96 2.34 119.02 2.57 119.07 2.79 119.1 3.08 119.1 3.43L119.1 5.34C119.1 5.54 119.09 5.72 119.08 5.88 119.07 6.03 119.04 6.18 119.01 6.33 118.97 6.48 118.92 6.61 118.86 6.71 118.8 6.81 118.72 6.91 118.62 6.99 118.53 7.08 118.41 7.15 118.27 7.2 118.14 7.26 117.98 7.3 117.79 7.32 117.61 7.35 117.4 7.37 117.16 7.37L115.96 7.37ZM117.18 6.54C117.29 6.54 117.38 6.54 117.44 6.54 117.51 6.53 117.57 6.52 117.64 6.51 117.7 6.5 117.75 6.48 117.78 6.46 117.81 6.44 117.84 6.4 117.86 6.36 117.89 6.32 117.9 6.27 117.91 6.21 117.92 6.15 117.92 6.07 117.92 5.98L117.92 2.85C117.92 2.66 117.87 2.53 117.75 2.47 117.64 2.4 117.45 2.37 117.18 2.37L117.18 6.54ZM119.51 5.7L120.71 5.47C120.71 5.59 120.71 5.69 120.71 5.78 120.72 5.87 120.73 5.97 120.75 6.08 120.76 6.19 120.79 6.27 120.82 6.34 120.85 6.41 120.9 6.47 120.95 6.51 121.01 6.56 121.08 6.58 121.15 6.58 121.39 6.58 121.5 6.43 121.5 6.14 121.5 5.73 121.27 5.32 120.82 4.92L120.45 4.61C120.33 4.51 120.24 4.43 120.17 4.37 120.1 4.3 120.02 4.21 119.93 4.1 119.84 3.99 119.76 3.89 119.71 3.78 119.66 3.68 119.61 3.56 119.57 3.41 119.54 3.27 119.52 3.12 119.52 2.95 119.52 2.48 119.67 2.11 119.97 1.83 120.27 1.56 120.66 1.42 121.16 1.42 121.57 1.42 121.92 1.57 122.21 1.86 122.49 2.15 122.64 2.51 122.64 2.92L122.64 2.96 122.64 3.06 121.42 3.23C121.42 3.21 121.42 3.17 121.43 3.12 121.43 3.07 121.43 3.03 121.43 2.99 121.43 2.92 121.43 2.84 121.42 2.77 121.4 2.7 121.39 2.63 121.36 2.56 121.34 2.48 121.3 2.43 121.25 2.39 121.2 2.34 121.13 2.32 121.06 2.32 120.93 2.32 120.83 2.37 120.77 2.48 120.71 2.58 120.67 2.7 120.67 2.83 120.67 2.96 120.69 3.07 120.73 3.17 120.77 3.28 120.82 3.38 120.9 3.47 120.98 3.56 121.05 3.64 121.11 3.7 121.18 3.76 121.26 3.83 121.37 3.92 121.48 4.01 121.55 4.07 121.6 4.11 121.77 4.26 121.91 4.4 122.02 4.53 122.13 4.65 122.24 4.8 122.34 4.96 122.44 5.12 122.52 5.3 122.57 5.49 122.62 5.67 122.65 5.88 122.65 6.09 122.65 6.5 122.5 6.84 122.21 7.1 121.92 7.36 121.57 7.49 121.15 7.49 120.88 7.49 120.64 7.44 120.43 7.34 120.23 7.24 120.06 7.1 119.93 6.93 119.8 6.76 119.7 6.57 119.63 6.37 119.56 6.16 119.53 5.94 119.51 5.7L119.51 5.7ZM123.67 7.37L123.67 2.42 122.81 2.42 122.81 1.54 125.68 1.54 125.68 2.42 124.84 2.42 124.84 7.37 123.67 7.37ZM127.24 3.96L127.58 3.96C127.67 3.96 127.74 3.93 127.81 3.87 127.87 3.81 127.92 3.74 127.95 3.64 127.98 3.55 128 3.47 128.01 3.39 128.02 3.31 128.03 3.24 128.03 3.17 128.03 3.1 128.02 3.03 128.01 2.95 128 2.88 127.99 2.8 127.96 2.71 127.94 2.62 127.9 2.55 127.84 2.49 127.78 2.43 127.71 2.4 127.63 2.4L127.24 2.4 127.24 3.96ZM126.07 7.37L126.07 1.54 127.34 1.54C127.64 1.54 127.89 1.57 128.11 1.62 128.33 1.68 128.53 1.76 128.69 1.88 128.86 2 128.98 2.16 129.07 2.36 129.15 2.56 129.2 2.8 129.2 3.07 129.2 3.19 129.19 3.3 129.18 3.4 129.18 3.49 129.16 3.6 129.12 3.72 129.09 3.84 129.05 3.95 129 4.05 128.94 4.14 128.87 4.23 128.76 4.32 128.66 4.41 128.54 4.49 128.41 4.55 128.76 5.66 129.06 6.6 129.32 7.37L128.1 7.37 127.44 4.68 127.24 4.68 127.24 7.37 126.07 7.37ZM130.84 5.4L131.44 5.4 131.15 3.23 130.84 5.4ZM129.37 7.37L130.63 1.54 131.67 1.54 132.92 7.37 131.76 7.37 131.52 6.12 130.76 6.12 130.54 7.37 129.37 7.37ZM134.45 5.4L135.05 5.4 134.76 3.23 134.45 5.4ZM132.98 7.37L134.23 1.54 135.27 1.54 136.52 7.37 135.37 7.37 135.13 6.12 134.37 6.12 134.14 7.37 132.98 7.37ZM137.45 7.37L137.45 2.42 136.6 2.42 136.6 1.54 139.46 1.54 139.46 2.42 138.63 2.42 138.63 7.37 137.45 7.37Z" id="SNOEIWERKZAAMHEDEN-H" fill="#60CDA2"/>
                                <g id="Page-1">
                                  <g id="Mask" fill="#F4F4F4">
                                    <rect id="path-15" x="0" y="0" width="29.01" height="27.62"/>
                                  </g>
                                  <g id="Clipped">
                                    <mask id="mask-98" fill="white">
                                      <use xlink:href="#path-97"/>
                                    </mask>
                                    <g id="path-15"/>
                                    <g id="Group" mask="url(#mask-98)">
                                      <g transform="translate(0.000000, -0.368326)">
                                        <polygon id="Fill-1" fill="#79BA79" points="0 29.1 29.01 29.1 29.01 0 0 0"/>
                                        <polygon id="Fill-2" fill="#96DD96" points="0 29.1 29.01 29.1 29.01 15.47 0 15.47"/>
                                        <g id="Group-38" stroke-width="1" fill="none" transform="translate(0.000000, 2.209959)">
                                          <path d="M29.27 13.23C29.27 13.23 29.24 11.92 28.11 11.73 28.11 11.73 27.64 10.79 26.54 11.26 26.54 11.26 25.45 10.01 24.47 11.32 24.47 11.32 23.34 10.69 23.12 11.98 23.12 11.98 21.77 11.67 21.52 13.23L29.27 13.23Z" id="Fill-4" fill="#96DD96"/>
                                          <path d="M0.06 11.74C0.6 11.44 1.12 11.53 1.12 11.53 1.72 9.59 3.26 10.59 3.26 10.59 3.41 9.59 4.42 9.56 4.42 9.56 5.74 9.56 5.8 10.47 5.8 10.47 7.78 9.65 8.01 11.43 8.01 11.43 9.91 11.15 9.83 13.12 9.83 13.12L9.88 13.49 0 13.49 0.06 11.74Z" id="Fill-6" fill="#96DD96"/>
                                          <path d="M8.13 11.74C8.67 11.44 9.2 11.53 9.2 11.53 9.79 9.59 11.33 10.59 11.33 10.59 11.49 9.59 12.49 9.56 12.49 9.56 13.81 9.56 13.87 10.47 13.87 10.47 15.85 9.65 16.08 11.43 16.08 11.43 17.98 11.15 17.9 13.12 17.9 13.12L17.95 13.49 8.07 13.49 8.13 11.74Z" id="Fill-8" fill="#96DD96"/>
                                          <path d="M14.29 11.77C14.83 11.38 15.35 11.49 15.35 11.49 15.95 8.97 17.49 10.27 17.49 10.27 17.64 8.97 18.65 8.93 18.65 8.93 19.97 8.93 20.03 10.11 20.03 10.11 22.01 9.06 22.24 11.36 22.24 11.36 24.14 10.99 24.05 13.56 24.05 13.56L24.11 14.04 14.23 14.04 14.29 11.77Z" id="Fill-10" fill="#96DD96"/>
                                          <path d="M17.92 13.64C17.92 13.64 17.52 12.58 16.69 11.63L15.4 11.88 15.89 12.3C15.89 12.3 16.62 13.31 17.04 14.05L17.82 14.24 17.92 13.64Z" id="Fill-12" fill="#B6E9F3"/>
                                          <polygon id="Fill-14" fill="#875728" points="18.62 14.34 17.14 14.98 16.67 13.91 18.15 13.28"/>
                                          <polygon id="Fill-16" fill="#B57536" points="22.24 21.79 20.09 22.71 16.67 14.87 18.82 13.94"/>
                                          <polygon id="Fill-18" fill="#A66B31" points="22.24 21.79 21.12 22.27 17.7 14.42 18.82 13.94"/>
                                          <polygon id="Fill-20" fill="#66421E" points="18.48 14.09 17.68 14.43 17.32 13.62 18.13 13.28"/>
                                          <path d="M15.07 7.14L11.5 0.04C11.5 0.04 9.36 2.93 13.56 10.22L15.07 7.14Z" id="Fill-22" fill="#B6E9F3"/>
                                          <path d="M13.63 10.08L18.58 0.04C18.58 0.04 20.84 3.04 16.51 10.22L15.4 11.11 13.81 10.56 13.63 10.08Z" id="Fill-24" fill="#95BFC7"/>
                                          <path d="M14.38 12.43C14.38 12.43 13.67 12.98 13.16 14.04L12.17 13.54C12.17 13.54 13.12 11.72 13.81 11.53L14.38 12.43Z" id="Fill-26" fill="#95BFC7"/>
                                          <path d="M16.86 10.9C16.86 11.84 16.09 12.61 15.14 12.61 14.19 12.61 13.42 11.84 13.42 10.9 13.42 9.95 14.19 9.19 15.14 9.19 16.09 9.19 16.86 9.95 16.86 10.9" id="Fill-28" fill="#789AA1"/>
                                          <polygon id="Fill-30" fill="#875728" points="12.95 14.74 11.55 13.95 12.12 12.94 13.53 13.73"/>
                                          <polygon id="Fill-32" fill="#B57536" points="9.15 22.1 7.11 20.95 11.36 13.51 13.4 14.66"/>
                                          <polygon id="Fill-34" fill="#A66B31" points="9.15 22.1 8.09 21.5 12.34 14.06 13.39 14.66"/>
                                          <polygon id="Fill-36" fill="#66421E" points="13.08 14.48 12.31 14.05 12.75 13.28 13.51 13.71"/>
                                        </g>
                                      </g>
                                    </g>
                                  </g>
                                </g>
                                <path d="M38.37 16.14L147.88 16.14" id="Line-Copy" stroke="#E4E4E4" stroke-width="5"/>
                                <path d="M38.37 24.47L137.53 24.47" id="Line-Copy-2" stroke="#E4E4E4" stroke-width="5"/>
                              </g>
                              <path d="M2.07 6.63L1.18 0.16 2.29 0.16 2.69 4.44 3.24 0.16 4.2 0.16 4.74 4.42 5.16 0.16 6.28 0.16 5.37 6.63 4.26 6.63 3.72 2.39 3.19 6.63 2.07 6.63ZM6.74 6.63L6.74 0.16 9.43 0.16 9.43 1.05 8.04 1.05 8.04 2.82 9.02 2.82 9.02 3.74 8.04 3.74 8.04 5.73 9.43 5.73 9.43 6.63 6.74 6.63ZM11.2 2.85L11.57 2.85C11.67 2.85 11.76 2.82 11.83 2.75 11.9 2.68 11.96 2.6 11.99 2.49 12.02 2.39 12.04 2.3 12.06 2.21 12.07 2.12 12.08 2.04 12.08 1.96 12.08 1.89 12.07 1.81 12.06 1.73 12.05 1.65 12.03 1.56 12 1.46 11.97 1.36 11.93 1.27 11.87 1.21 11.8 1.15 11.73 1.12 11.63 1.12L11.2 1.12 11.2 2.85ZM9.9 6.63L9.9 0.16 11.32 0.16C11.64 0.16 11.92 0.19 12.17 0.25 12.41 0.31 12.63 0.4 12.81 0.53 13 0.67 13.14 0.84 13.23 1.06 13.33 1.29 13.37 1.55 13.37 1.86 13.37 1.99 13.37 2.11 13.36 2.22 13.35 2.33 13.33 2.45 13.29 2.58 13.26 2.72 13.21 2.84 13.15 2.94 13.09 3.05 13.01 3.15 12.89 3.25 12.78 3.35 12.65 3.43 12.5 3.5 12.88 4.73 13.22 5.78 13.51 6.63L12.15 6.63 11.42 3.65 11.2 3.65 11.2 6.63 9.9 6.63ZM13.92 6.63L13.92 0.16 15.22 0.16 15.22 2.61 16.24 0.16 17.7 0.16 16.38 2.81 17.79 6.63 16.44 6.63 15.46 3.67 15.22 4.28 15.22 6.63 13.92 6.63ZM17.94 6.63L17.94 5.81 19.65 1.06 18.14 1.06 18.14 0.16 20.92 0.16 20.92 0.98 19.21 5.73 20.92 5.73 20.92 6.63 17.94 6.63ZM22.9 4.44L23.57 4.44 23.24 2.04 22.9 4.44ZM21.27 6.63L22.66 0.16 23.82 0.16 25.21 6.63 23.92 6.63 23.66 5.25 22.81 5.25 22.56 6.63 21.27 6.63ZM26.91 4.44L27.58 4.44 27.25 2.04 26.91 4.44ZM25.27 6.63L26.67 0.16 27.82 0.16 29.21 6.63 27.93 6.63 27.66 5.25 26.82 5.25 26.57 6.63 25.27 6.63ZM29.63 6.63L29.63 0.16 31.19 0.16 31.88 4.47 32.63 0.16 34.14 0.16 34.14 6.63 33.17 6.63 33.15 2.08C33.07 2.54 32.95 3.3 32.77 4.35 32.59 5.4 32.46 6.16 32.39 6.63L31.42 6.63 30.62 2.05 30.6 6.63 29.63 6.63ZM34.9 6.63L34.9 0.16 36.21 0.16 36.21 2.81 37.14 2.81 37.14 0.16 38.46 0.16 38.46 6.63 37.14 6.63 37.14 3.74 36.21 3.74 36.21 6.63 34.9 6.63ZM39.22 6.63L39.22 0.16 41.92 0.16 41.92 1.05 40.53 1.05 40.53 2.82 41.51 2.82 41.51 3.74 40.53 3.74 40.53 5.73 41.92 5.73 41.92 6.63 39.22 6.63ZM42.38 6.63L42.38 0.16 43.73 0.16C44.16 0.16 44.52 0.19 44.8 0.27 45.07 0.35 45.29 0.48 45.45 0.66 45.61 0.84 45.72 1.05 45.78 1.3 45.84 1.55 45.87 1.87 45.87 2.25L45.87 4.37C45.87 4.6 45.87 4.81 45.85 4.98 45.84 5.15 45.81 5.32 45.77 5.48 45.73 5.64 45.68 5.78 45.61 5.9 45.54 6.01 45.45 6.12 45.35 6.22 45.24 6.31 45.11 6.39 44.96 6.45 44.81 6.51 44.63 6.55 44.42 6.58 44.22 6.61 43.98 6.63 43.72 6.63L42.38 6.63ZM43.74 5.71C43.86 5.71 43.96 5.71 44.03 5.71 44.11 5.7 44.18 5.69 44.25 5.68 44.32 5.67 44.37 5.65 44.41 5.62 44.44 5.6 44.47 5.56 44.5 5.51 44.53 5.46 44.55 5.41 44.56 5.34 44.56 5.27 44.57 5.19 44.57 5.09L44.57 1.61C44.57 1.4 44.5 1.25 44.38 1.18 44.25 1.11 44.04 1.08 43.74 1.08L43.74 5.71ZM46.56 6.63L46.56 0.16 49.25 0.16 49.25 1.05 47.86 1.05 47.86 2.82 48.85 2.82 48.85 3.74 47.86 3.74 47.86 5.73 49.25 5.73 49.25 6.63 46.56 6.63ZM49.72 6.63L49.72 0.15 50.66 0.15 52.07 3.54 52.07 0.15 53.16 0.15 53.16 6.63 52.25 6.63 50.84 3.04 50.84 6.63 49.72 6.63Z" id="WERKZAAMHEDEN" fill="#333333"/>
                            </g>
                          </g>
                        </g>
                      </g>
                    </g>
                  </g>
                </g>
              </g>
            </g>
          </g>
        </g>
      </g>
    </g>
  </g>
</svg>
