
<svg width="16px" height="13px" viewBox="2 0 16 13" version="1.1" xmlns="http://www.w3.org/2000/svg" xmlns:xlink="http://www.w3.org/1999/xlink">
    <!-- Generator: Sketch 41.2 (35397) - http://www.bohemiancoding.com/sketch -->
    <desc>Created with Sketch.</desc>
    <defs></defs>
    <g id="Group-2" stroke="none" stroke-width="1" fill="none" fill-rule="evenodd" transform="translate(10.000000, 6.500000) scale(-1, 1) translate(-10.000000, -6.500000) translate(2.000000, 0.000000)">
        <path d="M1,6.6679531 C1,6.29897581 1.20283971,6 1.45335805,6 L15.4682048,6 C15.7185177,6 15.9213574,6.29897581 15.9213574,6.6679531 C15.9213574,7.03693038 15.7185177,7.33590619 15.4682048,7.33590619 L1.45335805,7.33590619 C1.20283971,7.33590619 1,7.03693038 1,6.6679531" id="Fill-4" fill="#60CDA2"></path>
        <path d="M0,6.4996709 L0,6.4996709 C0,6.30123541 0.0895714286,6.11379569 0.243086905,5.99309781 L7.65885476,0.132602114 C7.93105238,-0.0827106258 8.32168333,-0.0302888779 8.53093214,0.249719971 C8.74067857,0.529473103 8.68942381,0.930946978 8.41697738,1.146004 L1.64264048,6.4996709 L8.41722619,11.8538492 C8.689175,12.069162 8.74042976,12.4706358 8.53093214,12.750389 C8.32168333,13.0303978 7.93105238,13.0825639 7.65860595,12.8675068 L0.242838095,7.0064997 C0.0895714286,6.88554611 0,6.69810639 0,6.4996709" id="Fill-1" fill="#60CDA2"></path>
    </g>
</svg>