<?xml version="1.0" encoding="utf-8"?>
<!-- Generator: Adobe Illustrator 16.0.4, SVG Export Plug-In . SVG Version: 6.00 Build 0)  -->
<!DOCTYPE svg PUBLIC "-//W3C//DTD SVG 1.1//EN" "http://www.w3.org/Graphics/SVG/1.1/DTD/svg11.dtd">
<svg version="1.1" id="Layer_1" xmlns="http://www.w3.org/2000/svg" xmlns:xlink="http://www.w3.org/1999/xlink" x="0px" y="0px"
	 width="1039.447px" height="260.057px" viewBox="0 0 1039.447 260.057" enable-background="new 0 0 1039.447 260.057"
	 xml:space="preserve">
<g>
	<g>
		<defs>
			<path id="SVGID_1_" d="M136.072,69.8C110.231,44.856,68.33,44.856,42.48,69.795c-25.84,24.936-25.846,65.367,0,90.303
				c12.883,12.424,46.642,42.055,46.642,42.055s33.992-29.551,46.95-42.051C161.918,135.162,161.924,94.73,136.072,69.8
				 M89.28,131.059c-8.862,0-16.705-7.754-16.705-16.514c0-8.159,7.843-15.723,16.705-15.723c8.87,0,16.704,7.362,16.704,15.723
				C105.984,123.504,98.562,131.059,89.28,131.059"/>
		</defs>
		<clipPath id="SVGID_2_">
			<use xlink:href="#SVGID_1_"  overflow="visible"/>
		</clipPath>
		<rect x="3.394" y="31.385" clip-path="url(#SVGID_2_)" fill="#60CDA2" width="171.771" height="190.473"/>
	</g>
</g>
<path fill="#60CDA2" d="M666.345,175.936c0.28-4.62,0.56-11.479,0.56-17.5V76.536h12.182v42.56h0.278
	c4.34-7.561,12.181-12.46,23.102-12.46c16.8,0,28.698,14,28.56,34.58c0,24.22-15.26,36.26-30.38,36.26
	c-9.8,0-17.64-3.78-22.68-12.74h-0.42l-0.562,11.2H666.345L666.345,175.936z M679.085,148.775c0,1.54,0.278,3.08,0.56,4.48
	c2.38,8.539,9.52,14.42,18.479,14.42c12.881,0,20.58-10.5,20.58-26.04c0-13.58-7-25.2-20.159-25.2
	c-8.399,0-16.239,5.74-18.761,15.12c-0.278,1.399-0.698,3.08-0.698,5.04V148.775L679.085,148.775z"/>
<path fill="#60CDA2" d="M803.263,157.455c0,7,0.14,13.16,0.56,18.479h-10.92l-0.7-11.061h-0.278
	c-3.222,5.461-10.36,12.601-22.4,12.601c-10.64,0-23.38-5.88-23.38-29.68v-39.62h12.32v37.52c0,12.882,3.92,21.562,15.12,21.562
	c8.26,0,14-5.74,16.238-11.2c0.7-1.819,1.12-4.06,1.12-6.3v-41.58h12.32V157.455z"/>
<path fill="#60CDA2" d="M880.401,157.455c0,7,0.141,13.16,0.561,18.479h-10.92l-0.7-11.061h-0.279
	c-3.221,5.461-10.36,12.601-22.4,12.601c-10.64,0-23.38-5.88-23.38-29.68v-39.62h12.32v37.52c0,12.882,3.92,21.562,15.12,21.562
	c8.26,0,14-5.74,16.239-11.2c0.699-1.819,1.119-4.06,1.119-6.3v-41.58h12.32V157.455z"/>
<path fill="#60CDA2" d="M900.841,129.316c0-7.979-0.141-14.841-0.561-21.141h10.779l0.421,13.3h0.561
	c3.079-9.1,10.5-14.84,18.76-14.84c1.399,0,2.38,0.14,3.5,0.42v11.62c-1.26-0.279-2.521-0.42-4.2-0.42
	c-8.68,0-14.84,6.58-16.521,15.82c-0.279,1.68-0.561,3.64-0.561,5.739v36.119h-12.18L900.841,129.316L900.841,129.316z"/>
<path fill="#60CDA2" d="M964.818,88.716v19.46h17.642v9.38h-17.642v36.54c0,8.4,2.38,13.16,9.24,13.16c3.22,0,5.6-0.42,7.14-0.84
	l0.562,9.24c-2.38,0.979-6.16,1.68-10.92,1.68c-5.74,0-10.36-1.82-13.301-5.18c-3.5-3.642-4.761-9.66-4.761-17.642v-36.96h-10.5
	v-9.38h10.5v-16.24L964.818,88.716z"/>
<g>
	<g>
		<path id="SVGID_3_" fill="#FFFFFF" d="M205.369,83.586v-2.49c0.112-3.867,1.182-6.885,3.202-9.045
			c2.021-2.154,4.722-3.236,8.091-3.236c3.26,0,5.924,1.136,8.004,3.402c2.084,2.268,3.119,5.23,3.119,8.879v2.49v13.217h2.532
			h2.357c3.373,0.111,6.07,1.055,8.088,2.824c2.021,1.771,3.033,4.147,3.033,7.135c0,2.879-1.039,5.254-3.115,7.137
			c-2.084,1.884-4.746,2.82-8.006,2.82h-2.357h-2.532v44.984v2.485c-0.111,3.765-1.173,6.75-3.203,8.963
			c-2.015,2.218-4.713,3.32-8.086,3.32c-3.261,0-5.931-1.137-8.002-3.399c-2.084-2.269-3.125-5.23-3.125-8.884v-2.485v-44.984
			h-1.181c-3.594,0-6.43-0.881-8.51-2.654c-2.076-1.768-3.117-4.203-3.117-7.303c0-6.856,4.269-10.178,12.808-9.959V83.586
			L205.369,83.586z"/>
	</g>
</g>
<g>
	<g>
		<path id="SVGID_5_" fill="#FFFFFF" d="M283.209,161.719v2.486c-0.117,3.756-1.234,6.742-3.379,8.951
			c-2.134,2.213-4.916,3.315-8.354,3.315c-3.555,0-6.43-1.135-8.619-3.396c-2.2-2.265-3.295-5.228-3.295-8.871v-2.486v-51.234
			v-2.485c0.119-3.756,1.246-6.742,3.377-8.953c2.133-2.213,4.927-3.316,8.359-3.316c3.559,0,6.428,1.136,8.619,3.402
			c2.196,2.264,3.291,5.219,3.291,8.867v2.485L283.209,161.719L283.209,161.719z"/>
	</g>
</g>
<g>
	<g>
		<path id="SVGID_7_" fill="#FFFFFF" d="M422.059,192.588v2.471c-0.119,3.838-1.166,6.828-3.137,8.969
			c-1.982,2.134-4.672,3.205-8.068,3.205c-3.393,0-6.131-1.1-8.227-3.293c-2.095-2.198-3.142-5.166-3.142-8.901v-2.472V110.5
			c0-2.638,0.107-4.611,0.338-5.933c0.224-1.319,0.687-2.522,1.363-3.625c1.809-3.073,4.861-4.614,9.154-4.614
			c5.323,0,8.885,2.637,10.696,7.914c3.623-3.076,7.181-5.246,10.689-6.513c3.502-1.264,7.635-1.897,12.393-1.897
			c5.65,0,10.877,1.02,15.695,3.053c4.803,2.031,8.928,4.861,12.385,8.486c3.449,3.625,6.166,7.936,8.144,12.936
			c1.987,5,2.973,10.41,2.973,16.23c0,5.821-0.983,11.207-2.973,16.151c-1.978,4.941-4.693,9.229-8.144,12.851
			c-3.457,3.625-7.528,6.455-12.223,8.485c-4.688,2.033-9.807,3.054-15.357,3.054c-4.409,0-8.396-0.601-11.961-1.802
			c-3.564-1.2-7.098-3.164-10.602-5.889v23.2H422.059z M440.557,155.156c2.594,0,5.059-0.492,7.373-1.479
			c2.326-0.988,4.356-2.309,6.113-3.959c1.754-1.641,3.133-3.568,4.155-5.768c1.019-2.197,1.523-4.556,1.523-7.084
			c0-2.638-0.506-5.107-1.523-7.412c-1.022-2.312-2.377-4.289-4.071-5.937c-1.701-1.646-3.709-2.967-6.027-3.957
			c-2.316-0.987-4.832-1.479-7.543-1.479c-2.609,0-5.064,0.492-7.389,1.479c-2.316,0.99-4.326,2.312-6.021,3.957
			c-1.694,1.646-3.057,3.601-4.08,5.851c-1.01,2.252-1.521,4.69-1.521,7.332c0,2.528,0.512,4.92,1.521,7.17
			c1.023,2.252,2.387,4.207,4.08,5.848c1.693,1.65,3.703,2.971,6.021,3.959C435.491,154.664,437.947,155.156,440.557,155.156z"/>
	</g>
</g>
<g>
	<g>
		<path id="SVGID_9_" fill="#FFFFFF" d="M323.359,192.588v2.471c-0.117,3.838-1.162,6.828-3.141,8.969
			c-1.982,2.134-4.674,3.205-8.062,3.205c-3.393,0-6.137-1.1-8.229-3.293c-2.094-2.198-3.137-5.166-3.137-8.901v-2.472V110.5
			c0-2.638,0.108-4.611,0.342-5.933c0.223-1.319,0.676-2.522,1.356-3.625c1.812-3.073,4.857-4.614,9.154-4.614
			c5.322,0,8.887,2.637,10.697,7.914c3.616-3.076,7.186-5.246,10.688-6.513c3.51-1.264,7.639-1.897,12.389-1.897
			c5.654,0,10.888,1.02,15.699,3.053c4.812,2.031,8.937,4.861,12.39,8.486c3.45,3.625,6.159,7.936,8.147,12.936
			c1.978,5,2.971,10.41,2.971,16.23c0,5.821-0.993,11.207-2.971,16.151c-1.988,4.941-4.697,9.229-8.147,12.851
			c-3.453,3.625-7.529,6.455-12.222,8.485c-4.698,2.033-9.813,3.054-15.354,3.054c-4.41,0-8.402-0.601-11.961-1.802
			c-3.564-1.2-7.104-3.164-10.607-5.889L323.359,192.588L323.359,192.588z M341.855,155.156c2.602,0,5.062-0.492,7.381-1.479
			c2.312-0.988,4.357-2.309,6.113-3.959c1.746-1.641,3.133-3.568,4.147-5.768c1.017-2.197,1.527-4.556,1.527-7.084
			c0-2.638-0.512-5.107-1.527-7.412c-1.016-2.312-2.37-4.289-4.069-5.937c-1.695-1.646-3.703-2.967-6.021-3.957
			c-2.317-0.987-4.838-1.479-7.553-1.479c-2.609,0-5.064,0.492-7.385,1.479c-2.322,0.99-4.326,2.312-6.025,3.957
			c-1.69,1.646-3.051,3.601-4.07,5.851c-1.016,2.252-1.522,4.69-1.522,7.332c0,2.528,0.508,4.92,1.522,7.17
			c1.021,2.252,2.38,4.207,4.07,5.848c1.699,1.65,3.703,2.971,6.025,3.959C336.79,154.664,339.245,155.156,341.855,155.156z"/>
	</g>
</g>
<g>
	<g>
		<path id="SVGID_11_" fill="#FFFFFF" d="M519.672,161.719v2.486c-0.115,3.756-1.248,6.742-3.381,8.951
			c-2.132,2.213-4.91,3.315-8.353,3.315c-3.555,0-6.426-1.135-8.621-3.396c-2.192-2.265-3.293-5.228-3.293-8.871v-2.486v-51.234
			v-2.485c0.123-3.756,1.246-6.742,3.379-8.953c2.131-2.213,4.918-3.316,8.353-3.316c3.563,0,6.436,1.136,8.629,3.402
			c2.19,2.264,3.287,5.219,3.287,8.867v2.485V161.719z"/>
	</g>
</g>
<g>
	<g>
		<path id="SVGID_13_" fill="#FFFFFF" d="M581.504,175.23c-3.519,1.213-7.451,1.816-11.808,1.816c-5.475,0-10.53-1.017-15.164-3.051
			c-4.635-2.033-8.651-4.869-12.062-8.494c-3.41-3.631-6.09-7.918-8.037-12.863c-1.961-4.953-2.939-10.34-2.939-16.172
			c0-5.822,0.979-11.238,2.939-16.24c1.947-5.004,4.627-9.322,8.037-12.951c3.41-3.631,7.479-6.459,12.223-8.493
			c4.758-2.033,9.914-3.054,15.502-3.054c4.697,0,8.769,0.635,12.232,1.898c3.455,1.266,6.979,3.438,10.553,6.514
			c1.893-5.279,5.42-7.916,10.555-7.916c2.009,0,3.824,0.412,5.455,1.24c1.604,0.824,2.812,1.947,3.588,3.379
			c0.679,1.211,1.125,2.471,1.349,3.795c0.223,1.316,0.33,3.24,0.33,5.771v82.146v2.469c-0.107,3.851-1.17,6.849-3.179,8.992
			c-2.02,2.146-4.696,3.217-8.045,3.217c-3.239,0-5.896-1.131-7.959-3.383c-2.062-2.256-3.094-5.195-3.094-8.826v-2.469v-23.258
			C588.516,172.045,585.021,174.023,581.504,175.23 M573.715,155.107c2.569,0,5.002-0.494,7.287-1.481
			c2.286-0.986,4.272-2.312,5.95-3.961c1.673-1.644,3.019-3.601,4.021-5.854c1.008-2.256,1.508-4.643,1.508-7.174
			c0-2.645-0.5-5.084-1.508-7.34c-1.002-2.256-2.348-4.207-4.021-5.857c-1.678-1.647-3.664-2.969-5.95-3.957
			c-2.285-0.991-4.718-1.485-7.287-1.485c-2.681,0-5.166,0.494-7.453,1.485c-2.293,0.988-4.277,2.31-5.949,3.957
			c-1.678,1.65-3.016,3.634-4.018,5.941c-1.009,2.311-1.519,4.779-1.519,7.422c0,2.527,0.51,4.891,1.519,7.088
			c1.002,2.201,2.371,4.131,4.102,5.773c1.727,1.649,3.734,2.975,6.037,3.961C568.719,154.614,571.152,155.107,573.715,155.107"/>
	</g>
</g>
<g>
	<g>
		<path id="SVGID_15_" fill="#FFFFFF" d="M506.133,64.969c3.771,0,6.973,1.303,9.598,3.896c2.633,2.598,3.941,5.754,3.941,9.479
			c0,3.727-1.343,6.912-4.025,9.564c-2.688,2.651-5.967,3.975-9.855,3.975c-1.821,0-3.569-0.365-5.217-1.1
			c-1.662-0.732-3.117-1.693-4.381-2.875c-1.254-1.187-2.248-2.566-2.994-4.148c-0.746-1.578-1.115-3.271-1.115-5.076
			c0-3.949,1.349-7.221,4.033-9.817C498.795,66.271,502.137,64.969,506.133,64.969"/>
	</g>
</g>
<g>
	<g>
		<path id="SVGID_17_" fill="#FFFFFF" d="M269.67,64.969c3.771,0,6.963,1.303,9.598,3.896c2.627,2.598,3.941,5.754,3.941,9.479
			c0,3.727-1.347,6.912-4.029,9.564c-2.691,2.651-5.975,3.975-9.854,3.975c-1.824,0-3.566-0.365-5.226-1.1
			c-1.66-0.732-3.117-1.693-4.377-2.875c-1.25-1.187-2.246-2.566-2.992-4.148c-0.739-1.578-1.11-3.271-1.11-5.076
			c0-3.949,1.34-7.221,4.026-9.817C262.324,66.271,265.672,64.969,269.67,64.969"/>
	</g>
</g>
</svg>
