
<svg width="470px" height="301px" viewBox="0 0 470 301" version="1.1" xmlns="http://www.w3.org/2000/svg" xmlns:xlink="http://www.w3.org/1999/xlink">
    <!-- Generator: Sketch 41.2 (35397) - http://www.bohemiancoding.com/sketch -->
    <desc>Created with Sketch.</desc>
    <defs>
        <rect id="path-1" x="0" y="0" width="469" height="301"></rect>
        <rect id="path-3" x="0" y="0" width="441" height="301"></rect>
        <mask id="mask-4" maskContentUnits="userSpaceOnUse" maskUnits="objectBoundingBox" x="0" y="0" width="441" height="301" fill="white">
            <use xlink:href="#path-3"></use>
        </mask>
        <rect id="path-5" x="0" y="0" width="66.8119196" height="63.2669704"></rect>
        <polygon id="path-7" points="23.1579651 11.0293823 23.1579651 0.0224148458 0.209780031 0.0224148458 0.209780031 11.0293823 23.1579651 11.0293823"></polygon>
        <polygon id="path-9" points="0 71.7025665 82.9691984 71.7025665 82.9691984 0 0 0"></polygon>
        <rect id="path-11" x="0" y="0" width="66.8119196" height="63.2669704"></rect>
        <polygon id="path-13" points="0 70.0154473 69.3490811 70.0154473 69.3490811 0.297338328 0 0.297338328"></polygon>
    </defs>
    <mask id="mask-2" fill="white">
        <use xlink:href="#path-1"></use>
    </mask>
    <g id="Mask" stroke="none" fill="none"></g>
    <g id="Rectangle-5" stroke="none" fill="none" mask="url(#mask-2)" stroke-width="14" fill-rule="evenodd">
        <use stroke="#DEDEDE" mask="url(#mask-4)" fill="#E4E4E4" xlink:href="#path-3"></use>
    </g>
    <rect id="Rectangle-8" stroke="none" fill="#333333" fill-rule="evenodd" mask="url(#mask-2)" x="30" y="41" width="384" height="53"></rect>
    <path d="M156,75.7192513 L156,61.2807487 L158.993802,61.2807487 L158.993802,67.2005348 L161.140458,67.2005348 L161.140458,61.2807487 L164.15071,61.2807487 L164.15071,75.7192513 L161.140458,75.7192513 L161.140458,69.2780749 L158.993802,69.2780749 L158.993802,75.7192513 L156,75.7192513 Z M168.855256,70.8342246 L170.385056,70.8342246 L169.636606,65.4759358 L168.855256,70.8342246 Z M165.104778,75.7192513 L168.304199,61.2807487 L170.952563,61.2807487 L174.143759,75.7192513 L171.19108,75.7192513 L170.58245,72.631016 L168.649638,72.631016 L168.073907,75.7192513 L165.104778,75.7192513 Z M178.042282,70.8342246 L179.572082,70.8342246 L178.823632,65.4759358 L178.042282,70.8342246 Z M174.291804,75.7192513 L177.491225,61.2807487 L180.139589,61.2807487 L183.330785,75.7192513 L180.378106,75.7192513 L179.769476,72.631016 L177.836664,72.631016 L177.260933,75.7192513 L174.291804,75.7192513 Z M187.278656,67.2887701 L188.134028,67.2887701 C188.364322,67.2887701 188.561714,67.2139045 188.726209,67.0641711 C188.890705,66.9144378 189.009962,66.7246001 189.083985,66.4946524 C189.158008,66.2647047 189.210097,66.0534769 189.240255,65.8609626 C189.270412,65.6684482 189.285491,65.4866319 189.285491,65.315508 C189.285491,65.1443842 189.273154,64.9679153 189.24848,64.7860963 C189.223805,64.6042772 189.17994,64.4024075 189.116884,64.1804813 C189.053827,63.958555 188.949648,63.7767387 188.804344,63.6350267 C188.65904,63.4933148 188.48221,63.4224599 188.273849,63.4224599 L187.278656,63.4224599 L187.278656,67.2887701 Z M184.284854,75.7192513 L184.284854,61.2807487 L187.541848,61.2807487 C188.282077,61.2807487 188.933195,61.3489298 189.495222,61.4852941 C190.057248,61.6216584 190.549356,61.83556 190.971561,62.1270053 C191.393766,62.4184507 191.714527,62.8114949 191.933855,63.3061497 C192.153182,63.8008046 192.262844,64.3930447 192.262844,65.0828877 C192.262844,65.3823544 192.251878,65.6497314 192.229945,65.8850267 C192.208012,66.120322 192.157294,66.3890359 192.077787,66.6911765 C191.998281,66.993317 191.88999,67.260694 191.752911,67.4933155 C191.615831,67.725937 191.418439,67.9545443 191.16073,68.1791444 C190.90302,68.4037444 190.598708,68.5909083 190.247785,68.7406417 C191.13606,71.4893186 191.909177,73.8154985 192.567159,75.7192513 L189.466435,75.7192513 L187.77214,69.0695187 L187.278656,69.0695187 L187.278656,75.7192513 L184.284854,75.7192513 Z M193.513003,75.7192513 L193.513003,61.2807487 L196.506806,61.2807487 L196.506806,73.7139037 L199.45126,73.7139037 L199.45126,75.7192513 L193.513003,75.7192513 Z M200.405329,75.7192513 L200.405329,61.2807487 L206.582103,61.2807487 L206.582103,63.2860963 L203.399131,63.2860963 L203.399131,67.2165775 L205.652708,67.2165775 L205.652708,69.2700535 L203.399131,69.2700535 L203.399131,73.7139037 L206.582103,73.7139037 L206.582103,75.7192513 L200.405329,75.7192513 Z M207.651318,75.7192513 L207.651318,61.2807487 L211.237301,61.2807487 L212.816449,70.9064171 L214.518969,61.2807487 L217.981581,61.2807487 L217.981581,75.7192513 L215.777353,75.7192513 L215.711555,65.5641711 C215.54706,66.6069571 215.259197,68.2994535 214.847958,70.6417112 C214.43672,72.9839689 214.148857,74.6764654 213.984361,75.7192513 L211.747234,75.7192513 L209.929568,65.5 L209.863771,75.7192513 L207.651318,75.7192513 Z M219.741674,75.7192513 L219.741674,61.2807487 L223.327657,61.2807487 L224.906806,70.9064171 L226.609325,61.2807487 L230.071937,61.2807487 L230.071937,75.7192513 L227.867709,75.7192513 L227.801911,65.5641711 C227.637416,66.6069571 227.349553,68.2994535 226.938315,70.6417112 C226.527076,72.9839689 226.239213,74.6764654 226.074718,75.7192513 L223.837591,75.7192513 L222.019925,65.5 L221.954127,75.7192513 L219.741674,75.7192513 Z M231.83203,75.7192513 L231.83203,61.2807487 L238.008804,61.2807487 L238.008804,63.2860963 L234.825833,63.2860963 L234.825833,67.2165775 L237.079409,67.2165775 L237.079409,69.2700535 L234.825833,69.2700535 L234.825833,73.7139037 L238.008804,73.7139037 L238.008804,75.7192513 L231.83203,75.7192513 Z M242.071822,67.2887701 L242.927194,67.2887701 C243.157487,67.2887701 243.354879,67.2139045 243.519374,67.0641711 C243.68387,66.9144378 243.803127,66.7246001 243.87715,66.4946524 C243.951173,66.2647047 244.003263,66.0534769 244.03342,65.8609626 C244.063578,65.6684482 244.078656,65.4866319 244.078656,65.315508 C244.078656,65.1443842 244.066319,64.9679153 244.041645,64.7860963 C244.016971,64.6042772 243.973106,64.4024075 243.910049,64.1804813 C243.846993,63.958555 243.742814,63.7767387 243.597509,63.6350267 C243.452205,63.4933148 243.275375,63.4224599 243.067014,63.4224599 L242.071822,63.4224599 L242.071822,67.2887701 Z M239.078019,75.7192513 L239.078019,61.2807487 L242.335013,61.2807487 C243.075243,61.2807487 243.726361,61.3489298 244.288387,61.4852941 C244.850413,61.6216584 245.342521,61.83556 245.764726,62.1270053 C246.186931,62.4184507 246.507693,62.8114949 246.72702,63.3061497 C246.946347,63.8008046 247.056009,64.3930447 247.056009,65.0828877 C247.056009,65.3823544 247.045043,65.6497314 247.02311,65.8850267 C247.001178,66.120322 246.950459,66.3890359 246.870953,66.6911765 C246.791447,66.993317 246.683155,67.260694 246.546076,67.4933155 C246.408996,67.725937 246.211605,67.9545443 245.953895,68.1791444 C245.696186,68.4037444 245.391874,68.5909083 245.04095,68.7406417 C245.929225,71.4893186 246.702342,73.8154985 247.360324,75.7192513 L244.2596,75.7192513 L242.565306,69.0695187 L242.071822,69.0695187 L242.071822,75.7192513 L239.078019,75.7192513 Z M249.6468,75.7192513 L247.598842,61.2807487 L250.148509,61.2807487 L251.069679,70.842246 L252.336287,61.2807487 L254.532291,61.2807487 L255.774225,70.7860963 L256.736519,61.2807487 L259.294411,61.2807487 L257.221778,75.7192513 L254.663886,75.7192513 L253.421952,66.2700535 L252.204692,75.7192513 L249.6468,75.7192513 Z M260.347176,75.7192513 L260.347176,61.2807487 L266.52395,61.2807487 L266.52395,63.2860963 L263.340979,63.2860963 L263.340979,67.2165775 L265.594555,67.2165775 L265.594555,69.2700535 L263.340979,69.2700535 L263.340979,73.7139037 L266.52395,73.7139037 L266.52395,75.7192513 L260.347176,75.7192513 Z M267.403997,71.2032086 L267.403997,66.1176471 C267.403997,62.7058653 268.85976,61 271.771329,61 C272.385446,61 272.932385,61.0788762 273.412163,61.236631 C273.891942,61.3943858 274.293579,61.6122981 274.617087,61.8903743 C274.940594,62.1684506 275.206525,62.5106932 275.414886,62.9171123 C275.623247,63.3235314 275.774032,63.7647035 275.867246,64.2406417 C275.96046,64.7165799 276.007066,65.2406389 276.007066,65.8128342 L276.007066,66.6631016 L273.14486,66.6631016 L273.14486,65.6524064 C273.14486,65.4010683 273.138006,65.1804822 273.124298,64.9906417 C273.11059,64.8008012 273.07632,64.5895734 273.021489,64.3569519 C272.966657,64.1243304 272.892635,63.9331558 272.799421,63.7834225 C272.706207,63.6336891 272.571871,63.5080219 272.396409,63.4064171 C272.220947,63.3048123 272.012589,63.2540107 271.771329,63.2540107 C270.855638,63.2540107 270.397799,63.9652335 270.397799,65.3877005 L270.397799,71.6203209 C270.397799,73.0374402 270.855638,73.7459893 271.771329,73.7459893 C272.681538,73.7459893 273.136635,73.0107025 273.136635,71.540107 L273.136635,70.3850267 L271.44234,70.3850267 L271.44234,68.2914439 L276.130437,68.2914439 L276.130437,75.7192513 L274.074254,75.7192513 L273.695917,74.7085561 C273.44369,75.0935848 273.084547,75.405079 272.618477,75.6430481 C272.152406,75.8810172 271.672635,76 271.179149,76 C270.64728,76 270.163396,75.9050812 269.727483,75.7152406 C269.29157,75.5254001 268.932427,75.2740657 268.650043,74.9612299 C268.36766,74.6483942 268.130515,74.2807508 267.938604,73.8582888 C267.746693,73.4358268 267.609615,73.0040129 267.527368,72.5628342 C267.44512,72.1216555 267.403997,71.6684515 267.403997,71.2032086 L267.403997,71.2032086 Z M283.310628,69.9679144 L284.922676,69.9679144 L284.922676,65.6363636 L283.310628,69.9679144 Z M280.777411,72.2139037 L280.777411,69.9518717 L284.396293,61.2727273 L287.760209,61.2727273 L287.760209,69.9679144 L289.141964,69.9679144 L289.141964,72.2139037 L287.760209,72.2139037 L287.760209,75.7192513 L284.922676,75.7192513 L284.922676,72.2139037 L280.777411,72.2139037 Z M290.153606,71.1390374 L292.999363,71.1390374 C292.99388,71.4010708 292.99388,71.6216569 292.999363,71.8008021 C293.004846,71.9799474 293.015812,72.1751326 293.032262,72.3863636 C293.048711,72.5975946 293.077498,72.7700528 293.118621,72.9037433 C293.159745,73.0374338 293.214576,73.1644379 293.283116,73.2847594 C293.351656,73.4050808 293.439386,73.4933152 293.546308,73.5494652 C293.65323,73.6056153 293.77797,73.6336898 293.920533,73.6336898 C294.101478,73.6336898 294.263229,73.5989308 294.405792,73.5294118 C294.548355,73.4598927 294.6635,73.3649739 294.751231,73.2446524 C294.838962,73.1243309 294.914354,72.9852949 294.977411,72.8275401 C295.040468,72.6697853 295.085703,72.5013378 295.113119,72.3221925 C295.140535,72.1430472 295.163838,71.9612309 295.183029,71.776738 C295.20222,71.5922451 295.209074,71.4144394 295.203591,71.2433155 C295.198108,71.0721917 295.198108,70.9117655 295.203591,70.7620321 L295.203591,70.5454545 C295.203591,70.3850259 295.20085,70.244653 295.195366,70.1243316 C295.189883,70.0040101 295.176175,69.854279 295.154243,69.6751337 C295.13231,69.4959884 295.09667,69.3409097 295.047321,69.209893 C294.997973,69.0788764 294.933546,68.9518723 294.85404,68.828877 C294.774534,68.7058817 294.670355,68.6109629 294.5415,68.5441176 C294.412645,68.4772724 294.263231,68.4438503 294.093252,68.4438503 C293.824576,68.4438503 293.587432,68.5574855 293.381813,68.7847594 C293.176194,69.0120332 293.013071,69.2727258 292.892441,69.5668449 L290.466145,69.5668449 L290.466145,61.2727273 L297.514741,61.2727273 L297.514741,64.0160428 L293.130959,64.0160428 L293.130959,66.6229947 C293.657344,66.3074851 294.137115,66.1497326 294.570287,66.1497326 C295.096672,66.1497326 295.564106,66.2326195 295.972604,66.3983957 C296.381101,66.564172 296.710087,66.7834211 296.959571,67.0561497 C297.209056,67.3288784 297.414672,67.6604259 297.576426,68.0508021 C297.73818,68.4411784 297.849213,68.840907 297.909528,69.25 C297.969843,69.659093 298,70.1042757 298,70.5855615 C298,71.0614997 297.978068,71.5040086 297.934202,71.9131016 C297.890337,72.3221946 297.816315,72.7393027 297.712134,73.1644385 C297.607954,73.5895743 297.458539,73.9665759 297.263886,74.2954545 C297.069234,74.6243332 296.830719,74.9197848 296.548335,75.1818182 C296.265951,75.4438516 295.913662,75.6457212 295.491457,75.7874332 C295.069252,75.9291451 294.58948,76 294.052129,76 C293.443495,76 292.908893,75.9144394 292.448306,75.7433155 C291.987719,75.5721917 291.613497,75.3422474 291.32563,75.0534759 C291.037763,74.7647044 290.804731,74.4077561 290.626528,73.9826203 C290.448324,73.5574845 290.324954,73.1176493 290.256415,72.6631016 C290.187875,72.2085539 290.153606,71.7005376 290.153606,71.1390374 L290.153606,71.1390374 Z" id="HAARLEMMERWEG-45" stroke="none" fill="#60CDA2" fill-rule="evenodd" mask="url(#mask-2)"></path>
    <rect id="Rectangle-7" stroke="none" fill="#FFFFFF" fill-rule="evenodd" mask="url(#mask-2)" x="30" y="93" width="384" height="208"></rect>
    <g id="BUURT-VERBETEREN" stroke="none" stroke-width="1" fill="none" fill-rule="evenodd" mask="url(#mask-2)">
        <g transform="translate(51.000000, 118.000000)">
            <g id="BRON" stroke-width="1" fill="none" transform="translate(0.000000, 28.681027)">
                <path d="M82.3693777,14.7400508 L85.112188,14.2136498 C85.112188,14.4855015 85.1171434,14.7252216 85.1270542,14.9328174 C85.136965,15.1404131 85.1629806,15.3665409 85.2051017,15.6112073 C85.2472227,15.8558738 85.3042092,16.0560524 85.3760627,16.2117493 C85.4479163,16.3674461 85.5495009,16.4984272 85.6808194,16.6046965 C85.812138,16.7109657 85.9669925,16.7640996 86.1453876,16.7640996 C86.6805728,16.7640996 86.9481613,16.4230545 86.9481613,15.7409541 C86.9481613,14.806773 86.4204172,13.8775487 85.3649131,12.9532532 L84.5249739,12.2414997 C84.2573813,12.0190757 84.0443015,11.8337251 83.8857281,11.6854424 C83.7271547,11.5371597 83.5400905,11.336981 83.3245298,11.0849004 C83.1089691,10.8328198 82.9404874,10.5893927 82.8190797,10.3546118 C82.6976719,10.1198308 82.5936097,9.83686225 82.5068899,9.50569755 C82.42017,9.17453285 82.3768108,8.82360238 82.3768108,8.45289562 C82.3768108,7.37043189 82.7212072,6.51411212 83.4100103,5.88391063 C84.0988135,5.25370914 85.0130745,4.93861312 86.1528207,4.93861312 C87.0993056,4.93861312 87.904549,5.27471554 88.568575,5.94693046 C89.2326011,6.61914539 89.5646091,7.42974534 89.5646091,8.37875464 L89.5571761,8.47513791 L89.5571761,8.69756086 L86.7623341,9.08309396 C86.7623341,9.02872363 86.7660506,8.94346236 86.7734837,8.82730757 C86.7809169,8.71115279 86.7846334,8.61600615 86.7846334,8.5418648 C86.7846334,8.36392555 86.772245,8.193403 86.7474679,8.03029203 C86.7226908,7.86718105 86.6818092,7.70407253 86.6248219,7.54096155 C86.5678346,7.37785058 86.4798772,7.24810516 86.3609472,7.1517214 C86.2420172,7.05533765 86.0983122,7.00714649 85.929828,7.00714649 C85.6325029,7.00714649 85.4095124,7.12329953 85.2608498,7.3556091 C85.1121873,7.58791867 85.0378571,7.86223756 85.0378571,8.17857399 C85.0378571,8.45536837 85.0812164,8.71485921 85.1679362,8.95705429 C85.254656,9.19924937 85.3859726,9.4253771 85.56189,9.63544427 C85.7378073,9.84551143 85.9000949,10.019741 86.0487574,10.1581382 C86.19742,10.2965354 86.3956337,10.4658223 86.6434046,10.6660039 C86.8911756,10.8661856 87.0670903,11.0132304 87.1711541,11.1071427 C87.5527213,11.4432502 87.8748186,11.7583462 88.1374558,12.0524402 C88.400093,12.3465343 88.6478602,12.6789297 88.8807648,13.0496364 C89.1136695,13.4203432 89.2883454,13.8207005 89.4047977,14.2507203 C89.52125,14.6807402 89.5794753,15.1453523 89.5794753,15.6445708 C89.5794753,16.5787518 89.2449896,17.3436319 88.5760081,17.9392341 C87.9070267,18.5348363 87.0943502,18.832633 86.1379545,18.832633 C85.5185272,18.832633 84.968484,18.7189513 84.4878084,18.4915844 C84.0071329,18.2642176 83.6193772,17.9553 83.3245298,17.5648222 C83.0296824,17.1743444 82.8029754,16.7418597 82.644402,16.267355 C82.4858287,15.7928504 82.3941548,15.2837541 82.3693777,14.7400508 L82.3693777,14.7400508 Z M93.3183198,14.0431256 L94.7008746,14.0431256 L94.0244634,9.09050806 L93.3183198,14.0431256 Z M89.9288306,18.5583113 L92.8203027,5.21293475 L95.2137578,5.21293475 L98.0977969,18.5583113 L95.4293174,18.5583113 L94.8792687,15.7038836 L93.1324925,15.7038836 L92.6121762,18.5583113 L89.9288306,18.5583113 Z M98.9600353,18.5583113 L98.9600353,5.21293475 L102.200863,5.21293475 L103.628016,14.1098525 L105.166666,5.21293475 L108.295997,5.21293475 L108.295997,18.5583113 L106.303929,18.5583113 L106.244464,9.17206314 C106.095801,10.1359007 105.835646,11.7002598 105.463989,13.8651872 C105.092333,16.0301147 104.832177,17.5944738 104.683515,18.5583113 L102.661714,18.5583113 L101.019001,9.11275035 L100.959537,18.5583113 L98.9600353,18.5583113 Z M109.886678,18.5583113 L109.886678,5.21293475 L115.468929,5.21293475 L115.468929,7.06645928 L112.592323,7.06645928 L112.592323,10.6993673 L114.62899,10.6993673 L114.62899,12.5973765 L112.592323,12.5973765 L112.592323,16.7047868 L115.468929,16.7047868 L115.468929,18.5583113 L109.886678,18.5583113 Z M116.435231,18.5583113 L116.435231,5.20552065 L118.3827,5.20552065 L121.318771,12.1896011 L121.318771,5.20552065 L123.563564,5.20552065 L123.563564,18.5583113 L121.690426,18.5583113 L118.761788,11.1516273 L118.761788,18.5583113 L116.435231,18.5583113 Z M128.201813,18.5583113 L128.201813,5.21293475 L130.907458,5.21293475 L130.907458,10.6845391 L132.847494,10.6845391 L132.847494,5.21293475 L135.568005,5.21293475 L135.568005,18.5583113 L132.847494,18.5583113 L132.847494,12.6047906 L130.907458,12.6047906 L130.907458,18.5583113 L128.201813,18.5583113 Z M137.158687,18.5583113 L137.158687,5.21293475 L142.740937,5.21293475 L142.740937,7.06645928 L139.864332,7.06645928 L139.864332,10.6993673 L141.900998,10.6993673 L141.900998,12.5973765 L139.864332,12.5973765 L139.864332,16.7047868 L142.740937,16.7047868 L142.740937,18.5583113 L137.158687,18.5583113 Z M144.978298,18.5583113 L144.978298,7.22956943 L143.015962,7.22956943 L143.015962,5.21293475 L149.609113,5.21293475 L149.609113,7.22956943 L147.683943,7.22956943 L147.683943,18.5583113 L144.978298,18.5583113 Z M156.284028,10.9440326 C156.427735,10.9440326 156.555335,10.9353829 156.666832,10.9180832 C156.778329,10.9007836 156.876197,10.8810129 156.960439,10.8587705 C157.044681,10.836528 157.119012,10.7957509 157.183432,10.7364378 C157.247852,10.6771248 157.301122,10.6252266 157.343243,10.5807418 C157.385365,10.536257 157.421291,10.4633524 157.451023,10.3620259 C157.480756,10.2606994 157.503055,10.1779094 157.517921,10.1136536 C157.532787,10.0493978 157.543937,9.94560142 157.55137,9.80226147 C157.558803,9.65892153 157.56252,9.54400416 157.56252,9.45750591 L157.56252,9.05343757 L157.56252,8.94222609 C157.56252,8.74945858 157.561281,8.60364944 157.558803,8.50479431 C157.556325,8.40593917 157.547654,8.27990076 157.532787,8.1266753 C157.517921,7.97344984 157.494383,7.85853247 157.462173,7.78191974 C157.429963,7.70530701 157.382887,7.6175744 157.320944,7.51871926 C157.259001,7.41986412 157.183432,7.34819523 157.094235,7.30371041 C157.005037,7.2592256 156.892303,7.21968414 156.756029,7.18508485 C156.619755,7.15048555 156.462423,7.13318616 156.284028,7.13318616 L156.284028,10.9440326 Z M153.556084,18.5583113 L153.556084,5.21293475 L156.789478,5.21293475 C157.954002,5.21293475 158.801365,5.53668046 159.331595,6.1841816 C159.861825,6.83168274 160.126936,7.7683211 160.126936,8.99412478 C160.126936,9.59714111 160.06871,10.1210655 159.952258,10.5659136 C159.835806,11.0107617 159.673518,11.3777559 159.465391,11.6669071 C159.257263,11.9560584 158.989675,12.1883645 158.662617,12.3638324 C158.335559,12.5393002 157.981252,12.6628673 157.599685,12.7345373 C157.218118,12.8062072 156.777092,12.844513 156.276595,12.8494558 L156.276595,18.5583113 L153.556084,18.5583113 Z M163.813749,14.0431256 L165.196303,14.0431256 L164.519892,9.09050806 L163.813749,14.0431256 Z M160.424259,18.5583113 L163.315732,5.21293475 L165.709187,5.21293475 L168.593226,18.5583113 L165.924746,18.5583113 L165.374698,15.7038836 L163.627921,15.7038836 L163.107605,18.5583113 L160.424259,18.5583113 Z M172.161109,10.7660942 L172.93415,10.7660942 C173.142278,10.7660942 173.32067,10.6968967 173.469333,10.5584995 C173.617995,10.4201023 173.725774,10.2446371 173.792672,10.0320985 C173.859571,9.81955997 173.906646,9.62432401 173.933901,9.44638477 C173.961156,9.26844552 173.974783,9.10039431 173.974783,8.94222609 C173.974783,8.78405788 173.963634,8.62094935 173.941334,8.45289562 C173.919035,8.28484189 173.879392,8.09825562 173.822405,7.89313121 C173.765417,7.68800681 173.671266,7.5199556 173.539947,7.38897254 C173.408629,7.25798949 173.248819,7.19249894 173.060513,7.19249894 L172.161109,7.19249894 L172.161109,10.7660942 Z M169.455464,18.5583113 L169.455464,5.21293475 L172.398968,5.21293475 C173.067949,5.21293475 173.656397,5.27595396 174.164327,5.40199425 C174.672257,5.52803455 175.116999,5.72574186 175.498567,5.9951221 C175.880134,6.26450235 176.170021,6.62778952 176.368238,7.08499452 C176.566455,7.54219952 176.665562,8.08960163 176.665562,8.72721725 C176.665562,9.00401163 176.655651,9.25114576 176.635829,9.46862706 C176.616008,9.68610836 176.570171,9.93447816 176.498317,10.2137439 C176.426464,10.4930097 176.328596,10.7401438 176.20471,10.9551537 C176.080825,11.1701636 175.902432,11.3814633 175.669528,11.5890591 C175.436623,11.7966549 175.161601,11.9696488 174.844455,12.108046 C175.647232,14.648623 176.345936,16.7986899 176.940586,18.5583113 L174.138311,18.5583113 L172.607094,12.412024 L172.161109,12.412024 L172.161109,18.5583113 L169.455464,18.5583113 Z M177.795392,18.5583113 L177.795392,5.21293475 L180.501036,5.21293475 L180.501036,10.2767638 L182.597168,5.21293475 L185.622436,5.21293475 L182.894492,10.677125 L185.823129,18.5583113 L183.013421,18.5583113 L180.99162,12.4565086 L180.501036,13.7169053 L180.501036,18.5583113 L177.795392,18.5583113 Z M188.922728,14.7400508 L191.665538,14.2136498 C191.665538,14.4855015 191.670493,14.7252216 191.680404,14.9328174 C191.690315,15.1404131 191.716331,15.3665409 191.758452,15.6112073 C191.800573,15.8558738 191.857559,16.0560524 191.929413,16.2117493 C192.001266,16.3674461 192.102851,16.4984272 192.23417,16.6046965 C192.365488,16.7109657 192.520343,16.7640996 192.698738,16.7640996 C193.233923,16.7640996 193.501511,16.4230545 193.501511,15.7409541 C193.501511,14.806773 192.973767,13.8775487 191.918263,12.9532532 L191.078324,12.2414997 C190.810731,12.0190757 190.597652,11.8337251 190.439078,11.6854424 C190.280505,11.5371597 190.093441,11.336981 189.87788,11.0849004 C189.662319,10.8328198 189.493837,10.5893927 189.37243,10.3546118 C189.251022,10.1198308 189.14696,9.83686225 189.06024,9.50569755 C188.97352,9.17453285 188.930161,8.82360238 188.930161,8.45289562 C188.930161,7.37043189 189.274557,6.51411212 189.96336,5.88391063 C190.652164,5.25370914 191.566425,4.93861312 192.706171,4.93861312 C193.652656,4.93861312 194.457899,5.27471554 195.121925,5.94693046 C195.785951,6.61914539 196.117959,7.42974534 196.117959,8.37875464 L196.110526,8.47513791 L196.110526,8.69756086 L193.315684,9.08309396 C193.315684,9.02872363 193.319401,8.94346236 193.326834,8.82730757 C193.334267,8.71115279 193.337983,8.61600615 193.337983,8.5418648 C193.337983,8.36392555 193.325595,8.193403 193.300818,8.03029203 C193.276041,7.86718105 193.235159,7.70407253 193.178172,7.54096155 C193.121185,7.37785058 193.033227,7.24810516 192.914297,7.1517214 C192.795367,7.05533765 192.651662,7.00714649 192.483178,7.00714649 C192.185853,7.00714649 191.962862,7.12329953 191.8142,7.3556091 C191.665537,7.58791867 191.591207,7.86223756 191.591207,8.17857399 C191.591207,8.45536837 191.634566,8.71485921 191.721286,8.95705429 C191.808006,9.19924937 191.939323,9.4253771 192.11524,9.63544427 C192.291157,9.84551143 192.453445,10.019741 192.602107,10.1581382 C192.75077,10.2965354 192.948984,10.4658223 193.196755,10.6660039 C193.444526,10.8661856 193.62044,11.0132304 193.724504,11.1071427 C194.106071,11.4432502 194.428169,11.7583462 194.690806,12.0524402 C194.953443,12.3465343 195.20121,12.6789297 195.434115,13.0496364 C195.66702,13.4203432 195.841695,13.8207005 195.958148,14.2507203 C196.0746,14.6807402 196.132825,15.1453523 196.132825,15.6445708 C196.132825,16.5787518 195.79834,17.3436319 195.129358,17.9392341 C194.460377,18.5348363 193.6477,18.832633 192.691305,18.832633 C192.071877,18.832633 191.521834,18.7189513 191.041159,18.4915844 C190.560483,18.2642176 190.172727,17.9553 189.87788,17.5648222 C189.583032,17.1743444 189.356326,16.7418597 189.197752,16.267355 C189.039179,15.7928504 188.947505,15.2837541 188.922728,14.7400508 L188.922728,14.7400508 Z M197.039662,14.1024384 L197.039662,9.6836359 C197.039662,6.53015708 198.333007,4.95344132 200.919736,4.95344132 C201.464832,4.95344132 201.949216,5.02634589 202.372905,5.17215721 C202.796593,5.31796854 203.152139,5.51938285 203.439553,5.77640621 C203.726967,6.03342956 203.963585,6.34976125 204.149413,6.72541076 C204.335242,7.10106028 204.469036,7.5088316 204.5508,7.94873695 C204.632565,8.3886423 204.673446,8.8730252 204.673446,9.40190018 L204.673446,10.5510854 L202.0124,10.5510854 L202.0124,9.3203451 C202.0124,9.07815002 202.007445,8.86932167 201.997534,8.69385381 C201.987623,8.51838594 201.961607,8.3182073 201.919486,8.09331186 C201.877365,7.86841643 201.820379,7.68553717 201.748525,7.5446686 C201.676672,7.40380003 201.570132,7.28393998 201.428902,7.18508485 C201.287673,7.08622971 201.117952,7.03680288 200.919736,7.03680288 C200.136779,7.03680288 199.745307,7.69417967 199.745307,9.00895298 L199.745307,14.7697072 C199.745307,16.0795377 200.136779,16.7344432 200.919736,16.7344432 C201.15264,16.7344432 201.348376,16.667717 201.50695,16.5342625 C201.665523,16.4008081 201.779496,16.2117505 201.848872,15.967084 C201.918248,15.7224176 201.965324,15.4826975 201.990101,15.2479165 C202.014878,15.0131356 202.027266,14.744995 202.027266,14.4434869 L202.027266,13.0718787 L204.673446,13.0718787 L204.673446,14.1988216 C204.663535,14.7079256 204.621415,15.1774804 204.547084,15.6075003 C204.472752,16.0375201 204.346391,16.4551768 204.167996,16.8604829 C203.989601,17.2657889 203.762894,17.6080697 203.487868,17.8873354 C203.212843,18.1666012 202.857297,18.3914933 202.42122,18.5620184 C201.985143,18.7325435 201.484653,18.8178048 200.919736,18.8178048 C200.339952,18.8178048 199.825835,18.7350148 199.377369,18.5694325 C198.928904,18.4038501 198.559731,18.1814294 198.269839,17.9021636 C197.979947,17.6228979 197.740852,17.2793814 197.552546,16.871604 C197.36424,16.4638266 197.231684,16.0350489 197.154875,15.585258 C197.078066,15.1354671 197.039662,14.6411989 197.039662,14.1024384 L197.039662,14.1024384 Z M205.937072,18.5583113 L205.937072,5.21293475 L208.642716,5.21293475 L208.642716,10.6845391 L210.582753,10.6845391 L210.582753,5.21293475 L213.303264,5.21293475 L213.303264,18.5583113 L210.582753,18.5583113 L210.582753,12.6047906 L208.642716,12.6047906 L208.642716,18.5583113 L205.937072,18.5583113 Z M214.722984,14.1691653 L214.722984,9.6836359 C214.722984,6.53015708 216.02624,4.95344132 218.63279,4.95344132 C221.244295,4.95344132 222.550028,6.53015708 222.550028,9.6836359 L222.550028,14.1024384 C222.550028,14.6362561 222.510386,15.1292887 222.431099,15.5815509 C222.351812,16.0338132 222.216779,16.4625909 222.025996,16.867897 C221.835212,17.273203 221.5924,17.6179551 221.297553,17.9021636 C221.002705,18.1863722 220.629816,18.4100285 220.178873,18.5731395 C219.72793,18.7362505 219.212574,18.8178048 218.63279,18.8178048 C218.057961,18.8178048 217.545083,18.7374862 217.09414,18.5768466 C216.643197,18.416207 216.271546,18.1987289 215.979177,17.9244059 C215.686807,17.6500829 215.445234,17.3139805 215.25445,16.9160886 C215.063667,16.5181967 214.927395,16.0943616 214.84563,15.6445708 C214.763866,15.1947799 214.722984,14.702983 214.722984,14.1691653 L214.722984,14.1691653 Z M219.844384,14.7771213 L219.844384,9.00895298 C219.844384,7.69417967 219.440523,7.03680288 218.63279,7.03680288 C218.389974,7.03680288 218.184328,7.09735075 218.015843,7.21844829 C217.847359,7.33954583 217.723476,7.5051257 217.644189,7.71519286 C217.564902,7.92526002 217.509155,8.13285269 217.476944,8.3379771 C217.444734,8.54310151 217.428629,8.7667579 217.428629,9.00895298 L217.428629,14.7771213 C217.428629,16.0869518 217.830012,16.7418573 218.63279,16.7418573 C219.440523,16.7418573 219.844384,16.0869518 219.844384,14.7771213 L219.844384,14.7771213 Z M223.798788,14.1691653 L223.798788,9.6836359 C223.798788,6.53015708 225.102043,4.95344132 227.708593,4.95344132 C230.320099,4.95344132 231.625832,6.53015708 231.625832,9.6836359 L231.625832,14.1024384 C231.625832,14.6362561 231.586189,15.1292887 231.506902,15.5815509 C231.427616,16.0338132 231.292583,16.4625909 231.101799,16.867897 C230.911015,17.273203 230.668203,17.6179551 230.373356,17.9021636 C230.078509,18.1863722 229.705619,18.4100285 229.254676,18.5731395 C228.803733,18.7362505 228.288377,18.8178048 227.708593,18.8178048 C227.133765,18.8178048 226.620887,18.7374862 226.169943,18.5768466 C225.719,18.416207 225.34735,18.1987289 225.05498,17.9244059 C224.76261,17.6500829 224.521037,17.3139805 224.330254,16.9160886 C224.13947,16.5181967 224.003198,16.0943616 223.921434,15.6445708 C223.839669,15.1947799 223.798788,14.702983 223.798788,14.1691653 L223.798788,14.1691653 Z M228.920187,14.7771213 L228.920187,9.00895298 C228.920187,7.69417967 228.516326,7.03680288 227.708593,7.03680288 C227.465778,7.03680288 227.260131,7.09735075 227.091647,7.21844829 C226.923162,7.33954583 226.799279,7.5051257 226.719992,7.71519286 C226.640705,7.92526002 226.584958,8.13285269 226.552748,8.3379771 C226.520537,8.54310151 226.504433,8.7667579 226.504433,9.00895298 L226.504433,14.7771213 C226.504433,16.0869518 226.905815,16.7418573 227.708593,16.7418573 C228.516326,16.7418573 228.920187,16.0869518 228.920187,14.7771213 L228.920187,14.7771213 Z M233.045552,18.5583113 L233.045552,5.20552065 L234.993022,5.20552065 L237.929092,12.1896011 L237.929092,5.20552065 L240.173886,5.20552065 L240.173886,18.5583113 L238.300747,18.5583113 L235.372109,11.1516273 L235.372109,18.5583113 L233.045552,18.5583113 Z M241.764567,18.5583113 L241.764567,5.21293475 L245.005394,5.21293475 L246.432548,14.1098525 L247.971197,5.21293475 L251.100528,5.21293475 L251.100528,18.5583113 L249.10846,18.5583113 L249.048996,9.17206314 C248.900333,10.1359007 248.640177,11.7002598 248.268521,13.8651872 C247.896865,16.0301147 247.636709,17.5944738 247.488047,18.5583113 L245.466246,18.5583113 L243.823533,9.11275035 L243.764068,18.5583113 L241.764567,18.5583113 Z M255.352256,14.0431256 L256.734811,14.0431256 L256.0584,9.09050806 L255.352256,14.0431256 Z M251.962767,18.5583113 L254.854239,5.21293475 L257.247694,5.21293475 L260.131733,18.5583113 L257.463254,18.5583113 L256.913205,15.7038836 L255.166429,15.7038836 L254.646113,18.5583113 L251.962767,18.5583113 Z M260.993972,18.5583113 L260.993972,5.21293475 L263.699617,5.21293475 L263.699617,10.2767638 L265.795748,5.21293475 L268.821016,5.21293475 L266.093072,10.677125 L269.021709,18.5583113 L266.212001,18.5583113 L264.190201,12.4565086 L263.699617,13.7169053 L263.699617,18.5583113 L260.993972,18.5583113 Z M269.534593,18.5583113 L269.534593,5.21293475 L275.116843,5.21293475 L275.116843,7.06645928 L272.240237,7.06645928 L272.240237,10.6993673 L274.276904,10.6993673 L274.276904,12.5973765 L272.240237,12.5973765 L272.240237,16.7047868 L275.116843,16.7047868 L275.116843,18.5583113 L269.534593,18.5583113 Z M276.083145,18.5583113 L276.083145,5.20552065 L278.030615,5.20552065 L280.966685,12.1896011 L280.966685,5.20552065 L283.211479,5.20552065 L283.211479,18.5583113 L281.33834,18.5583113 L278.409702,11.1516273 L278.409702,18.5583113 L276.083145,18.5583113 Z" id="SAMEN-HET-PARK-SCHOO" fill="#60CDA2"></path>
                <path d="M85.8309576,36.273063 L338.010448,36.273063" id="Line-Copy" stroke="#E4E4E4" stroke-width="8" stroke-linecap="square"></path>
                <path d="M85.8309576,53.1442552 L314.175493,53.1442552" id="Line-Copy-2" stroke="#E4E4E4" stroke-width="8" stroke-linecap="square"></path>
                <rect id="Rectangle-4-Copy" fill="#F4F4F4" x="0" y="0" width="66.8119196" height="63.2669704"></rect>
                <g id="Page-1">
                    <mask id="mask-6" fill="white">
                        <use xlink:href="#path-5"></use>
                    </mask>
                    <use id="Mask" fill="#F4F4F4" xlink:href="#path-5"></use>
                    <g mask="url(#mask-6)">
                        <g transform="translate(-8.457205, 0.000000)">
                            <polygon id="Fill-1" fill="#B6E9F3" points="5.07432301 42.1779803 76.9605656 42.1779803 76.9605656 0 5.07432301 0"></polygon>
                            <polygon id="Fill-2" fill="#7AC043" points="5.07432301 71.7025665 76.9605656 71.7025665 76.9605656 41.3344207 5.07432301 41.3344207"></polygon>
                            <g id="Group-41" stroke-width="1" fill="none">
                                <g id="Group-5" transform="translate(59.811233, 2.182252)">
                                    <mask id="mask-8" fill="white">
                                        <use xlink:href="#path-7"></use>
                                    </mask>
                                    <g id="Clip-4"></g>
                                    <path d="M20.4694187,5.70375211 C19.6575599,5.70375211 18.9303812,6.06039445 18.4374108,6.62341547 C18.2412929,4.99639071 16.8439136,3.73536079 15.1487373,3.73536079 C14.6179913,3.73536079 14.1168361,3.8594374 13.672659,4.07890961 C13.4740228,1.80625 11.5493603,0.0224148458 9.20318594,0.0224148458 C6.72479731,0.0224148458 4.71576946,2.01200519 4.71576946,4.46641522 C4.71576946,4.54123529 4.71797304,4.6151201 4.72143579,4.68869317 C4.34966176,4.54559979 3.94577854,4.46641522 3.52300756,4.46641522 C1.69309861,4.46641522 0.209780031,5.93569433 0.209780031,7.74821051 C0.209780031,9.56010319 1.69309861,11.0293823 3.52300756,11.0293823 L20.4694187,11.0293823 C21.9543113,11.0293823 23.158091,9.8372492 23.158091,8.36641133 C23.158091,6.89588522 21.9543113,5.70375211 20.4694187,5.70375211" id="Fill-3" fill="#F9F9F9" mask="url(#mask-8)"></path>
                                </g>
                                <path d="M58.719269,17.174417 C58.1507475,17.174417 57.6414076,17.4241289 57.2960764,17.818493 C57.1588254,16.6793575 56.1804395,15.7958572 54.9930292,15.7958572 C54.6212551,15.7958572 54.2705724,15.8828355 53.959554,16.0365284 C53.8200994,14.4450432 52.4724579,13.1958598 50.8295377,13.1958598 C49.0937528,13.1958598 47.6866148,14.5890718 47.6866148,16.3080629 C47.6866148,16.3601252 47.6881888,16.4121875 47.6907072,16.4636263 C47.4303709,16.3632427 47.1473693,16.3080629 46.8514611,16.3080629 C45.5699268,16.3080629 44.5311001,17.3368389 44.5311001,18.606286 C44.5311001,19.8751097 45.5699268,20.9041974 46.8514611,20.9041974 L58.719269,20.9041974 C59.7593549,20.9041974 60.6020637,20.0693301 60.6020637,19.0389954 C60.6020637,18.0092842 59.7593549,17.174417 58.719269,17.174417" id="Fill-6" fill="#F9F9F9"></path>
                                <path d="M54.9079083,41.6186636 C54.9079083,41.6186636 42.315755,51.3867354 42.315755,71.7025665 L25.5267418,71.7025665 C25.5267418,71.7025665 31.1930692,48.5809828 46.5132444,41.6186636 L54.9079083,41.6186636 Z" id="Fill-8" fill="#FBE88C"></path>
                                <path d="M43.0766168,10.828771 C43.0766168,15.6281667 39.1479632,19.5188103 34.3016793,19.5188103 C29.4553954,19.5188103 25.5267418,15.6281667 25.5267418,10.828771 C25.5267418,6.02937529 29.4553954,2.13873168 34.3016793,2.13873168 C39.1479632,2.13873168 43.0766168,6.02937529 43.0766168,10.828771" id="Fill-10" fill="#F3C653"></path>
                                <path d="M19.0838757,12.5299923 C18.3947874,12.5299923 17.7777873,12.8327019 17.3591087,13.310615 C17.1925816,11.929873 16.00706,10.8593225 14.5678128,10.8593225 C14.1176546,10.8593225 13.6923653,10.9646941 13.3155545,11.1511208 C13.1468239,9.22201 11.5130328,7.7081506 9.52194833,7.7081506 C7.4181669,7.7081506 5.71291716,9.39690191 5.71291716,11.4797056 C5.71291716,11.5429909 5.71512073,11.6059645 5.7179539,11.6686263 C5.40252834,11.5470437 5.05971554,11.4797056 4.70116293,11.4797056 C3.14764485,11.4797056 1.88877579,12.7270185 1.88877579,14.2648827 C1.88877579,15.8030586 3.14764485,17.0500598 4.70116293,17.0500598 L19.0838757,17.0500598 C20.344004,17.0500598 21.3658317,16.0381183 21.3658317,14.7898702 C21.3658317,13.5419338 20.344004,12.5299923 19.0838757,12.5299923" id="Fill-12" fill="#F9F9F9"></path>
                                <mask id="mask-10" fill="white">
                                    <use xlink:href="#path-9"></use>
                                </mask>
                                <g id="Clip-15"></g>
                                <polygon id="Fill-14" fill="#A0737E" mask="url(#mask-10)" points="39.4703772 44.5313465 40.9643988 44.5313465 40.9643988 39.072599 39.4703772 39.072599"></polygon>
                                <polygon id="Fill-16" fill="#88515E" mask="url(#mask-10)" points="39.4703772 44.5313465 40.217388 44.5313465 40.217388 39.072599 39.4703772 39.072599"></polygon>
                                <path d="M44.4775218,35.0090275 C44.4775218,37.3390492 42.5701731,39.2279442 40.217388,39.2279442 C37.8642882,39.2279442 35.9572542,37.3390492 35.9572542,35.0090275 C35.9572542,32.6790058 37.8642882,30.7901108 40.217388,30.7901108 C42.5701731,30.7901108 44.4775218,32.6790058 44.4775218,35.0090275" id="Fill-17" fill="#A8D27C" mask="url(#mask-10)"></path>
                                <path d="M40.2173251,39.2280065 C37.8642252,39.2280065 35.9571913,37.3391115 35.9571913,35.0090898 C35.9571913,32.6790682 37.8642252,30.7901732 40.2173251,30.7901732 L40.2173251,39.2280065 Z" id="Fill-18" fill="#92C75B" mask="url(#mask-10)"></path>
                                <path d="M63.3634539,48.3499135 C63.3634539,48.8028867 61.4029046,49.1701285 58.9843272,49.1701285 C56.5660646,49.1701285 54.6055153,48.8028867 54.6055153,48.3499135 C54.6055153,47.8969403 56.5660646,47.5296985 58.9843272,47.5296985 C61.4029046,47.5296985 63.3634539,47.8969403 63.3634539,48.3499135" id="Fill-19" fill="#A8D27C" mask="url(#mask-10)"></path>
                                <path d="M78.1779093,55.3183118 C78.1779093,55.771285 76.2173601,56.1385268 73.7987827,56.1385268 C71.3805201,56.1385268 69.4199708,55.771285 69.4199708,55.3183118 C69.4199708,54.8653387 71.3805201,54.4980968 73.7987827,54.4980968 C76.2173601,54.4980968 78.1779093,54.8653387 78.1779093,55.3183118" id="Fill-20" fill="#A8D27C" mask="url(#mask-10)"></path>
                                <path d="M64.9810959,62.3500578 C64.9810959,62.803031 63.0205466,63.1702728 60.6019692,63.1702728 C58.1837066,63.1702728 56.2231574,62.803031 56.2231574,62.3500578 C56.2231574,61.8970846 58.1837066,61.5298428 60.6019692,61.5298428 C63.0205466,61.5298428 64.9810959,61.8970846 64.9810959,62.3500578" id="Fill-21" fill="#A8D27C" mask="url(#mask-10)"></path>
                                <path d="M14.5328705,63.1702417 C14.5328705,63.6232148 12.5723212,63.9904567 10.1537438,63.9904567 C7.73548123,63.9904567 5.77493197,63.6232148 5.77493197,63.1702417 C5.77493197,62.7172685 7.73548123,62.3500266 10.1537438,62.3500266 C12.5723212,62.3500266 14.5328705,62.7172685 14.5328705,63.1702417" id="Fill-22" fill="#A8D27C" mask="url(#mask-10)"></path>
                                <path d="M25.5267418,49.1700973 C25.5267418,49.6230705 23.5661925,49.9903123 21.1476151,49.9903123 C18.7293525,49.9903123 16.7688033,49.6230705 16.7688033,49.1700973 C16.7688033,48.7171242 18.7293525,48.3498823 21.1476151,48.3498823 C23.5661925,48.3498823 25.5267418,48.7171242 25.5267418,49.1700973" id="Fill-23" fill="#A8D27C" mask="url(#mask-10)"></path>
                                <path d="M11.3587828,44.020419 C11.3587828,44.4733922 9.39823352,44.840634 6.97965612,44.840634 C4.56139352,44.840634 2.60084426,44.4733922 2.60084426,44.020419 C2.60084426,43.5674458 4.56139352,43.200204 6.97965612,43.200204 C9.39823352,43.200204 11.3587828,43.5674458 11.3587828,44.020419" id="Fill-24" fill="#A8D27C" mask="url(#mask-10)"></path>
                                <polygon id="Fill-25" fill="#A0737E" mask="url(#mask-10)" points="27.803724 51.7025384 31.3939719 51.7025384 31.3939719 38.585645 27.803724 38.585645"></polygon>
                                <polygon id="Fill-26" fill="#88515E" mask="url(#mask-10)" points="27.8034092 51.7025384 29.5986906 51.7025384 29.5986906 38.585645 27.8034092 38.585645"></polygon>
                                <path d="M33.6469037,29.7471814 C33.5647419,29.7471814 33.4832098,29.7496754 33.4023072,29.7531047 C32.8274898,28.257015 31.5887677,27.0851457 30.0421751,26.5925802 C29.5265393,26.4282878 28.9769056,26.3397508 28.4058657,26.3397508 C25.9536051,26.3397508 23.8885436,27.9767515 23.2598961,30.2067013 C20.6300906,30.8386192 18.6767816,33.1845401 18.6767816,35.9831224 C18.6767816,39.2664765 21.3641948,41.9282005 24.6802554,41.9282005 C26.9127884,41.9282005 28.8594867,40.7198563 29.8935914,38.9288509 C30.8650518,39.8603608 32.1878244,40.4349166 33.6469037,40.4349166 C36.6270771,40.4349166 39.0434509,38.0425449 39.0434509,35.0912049 C39.0434509,32.1398649 36.6270771,29.7471814 33.6469037,29.7471814" id="Fill-27" fill="#90BD5D" mask="url(#mask-10)"></path>
                                <path d="M29.8936229,38.9289133 C28.8595181,40.7199187 26.9128199,41.9282628 24.6799721,41.9282628 C21.3642262,41.9282628 18.6768131,39.2665388 18.6768131,35.9831848 C18.6768131,33.1846024 20.630122,30.8386815 23.2599275,30.2067637 C23.8885751,27.9768139 25.9533218,26.3398131 28.4055824,26.3398131 C28.976937,26.3398131 29.5265708,26.4283502 30.0422066,26.5926426 L29.8936229,38.9289133 Z" id="Fill-28" fill="#74AD32" mask="url(#mask-10)"></path>
                                <polygon id="Fill-29" fill="#A0737E" mask="url(#mask-10)" points="9.36706872 58.8425553 13.3508116 58.8425553 13.3508116 44.2881813 9.36706872 44.2881813"></polygon>
                                <polygon id="Fill-30" fill="#88515E" mask="url(#mask-10)" points="9.36706872 58.8425553 11.3590976 58.8425553 11.3590976 44.2881813 9.36706872 44.2881813"></polygon>
                                <path d="M22.7178804,33.4536429 C22.7178804,39.6662027 17.6323516,44.7025286 11.3590976,44.7025286 C5.0855288,44.7025286 0,39.6662027 0,33.4536429 C0,27.2407714 5.0855288,22.2044455 11.3590976,22.2044455 C17.6323516,22.2044455 22.7178804,27.2407714 22.7178804,33.4536429" id="Fill-31" fill="#A8D27C" mask="url(#mask-10)"></path>
                                <path d="M11.3590976,44.7025286 C5.0855288,44.7025286 0,39.6662027 0,33.4536429 C0,27.2407714 5.0855288,22.2044455 11.3590976,22.2044455 L11.3590976,44.7025286 Z" id="Fill-32" fill="#92C75B" mask="url(#mask-10)"></path>
                                <polygon id="Fill-33" fill="#A0737E" mask="url(#mask-10)" points="69.9917347 50.7513883 72.9986658 50.7513883 72.9986658 39.7668669 69.9917347 39.7668669"></polygon>
                                <polygon id="Fill-34" fill="#88515E" mask="url(#mask-10)" points="69.9917347 50.7513883 71.4952002 50.7513883 71.4952002 39.7668669 69.9917347 39.7668669"></polygon>
                                <path d="M63.2315543,25.8518304 C63.2315543,34.1490643 66.9313513,40.8750768 71.4949484,40.8750768 C76.0585455,40.8750768 79.7583425,34.1490643 79.7583425,25.8518304 C79.7583425,17.5545964 76.0585455,10.8288957 71.4949484,10.8288957 C66.9313513,10.8288957 63.2315543,17.5545964 63.2315543,25.8518304" id="Fill-35" fill="#A8D27C" mask="url(#mask-10)"></path>
                                <path d="M71.4949484,40.8750456 C66.9313513,40.8750456 63.2315543,34.1490331 63.2315543,25.8517992 C63.2315543,17.5545653 66.9313513,10.8288645 71.4949484,10.8288645 L71.4949484,40.8750456 Z" id="Fill-36" fill="#92C75B" mask="url(#mask-10)"></path>
                                <polygon id="Fill-37" fill="#A0737E" mask="url(#mask-10)" points="57.7316911 53.2048631 61.3219391 53.2048631 61.3219391 40.0879697 57.7316911 40.0879697"></polygon>
                                <polygon id="Fill-38" fill="#88515E" mask="url(#mask-10)" points="57.7316911 53.2048631 59.5269725 53.2048631 59.5269725 40.0879697 57.7316911 40.0879697"></polygon>
                                <path d="M63.5749653,31.2494749 C63.4928035,31.2494749 63.4112714,31.2519689 63.3303688,31.2553981 C62.7555514,29.7593085 61.5168292,28.5874392 59.9702367,28.0948737 C59.4546009,27.9305813 58.9049671,27.8420442 58.3339273,27.8420442 C55.8816667,27.8420442 53.8166052,29.479045 53.1879576,31.7089948 C50.5581521,32.3409126 48.6048432,34.6868336 48.6048432,37.4854159 C48.6048432,40.76877 51.2922563,43.4304939 54.608317,43.4304939 C56.84085,43.4304939 58.7875482,42.2221498 59.821653,40.4311444 C60.7931133,41.3626543 62.115886,41.93721 63.5749653,41.93721 C66.5551387,41.93721 68.9715125,39.5448383 68.9715125,36.5934983 C68.9715125,33.6421583 66.5551387,31.2494749 63.5749653,31.2494749" id="Fill-39" fill="#90BD5D" mask="url(#mask-10)"></path>
                                <path d="M59.8216845,40.4311756 C58.7875797,42.222181 56.8408815,43.4305251 54.6080337,43.4305251 C51.2922878,43.4305251 48.6048747,40.7688011 48.6048747,37.4854471 C48.6048747,34.6868647 50.5581836,32.3409438 53.1879891,31.709026 C53.8166366,29.4790762 55.8813834,27.8420754 58.3336439,27.8420754 C58.9049986,27.8420754 59.4546324,27.9306125 59.9702682,28.0949049 L59.8216845,40.4311756 Z" id="Fill-40" fill="#74AD32" mask="url(#mask-10)"></path>
                            </g>
                        </g>
                    </g>
                </g>
            </g>
            <g id="BRON-Copy" stroke-width="1" fill="none" transform="translate(0.000000, 105.444951)">
                <g id="Page-1">
                    <mask id="mask-12" fill="white">
                        <use xlink:href="#path-11"></use>
                    </mask>
                    <use id="Mask" fill="#F4F4F4" xlink:href="#path-11"></use>
                    <g mask="url(#mask-12)">
                        <g transform="translate(-0.845721, -0.843560)">
                            <polygon id="Fill-1" fill="#ECA159" points="0 40.4908611 69.3490811 40.4908611 69.3490811 0 0 0"></polygon>
                            <g id="Group-24" stroke-width="1" fill="none">
                                <path d="M42.8773609,40.8497398 L42.7651963,40.8027598 L41.5850559,40.3062866 L44.3644464,33.6290558 C44.3644464,33.6290558 44.6089773,33.0416535 45.2503056,32.8334258 C45.2503056,32.8334258 45.7279097,32.7024878 45.9911347,32.069924 L46.7398032,30.3665178 L46.6608056,30.3334803 L46.7976946,30.0061353 L46.8987031,30.0485689 L47.0111692,29.7772969 L47.415806,29.9473345 L42.8773609,40.8497398 L42.8773609,40.8497398 Z" id="Fill-2" fill="#1F5643"></path>
                                <path d="M47.3821566,29.9333617 L47.4385405,29.9570033 L47.8431773,30.1273439 L47.7301081,30.3983127 L47.8311166,30.4410494 L47.6948305,30.7683944 L47.6164359,30.7353568 L46.9353073,32.466951 C46.6717808,33.0995148 46.9138996,33.5335499 46.9138996,33.5335499 C47.2169249,34.138835 46.972394,34.7262373 46.972394,34.7262373 L44.1927019,41.4031649 L42.8440131,40.835767" id="Fill-4" fill="#19402F"></path>
                                <mask id="mask-14" fill="white">
                                    <use xlink:href="#path-13"></use>
                                </mask>
                                <g id="Clip-7"></g>
                                <polygon id="Fill-6" fill="#B57536" mask="url(#mask-14)" points="0 69.7397384 69.3490811 69.7397384 69.3490811 40.4908611 0 40.4908611"></polygon>
                                <path d="M54.2313734,43.1929841 C53.7480405,40.8561049 51.878932,39.1120837 49.6416703,39.1120837 C48.7449565,39.1120837 47.9106569,39.396692 47.1960599,39.8822536 C46.5483998,37.837257 44.8080393,36.3696605 42.7568141,36.3696605 C40.6564415,36.3696605 38.8777884,37.9063632 38.2687225,40.0280434 C37.5493012,39.5312671 36.7050515,39.2393845 35.7971816,39.2393845 C33.8382208,39.2393845 32.1596715,40.5751338 31.4471851,42.4755531 C30.7132909,41.9487702 29.8419046,41.639308 28.9044859,41.639308 C26.6590833,41.639308 24.7839445,43.3948468 24.3087525,45.744153 L23.1635881,46.0084537 L23.1635881,53.8911019 L59.3704418,53.8911019 C59.2528499,46.0599802 55.7531335,43.8052404 54.2313734,43.1929841" id="Fill-8" fill="#8B3B1F" mask="url(#mask-14)"></path>
                                <path d="M42.6818267,53.8912232 L59.3705323,53.8912232 C59.2529404,46.0604046 55.7532239,43.8050585 54.2314639,43.1937115 C53.7481309,40.8565292 51.8790224,39.1119019 49.6417608,39.1119019 C48.7447455,39.1119019 47.9107474,39.3968132 47.1961503,39.882678 C46.5481887,37.8376813 44.8081298,36.3697817 42.7569046,36.3697817" id="Fill-9" fill="#682E13" mask="url(#mask-14)"></path>
                                <polygon id="Fill-10" fill="#B57536" mask="url(#mask-14)" points="28.2154274 13.6026981 69.3490811 13.6026981 69.3490811 12.6934066 28.2154274 12.6934066"></polygon>
                                <polygon id="Fill-11" fill="#B57536" mask="url(#mask-14)" points="35.5350722 22.3458392 69.3490811 22.3458392 69.3490811 21.4365477 35.5350722 21.4365477"></polygon>
                                <polygon id="Fill-12" fill="#B57536" mask="url(#mask-14)" points="46.2636766 21.8911934 47.1682298 21.8911934 47.1682298 13.6260366 46.2636766 13.6260366"></polygon>
                                <polygon id="Fill-13" fill="#B57536" mask="url(#mask-14)" points="62.0122498 21.8911934 62.9168031 21.8911934 62.9168031 13.6260366 62.0122498 13.6260366"></polygon>
                                <polygon id="Fill-14" fill="#B57536" mask="url(#mask-14)" points="53.9177045 12.5085173 54.8222577 12.5085173 54.8222577 4.24336044 53.9177045 4.24336044"></polygon>
                                <polygon id="Fill-15" fill="#B57536" mask="url(#mask-14)" points="44.8257384 4.24336044 45.7302917 4.24336044 45.7302917 0.297338328 44.8257384 0.297338328"></polygon>
                                <polygon id="Fill-16" fill="#B57536" mask="url(#mask-14)" points="62.7660442 4.24336044 63.6705974 4.24336044 63.6705974 0.297338328 62.7660442 0.297338328"></polygon>
                                <polygon id="Fill-17" fill="#B57536" mask="url(#mask-14)" points="37.7132364 4.6980062 69.3490811 4.6980062 69.3490811 3.78871468 37.7132364 3.78871468"></polygon>
                                <path d="M46.1160233,51.8849624 L46.0192361,51.9622521 L45.0004077,52.775765 L40.4456806,47.0123722 C40.4456806,47.0123722 40.0452651,46.5049875 40.1752192,45.8293839 C40.1752192,45.8293839 40.2931127,45.3371541 39.8613392,44.790973 L38.71919,43.2854893 L38.651047,43.3400468 L38.4276224,43.0569541 L38.5150625,42.9875448 L38.3305337,42.7535538 L38.6796912,42.4740982" id="Fill-18" fill="#1F5643" mask="url(#mask-14)"></path>
                                <path d="M38.6505043,42.4976792 L38.6987471,42.4588827 L39.0482062,42.1797302 L39.2333381,42.4140243 L39.3204767,42.344312 L39.5439014,42.6271016 L39.4760599,42.681356 L40.6767035,44.1404658 C41.1078739,44.6866469 41.6108055,44.6824036 41.6108055,44.6824036 C42.2958538,44.7081668 42.6968724,45.2152484 42.6968724,45.2152484 L47.2509964,50.9783381 L46.0871379,51.9082402" id="Fill-19" fill="#19402F" mask="url(#mask-14)"></path>
                                <path d="M56.6761999,48.7434511 C56.3520683,47.3319275 55.0968499,46.2786649 53.5940855,46.2786649 C52.9922561,46.2786649 52.4317346,46.450521 51.9523214,46.7436159 C51.5172313,45.508798 50.34885,44.6222388 48.9712154,44.6222388 C47.5607154,44.6222388 46.3667052,45.5503223 45.9572441,46.8318172 C45.4745142,46.531751 44.9073593,46.3556515 44.2976904,46.3556515 C42.98247,46.3556515 41.8550952,47.1621931 41.376888,48.3100221 C40.8839065,47.9917701 40.2989621,47.8047591 39.669393,47.8047591 C38.1615028,47.8047591 36.9023647,48.8652961 36.5833589,50.284094 L35.8144887,50.4435231 L35.8144887,55.2045735 L60.1270705,55.2045735 C60.0486758,50.4750452 57.698345,49.1132296 56.6761999,48.7434511" id="Fill-20" fill="#9F4324" mask="url(#mask-14)"></path>
                                <path d="M48.921254,55.2046948 L60.1271609,55.2046948 C60.0484648,50.4751665 57.698134,49.1130478 56.6762903,48.7438754 C56.3521588,47.3320488 55.0966389,46.2787861 53.594176,46.2787861 C52.9923465,46.2787861 52.431825,46.4506422 51.9524118,46.7440403 C51.5170202,45.5089193 50.348639,44.62236 48.9713059,44.62236" id="Fill-21" fill="#8E3C1D" mask="url(#mask-14)"></path>
                                <path d="M23.7715986,25.5501522 C22.2034048,25.4925637 22.8757894,26.9237886 21.7993711,27.1595982 C20.9044664,27.3550959 19.6962848,25.849006 18.8252,27.0159301 C16.9283519,29.5555814 23.5816425,30.0553886 20.2987173,32.6629336 C19.095963,33.6189021 17.4011317,34.0111098 15.995456,34.7018683 C13.8911637,35.7354296 12.3057834,38.7512465 11.4880673,40.8786856 C10.116463,44.444927 11.7546089,47.4619562 11.8954177,50.9060494 C11.959038,52.4494202 11.8399385,53.3332516 10.9320685,54.4501647 C10.0021878,55.5937503 9.42146464,56.7952275 10.1770681,58.2567621 C10.1770681,58.2567621 10.4945663,59.0878545 13.5634139,59.0878545 L23.8717025,59.0878545" id="Fill-22" fill="#2C4B5F" mask="url(#mask-14)"></path>
                                <path d="M23.7715986,25.5223279 C25.3394909,25.4644363 24.6674078,26.8959643 25.7438262,27.1317739 C26.6387309,27.3272716 27.8469125,25.8211817 28.7179972,26.9881058 C30.6148453,29.5274539 23.9615548,30.0275643 27.24448,32.6351093 C28.4472343,33.5910778 30.141764,33.9832855 31.5477412,34.674044 C33.6517321,35.7076053 35.2371124,38.7234222 36.05513,40.8505582 C37.4264327,44.4171026 35.7882868,47.4341319 35.647478,50.8782251 C35.5841593,52.4212928 35.7032588,53.3051242 36.6111287,54.4223404 C37.5407079,55.5656229 38.1217326,56.7674032 37.3661292,58.2286347 C37.3661292,58.2286347 37.048631,59.0600302 33.9794819,59.0600302 L23.6714947,59.0600302" id="Fill-23" fill="#112936" mask="url(#mask-14)"></path>
                            </g>
                        </g>
                    </g>
                </g>
                <path d="M82.8302293,16.0276325 L82.8302293,2.68225593 L85.5358742,2.68225593 L85.5358742,16.0276325 L82.8302293,16.0276325 Z M87.1265555,16.0276325 L87.1265555,2.68225593 L89.8322004,2.68225593 L89.8322004,14.174108 L92.4932467,14.174108 L92.4932467,16.0276325 L87.1265555,16.0276325 Z M93.3554852,16.0276325 L93.3554852,2.68225593 L96.0611301,2.68225593 L96.0611301,14.174108 L98.7221765,14.174108 L98.7221765,16.0276325 L93.3554852,16.0276325 Z M99.5844149,16.0276325 L99.5844149,2.68225593 L105.166666,2.68225593 L105.166666,4.53578046 L102.29006,4.53578046 L102.29006,8.16868853 L104.326727,8.16868853 L104.326727,10.0666976 L102.29006,10.0666976 L102.29006,14.174108 L105.166666,14.174108 L105.166666,16.0276325 L99.5844149,16.0276325 Z M105.962006,11.8534953 L105.962006,7.15295709 C105.962006,3.99947826 107.27765,2.4227625 109.908977,2.4227625 C110.463984,2.4227625 110.95828,2.49566707 111.391879,2.64147839 C111.825478,2.78728972 112.188457,2.98870404 112.480827,3.24572739 C112.773196,3.50275074 113.013531,3.81908243 113.201836,4.19473195 C113.390142,4.57038146 113.526414,4.97815278 113.610656,5.41805813 C113.694899,5.85796349 113.737019,6.34234638 113.737019,6.87122136 L113.737019,7.65711576 L111.150304,7.65711576 L111.150304,6.7229394 C111.150304,6.49062983 111.144109,6.28674417 111.131721,6.1112763 C111.119332,5.93580844 111.088361,5.74057247 111.038807,5.52556255 C110.989253,5.31055263 110.922356,5.13385173 110.838114,4.99545454 C110.753872,4.85705735 110.632466,4.74090431 110.473892,4.64699193 C110.315319,4.55307955 110.127016,4.50612407 109.908977,4.50612407 C109.081423,4.50612407 108.667651,5.16350086 108.667651,6.47827416 L108.667651,12.2390284 C108.667651,13.5488589 109.081423,14.2037644 109.908977,14.2037644 C110.731577,14.2037644 111.14287,13.5241455 111.14287,12.1648874 L111.14287,11.0972573 L109.611654,11.0972573 L109.611654,9.16217767 L113.848515,9.16217767 L113.848515,16.0276325 L111.990243,16.0276325 L111.648321,15.0934561 C111.420371,15.4493346 111.095796,15.7372459 110.674586,15.9571986 C110.253375,16.1771513 109.819783,16.2871259 109.373795,16.2871259 C108.893119,16.2871259 108.45581,16.1993933 108.061854,16.0239255 C107.667899,15.8484576 107.343324,15.6161515 107.08812,15.3270002 C106.832916,15.037849 106.618597,14.6980395 106.445157,14.3075618 C106.271718,13.917084 106.147834,13.5179623 106.073503,13.1101849 C105.999172,12.7024075 105.962006,12.2835151 105.962006,11.8534953 L105.962006,11.8534953 Z M117.99618,11.5124468 L119.378735,11.5124468 L118.702323,6.55982924 L117.99618,11.5124468 Z M114.606691,16.0276325 L117.498163,2.68225593 L119.891618,2.68225593 L122.775657,16.0276325 L120.107177,16.0276325 L119.557129,13.1732047 L117.810352,13.1732047 L117.290036,16.0276325 L114.606691,16.0276325 Z M126.298942,11.5124468 L127.681496,11.5124468 L127.005085,6.55982924 L126.298942,11.5124468 Z M122.909452,16.0276325 L125.800925,2.68225593 L128.19438,2.68225593 L131.078419,16.0276325 L128.409939,16.0276325 L127.859891,13.1732047 L126.113114,13.1732047 L125.592798,16.0276325 L122.909452,16.0276325 Z M131.940657,16.0276325 L131.940657,2.68225593 L134.646302,2.68225593 L134.646302,14.174108 L137.307348,14.174108 L137.307348,16.0276325 L131.940657,16.0276325 Z M143.8782,11.5124468 L145.260755,11.5124468 L144.584344,6.55982924 L143.8782,11.5124468 Z M140.488711,16.0276325 L143.380183,2.68225593 L145.773638,2.68225593 L148.657677,16.0276325 L145.989198,16.0276325 L145.439149,13.1732047 L143.692373,13.1732047 L143.172057,16.0276325 L140.488711,16.0276325 Z M149.519916,16.0276325 L149.519916,2.68225593 L155.102167,2.68225593 L155.102167,4.53578046 L152.225561,4.53578046 L152.225561,8.16868853 L154.262227,8.16868853 L154.262227,10.0666976 L152.225561,10.0666976 L152.225561,16.0276325 L149.519916,16.0276325 Z M157.636851,16.0276325 L155.176498,2.68225593 L157.740914,2.68225593 L158.922775,10.771037 L160.230999,2.68225593 L162.75825,2.68225593 L160.11207,16.0276325 L157.636851,16.0276325 Z M166.303834,11.5124468 L167.686389,11.5124468 L167.009977,6.55982924 L166.303834,11.5124468 Z M162.914345,16.0276325 L165.805817,2.68225593 L168.199272,2.68225593 L171.083311,16.0276325 L168.414832,16.0276325 L167.864783,13.1732047 L166.118007,13.1732047 L165.59769,16.0276325 L162.914345,16.0276325 Z M171.945549,16.0276325 L171.945549,2.68225593 L174.651194,2.68225593 L174.651194,14.174108 L177.312241,14.174108 L177.312241,16.0276325 L171.945549,16.0276325 Z M181.051085,11.8534953 L181.051085,7.15295709 C181.051085,3.99947826 182.366729,2.4227625 184.998056,2.4227625 C185.553063,2.4227625 186.047358,2.49566707 186.480958,2.64147839 C186.914557,2.78728972 187.277536,2.98870404 187.569905,3.24572739 C187.862275,3.50275074 188.102609,3.81908243 188.290915,4.19473195 C188.479221,4.57038146 188.615493,4.97815278 188.699735,5.41805813 C188.783977,5.85796349 188.826098,6.34234638 188.826098,6.87122136 L188.826098,7.65711576 L186.239382,7.65711576 L186.239382,6.7229394 C186.239382,6.49062983 186.233188,6.28674417 186.220799,6.1112763 C186.208411,5.93580844 186.17744,5.74057247 186.127886,5.52556255 C186.078332,5.31055263 186.011434,5.13385173 185.927192,4.99545454 C185.84295,4.85705735 185.721544,4.74090431 185.562971,4.64699193 C185.404398,4.55307955 185.216094,4.50612407 184.998056,4.50612407 C184.170501,4.50612407 183.75673,5.16350086 183.75673,6.47827416 L183.75673,12.2390284 C183.75673,13.5488589 184.170501,14.2037644 184.998056,14.2037644 C185.820656,14.2037644 186.231949,13.5241455 186.231949,12.1648874 L186.231949,11.0972573 L184.700732,11.0972573 L184.700732,9.16217767 L188.937594,9.16217767 L188.937594,16.0276325 L187.079321,16.0276325 L186.737399,15.0934561 C186.50945,15.4493346 186.184875,15.7372459 185.763664,15.9571986 C185.342454,16.1771513 184.908861,16.2871259 184.462874,16.2871259 C183.982198,16.2871259 183.544889,16.1993933 183.150933,16.0239255 C182.756977,15.8484576 182.432402,15.6161515 182.177198,15.3270002 C181.921994,15.037849 181.707676,14.6980395 181.534236,14.3075618 C181.360796,13.917084 181.236913,13.5179623 181.162581,13.1101849 C181.08825,12.7024075 181.051085,12.2835151 181.051085,11.8534953 L181.051085,11.8534953 Z M190.424212,16.0276325 L190.424212,2.68225593 L196.006463,2.68225593 L196.006463,4.53578046 L193.129857,4.53578046 L193.129857,8.16868853 L195.166524,8.16868853 L195.166524,10.0666976 L193.129857,10.0666976 L193.129857,14.174108 L196.006463,14.174108 L196.006463,16.0276325 L190.424212,16.0276325 Z M196.511913,12.209372 L199.254723,11.682971 C199.254723,11.9548226 199.259679,12.1945428 199.26959,12.4021385 C199.2795,12.6097343 199.305516,12.8358621 199.347637,13.0805285 C199.389758,13.325195 199.446744,13.5253736 199.518598,13.6810705 C199.590452,13.8367673 199.692036,13.9677484 199.823355,14.0740177 C199.954673,14.1802869 200.109528,14.2334208 200.287923,14.2334208 C200.823108,14.2334208 201.090697,13.8923757 201.090697,13.2102752 C201.090697,12.2760942 200.562953,11.3468699 199.507448,10.4225743 L198.667509,9.71082093 C198.399917,9.48839688 198.186837,9.30304628 198.028263,9.15476357 C197.86969,9.00648087 197.682626,8.80630222 197.467065,8.55422163 C197.251504,8.30214103 197.083023,8.05871391 196.961615,7.82393296 C196.840207,7.58915202 196.736145,7.30618344 196.649425,6.97501873 C196.562705,6.64385403 196.519346,6.29292356 196.519346,5.9222168 C196.519346,4.83975307 196.863743,3.9834333 197.552546,3.35323181 C198.241349,2.72303032 199.15561,2.4079343 200.295356,2.4079343 C201.241841,2.4079343 202.047084,2.74403672 202.71111,3.41625165 C203.375136,4.08846657 203.707144,4.89906652 203.707144,5.84807582 L203.699711,5.9444591 L203.699711,6.16688204 L200.904869,6.55241514 C200.904869,6.49804482 200.908586,6.41278354 200.916019,6.29662876 C200.923452,6.18047397 200.927169,6.08532733 200.927169,6.01118598 C200.927169,5.83324674 200.91478,5.66272418 200.890003,5.49961321 C200.865226,5.33650224 200.824345,5.17339371 200.767357,5.01028274 C200.71037,4.84717176 200.622413,4.71742634 200.503483,4.62104259 C200.384552,4.52465883 200.240848,4.47646767 200.072363,4.47646767 C199.775038,4.47646767 199.552048,4.59262072 199.403385,4.82493028 C199.254723,5.05723985 199.180392,5.33155874 199.180392,5.64789517 C199.180392,5.92468955 199.223752,6.18418039 199.310472,6.42637547 C199.397191,6.66857056 199.528508,6.89469829 199.704425,7.10476545 C199.880343,7.31483261 200.04263,7.48906218 200.191293,7.62745937 C200.339955,7.76585656 200.538169,7.93514344 200.78594,8.13532508 C201.033711,8.33550673 201.209626,8.48255154 201.313689,8.57646392 C201.695257,8.91257138 202.017354,9.2276674 202.279991,9.52176143 C202.542628,9.81585546 202.790395,10.1482509 203.0233,10.5189576 C203.256205,10.8896644 203.430881,11.2900217 203.547333,11.7200415 C203.663785,12.1500614 203.722011,12.6146735 203.722011,13.113892 C203.722011,14.048073 203.387525,14.8129531 202.718543,15.4085553 C202.049562,16.0041575 201.236886,16.3019541 200.28049,16.3019541 C199.661063,16.3019541 199.111019,16.1882724 198.630344,15.9609056 C198.149668,15.7335388 197.761913,15.4246212 197.467065,15.0341434 C197.172218,14.6436656 196.945511,14.2111808 196.786937,13.7366762 C196.628364,13.2621715 196.53669,12.7530752 196.511913,12.209372 L196.511913,12.209372 Z M207.527753,8.41335376 C207.67146,8.41335376 207.79906,8.40470407 207.910557,8.38740442 C208.022054,8.37010477 208.119922,8.35033404 208.204164,8.32809164 C208.288406,8.30584923 208.362736,8.2650721 208.427157,8.20575902 C208.491577,8.14644594 208.544847,8.09454777 208.586968,8.05006296 C208.629089,8.00557815 208.665016,7.93267358 208.694748,7.83134706 C208.724481,7.73002055 208.74678,7.64723061 208.761646,7.58297478 C208.776512,7.51871894 208.787662,7.4149226 208.795095,7.27158266 C208.802528,7.12824271 208.806244,7.01332534 208.806244,6.9268271 L208.806244,6.52275875 L208.806244,6.41154728 C208.806244,6.21877976 208.805006,6.07297063 208.802528,5.97411549 C208.80005,5.87526035 208.791378,5.74922195 208.776512,5.59599649 C208.761646,5.44277103 208.738108,5.32785365 208.705898,5.25124092 C208.673688,5.17462819 208.626612,5.08689558 208.564669,4.98804044 C208.502726,4.88918531 208.427157,4.81751641 208.33796,4.7730316 C208.248762,4.72854679 208.136028,4.68900533 207.999754,4.65440603 C207.86348,4.61980673 207.706148,4.60250734 207.527753,4.60250734 L207.527753,8.41335376 Z M204.799809,16.0276325 L204.799809,2.68225593 L208.033203,2.68225593 C209.197726,2.68225593 210.04509,3.00600165 210.57532,3.65350278 C211.10555,4.30100392 211.370661,5.23764228 211.370661,6.46344596 C211.370661,7.06646229 211.312435,7.59038665 211.195983,8.03523476 C211.079531,8.48008287 210.917243,8.84707706 210.709116,9.13622833 C210.500988,9.4253796 210.233399,9.65768568 209.906342,9.83315355 C209.579284,10.0086214 209.224977,10.1321885 208.84341,10.2038585 C208.461843,10.2755284 208.020817,10.3138342 207.52032,10.318777 L207.52032,16.0276325 L204.799809,16.0276325 Z M212.225466,11.6384864 L212.225466,7.15295709 C212.225466,3.99947826 213.528721,2.4227625 216.135272,2.4227625 C218.746777,2.4227625 220.05251,3.99947826 220.05251,7.15295709 L220.05251,11.5717596 C220.05251,12.1055773 220.012867,12.5986099 219.933581,13.0508721 C219.854294,13.5031344 219.719261,13.9319121 219.528477,14.3372181 C219.337694,14.7425242 219.094882,15.0872763 218.800034,15.3714848 C218.505187,15.6556933 218.132297,15.8793497 217.681354,16.0424607 C217.230411,16.2055717 216.715055,16.2871259 216.135272,16.2871259 C215.560443,16.2871259 215.047565,16.2068074 214.596622,16.0461678 C214.145679,15.8855282 213.774028,15.6680501 213.481658,15.3937271 C213.189289,15.1194041 212.947716,14.7833017 212.756932,14.3854098 C212.566148,13.9875179 212.429876,13.5636828 212.348112,13.113892 C212.266348,12.6641011 212.225466,12.1723042 212.225466,11.6384864 L212.225466,11.6384864 Z M217.346865,12.2464425 L217.346865,6.47827416 C217.346865,5.16350086 216.943005,4.50612407 216.135272,4.50612407 C215.892456,4.50612407 215.686809,4.56667193 215.518325,4.68776947 C215.349841,4.80886701 215.225957,4.97444688 215.146671,5.18451404 C215.067384,5.39458121 215.011636,5.60217388 214.979426,5.80729828 C214.947216,6.01242269 214.931111,6.23607908 214.931111,6.47827416 L214.931111,12.2464425 C214.931111,13.556273 215.332494,14.2111785 216.135272,14.2111785 C216.943005,14.2111785 217.346865,13.556273 217.346865,12.2464425 L217.346865,12.2464425 Z M222.743289,16.0276325 L222.743289,4.69889062 L220.780953,4.69889062 L220.780953,2.68225593 L227.374104,2.68225593 L227.374104,4.69889062 L225.448934,4.69889062 L225.448934,16.0276325 L222.743289,16.0276325 Z" id="ILLEGAAL-AFVAL-GESPO" fill="#60CDA2"></path>
                <path d="M85.8309576,33.7423842 L338.010448,33.7423842" id="Line-Copy" stroke="#E4E4E4" stroke-width="8" stroke-linecap="square"></path>
                <path d="M85.4177706,50.6135763 L313.762306,50.6135763" id="Line-Copy-2" stroke="#E4E4E4" stroke-width="8" stroke-linecap="square"></path>
            </g>
            <path d="M0.883711852,15.1840729 L0.883711852,0.355876709 L3.98909182,0.355876709 C4.98017549,0.355876709 5.79643076,0.44511959 6.43788214,0.623608029 C7.07933351,0.802096468 7.58312682,1.09591149 7.94927717,1.50506191 C8.31542753,1.91421234 8.56870067,2.4043617 8.70910419,2.9755247 C8.84950771,3.54668771 8.91970841,4.27436043 8.91970841,5.1585647 L8.91970841,10.0189179 C8.91970841,10.5461453 8.9031906,11.0060894 8.87015448,11.3987639 C8.83711835,11.7914385 8.77517655,12.1758694 8.68432722,12.5520681 C8.59347788,12.9282668 8.46959428,13.2467952 8.3126727,13.5076629 C8.15575112,13.7685307 7.95340791,14.0115459 7.70563699,14.2367159 C7.45786607,14.461886 7.15916895,14.6403717 6.80953665,14.7721786 C6.45990436,14.9039854 6.04971199,15.005585 5.57894725,15.0769804 C5.10818251,15.1483758 4.56722412,15.1840729 3.95605586,15.1840729 L0.883711852,15.1840729 Z M4.0056098,13.0834118 C4.29192286,13.0834118 4.51766631,13.0792929 4.68284692,13.0710549 C4.84802753,13.062817 5.01320566,13.0422225 5.17838627,13.0092708 C5.34356688,12.9763191 5.46469752,12.9310112 5.5417818,12.8733457 C5.61886609,12.8156802 5.69044328,12.7319292 5.75651552,12.6220901 C5.82258777,12.5122511 5.86525878,12.3818192 5.88452986,12.2307905 C5.90380093,12.0797618 5.91343632,11.8916653 5.91343632,11.6664953 L5.91343632,3.68398297 C5.91343632,3.19519924 5.76752897,2.87117893 5.47570989,2.71191233 C5.18389081,2.55264572 4.69386234,2.47026768 4.0056098,2.46477572 L4.0056098,13.0834118 Z M10.4971754,15.1840729 L10.4971754,0.355876709 L16.6996763,0.355876709 L16.6996763,2.4153484 L13.5034475,2.4153484 L13.5034475,6.45191292 L15.7664105,6.45191292 L15.7664105,8.56081194 L13.5034475,8.56081194 L13.5034475,13.1246012 L16.6996763,13.1246012 L16.6996763,15.1840729 L10.4971754,15.1840729 Z M24.1658026,13.066936 L24.4466082,13.066936 C24.8375357,13.066936 25.1541271,13.0216281 25.396392,12.9310109 C25.6386569,12.8403937 25.8231058,12.6852483 25.9497443,12.4655703 C26.0763828,12.2458922 26.1603483,11.9973851 26.2016435,11.7200415 C26.2429386,11.4426979 26.2635859,11.0706238 26.2635859,10.6038079 C26.2635859,9.82944263 26.1273139,9.22808291 25.8547659,8.79971065 C25.5822179,8.3713384 25.1183426,8.15715548 24.4631262,8.15715548 L24.1658026,8.15715548 L24.1658026,13.066936 Z M24.1492846,6.18830055 L24.661342,6.18830055 C24.936643,6.18830055 25.1678924,6.13612778 25.3550971,6.0317807 C25.5423018,5.92743361 25.6840797,5.77503423 25.780435,5.57457798 C25.8767904,5.37412173 25.9442381,5.15856585 25.9827802,4.92790387 C26.0213224,4.69724189 26.0405932,4.42539434 26.0405932,4.11235308 C26.0405932,3.86521524 26.0226989,3.64828639 25.9869097,3.46156002 C25.9511206,3.27483366 25.9112026,3.11968834 25.8671544,2.99611942 C25.8231062,2.8725505 25.7487761,2.76820498 25.6441617,2.68307972 C25.5395473,2.59795447 25.4473228,2.53479797 25.3674855,2.49360833 C25.2876482,2.45241869 25.1665176,2.4222134 25.00409,2.40299157 C24.8416624,2.38376974 24.7108964,2.372786 24.611788,2.37004003 C24.5126797,2.36729405 24.3585134,2.36592108 24.1492846,2.36592108 L24.1492846,6.18830055 Z M21.1595305,15.1840729 L21.1595305,0.355876709 L24.2236155,0.355876709 C24.7742176,0.355876709 25.2601166,0.384709024 25.6813271,0.44237452 C26.1025377,0.500040016 26.515483,0.612623342 26.9201755,0.780127878 C27.324868,0.947632413 27.6579773,1.1714261 27.9195132,1.45151565 C28.1810492,1.7316052 28.3902748,2.10093343 28.5471964,2.55951142 C28.704118,3.01808941 28.7825776,3.56041153 28.7825776,4.18649406 C28.7825776,4.96085929 28.5995052,5.57045681 28.2333548,6.01530492 C27.8672045,6.46015303 27.2987164,6.81163269 26.5278735,7.06975443 C28.2953061,7.49812668 29.1790091,8.74478108 29.1790091,10.809755 C29.1790091,12.298074 28.8211231,13.3991939 28.1053405,14.1131476 C27.3895578,14.8271014 26.2966292,15.1840729 24.8265217,15.1840729 L21.1595305,15.1840729 Z M30.5087064,9.67292665 L30.5087064,0.355876709 L33.5149785,0.355876709 L33.5149785,9.5823099 C33.5149785,10.1095373 33.5177314,10.4925952 33.5232375,10.7314951 C33.5287435,10.970395 33.5425083,11.2614641 33.5645324,11.6047111 C33.5865565,11.9479581 33.625098,12.1882274 33.6801582,12.3255262 C33.7352185,12.462825 33.8109251,12.6111055 33.9072805,12.7703721 C34.0036358,12.9296387 34.1288959,13.0339842 34.2830645,13.0834118 C34.437233,13.1328393 34.6244349,13.1575528 34.8446757,13.1575528 C35.0649165,13.1575528 35.2521184,13.1328393 35.406287,13.0834118 C35.5604556,13.0339842 35.6857157,12.9310117 35.782071,12.774491 C35.8784264,12.6179704 35.954133,12.4710629 36.0091932,12.3337641 C36.0642534,12.1964653 36.102795,11.9589419 36.1248191,11.6211869 C36.1468432,11.2834318 36.160608,10.9978546 36.166114,10.7644466 C36.17162,10.5310387 36.174373,10.1534727 36.174373,9.63173722 L36.174373,9.5823099 L36.174373,0.355876709 L39.1806451,0.355876709 L39.1806451,9.67292665 C39.1806451,10.1452345 39.1668803,10.5736004 39.1393502,10.958037 C39.1118201,11.3424736 39.0595136,11.7406342 38.9824294,12.1525306 C38.9053451,12.564427 38.8007323,12.9282633 38.6685878,13.2440506 C38.5364433,13.5598378 38.3602533,13.8618906 38.1400125,14.1502181 C37.9197716,14.4385456 37.6596161,14.676069 37.359538,14.8627953 C37.0594599,15.0495217 36.6974444,15.1978022 36.2734809,15.3076412 C35.8495173,15.4174802 35.3732537,15.4723989 34.8446757,15.4723989 C34.3160978,15.4723989 33.8398342,15.4174802 33.4158706,15.3076412 C32.991907,15.1978022 32.6312681,15.0495217 32.333943,14.8627953 C32.0366179,14.676069 31.7778388,14.4385456 31.557598,14.1502181 C31.3373572,13.8618906 31.1611672,13.5598378 31.0290227,13.2440506 C30.8968782,12.9282633 30.7908889,12.564427 30.7110516,12.1525306 C30.6312143,11.7406342 30.5775314,11.3424736 30.5500013,10.958037 C30.5224712,10.5736004 30.5087064,10.1452345 30.5087064,9.67292665 L30.5087064,9.67292665 Z M40.815925,9.67292665 L40.815925,0.355876709 L43.8221971,0.355876709 L43.8221971,9.5823099 C43.8221971,10.1095373 43.82495,10.4925952 43.8304561,10.7314951 C43.8359621,10.970395 43.8497269,11.2614641 43.871751,11.6047111 C43.8937751,11.9479581 43.9323167,12.1882274 43.9873769,12.3255262 C44.0424371,12.462825 44.1181437,12.6111055 44.2144991,12.7703721 C44.3108544,12.9296387 44.4361145,13.0339842 44.5902831,13.0834118 C44.7444516,13.1328393 44.9316535,13.1575528 45.1518943,13.1575528 C45.3721352,13.1575528 45.559337,13.1328393 45.7135056,13.0834118 C45.8676742,13.0339842 45.9929343,12.9310117 46.0892896,12.774491 C46.185645,12.6179704 46.2613516,12.4710629 46.3164118,12.3337641 C46.371472,12.1964653 46.4100136,11.9589419 46.4320377,11.6211869 C46.4540618,11.2834318 46.4678266,10.9978546 46.4733326,10.7644466 C46.4788386,10.5310387 46.4815916,10.1534727 46.4815916,9.63173722 L46.4815916,9.5823099 L46.4815916,0.355876709 L49.4878637,0.355876709 L49.4878637,9.67292665 C49.4878637,10.1452345 49.4740989,10.5736004 49.4465688,10.958037 C49.4190387,11.3424736 49.3667323,11.7406342 49.289648,12.1525306 C49.2125637,12.564427 49.1079509,12.9282633 48.9758064,13.2440506 C48.8436619,13.5598378 48.6674719,13.8618906 48.4472311,14.1502181 C48.2269902,14.4385456 47.9668347,14.676069 47.6667566,14.8627953 C47.3666785,15.0495217 47.0046631,15.1978022 46.5806995,15.3076412 C46.1567359,15.4174802 45.6804723,15.4723989 45.1518943,15.4723989 C44.6233164,15.4723989 44.1470528,15.4174802 43.7230892,15.3076412 C43.2991256,15.1978022 42.9384867,15.0495217 42.6411616,14.8627953 C42.3438365,14.676069 42.0850574,14.4385456 41.8648166,14.1502181 C41.6445758,13.8618906 41.4683858,13.5598378 41.3362413,13.2440506 C41.2040968,12.9282633 41.0981075,12.564427 41.0182702,12.1525306 C40.9384329,11.7406342 40.88475,11.3424736 40.8572199,10.958037 C40.8296898,10.5736004 40.815925,10.1452345 40.815925,9.67292665 L40.815925,9.67292665 Z M54.1954876,6.5260539 L55.0544225,6.5260539 C55.2856753,6.5260539 55.4838891,6.44916773 55.6490697,6.29539307 C55.8142503,6.14161842 55.9340045,5.94665705 56.0083357,5.71050311 C56.082667,5.47434918 56.1349734,5.25742033 56.1652565,5.05971006 C56.1955396,4.86199979 56.210681,4.67527622 56.210681,4.49953376 C56.210681,4.32379129 56.1982926,4.1425596 56.1735155,3.95583323 C56.1487384,3.76910686 56.1046909,3.56178878 56.0413717,3.33387278 C55.9780525,3.10595677 55.8734396,2.9192332 55.7275301,2.77369648 C55.5816206,2.62815975 55.4040541,2.55539248 55.1948253,2.55539248 L54.1954876,2.55539248 L54.1954876,6.5260539 Z M51.1892155,15.1840729 L51.1892155,0.355876709 L54.4597753,0.355876709 C55.203088,0.355876709 55.8569181,0.425898046 56.4212852,0.565942821 C56.9856523,0.705987597 57.4798102,0.925662381 57.9037738,1.22497376 C58.3277373,1.52428515 58.6498347,1.92793756 58.8700755,2.43594312 C59.0903163,2.94394868 59.2004351,3.55217324 59.2004351,4.26063504 C59.2004351,4.56818435 59.1894232,4.84277783 59.1673991,5.08442372 C59.1453751,5.3260696 59.0944451,5.60203605 59.0146078,5.91233134 C58.9347705,6.22262663 58.8260283,6.49722011 58.6883778,6.73612002 C58.5507272,6.97501993 58.3525135,7.20979735 58.0937305,7.44045934 C57.8349476,7.67112132 57.529368,7.86333675 57.1769827,8.01711141 C58.068958,10.8399747 58.8452953,13.228938 59.5060177,15.1840729 L56.3923787,15.1840729 L54.691027,8.35486477 L54.1954876,8.35486477 L54.1954876,15.1840729 L51.1892155,15.1840729 Z M61.8680886,15.1840729 L61.8680886,2.59658191 L59.6877155,2.59658191 L59.6877155,0.355876709 L67.0134389,0.355876709 L67.0134389,2.59658191 L64.8743607,2.59658191 L64.8743607,15.1840729 L61.8680886,15.1840729 Z M73.3480837,15.1840729 L70.6143583,0.355876709 L73.4637096,0.355876709 L74.7768889,9.34341118 L76.230471,0.355876709 L79.0385273,0.355876709 L76.0983271,15.1840729 L73.3480837,15.1840729 Z M80.021347,15.1840729 L80.021347,0.355876709 L86.223848,0.355876709 L86.223848,2.4153484 L83.0276191,2.4153484 L83.0276191,6.45191292 L85.2905822,6.45191292 L85.2905822,8.56081194 L83.0276191,8.56081194 L83.0276191,13.1246012 L86.223848,13.1246012 L86.223848,15.1840729 L80.021347,15.1840729 Z M90.3037887,6.5260539 L91.1627236,6.5260539 C91.3939764,6.5260539 91.5921902,6.44916773 91.7573708,6.29539307 C91.9225514,6.14161842 92.0423056,5.94665705 92.1166368,5.71050311 C92.1909681,5.47434918 92.2432745,5.25742033 92.2735576,5.05971006 C92.3038407,4.86199979 92.3189821,4.67527622 92.3189821,4.49953376 C92.3189821,4.32379129 92.3065937,4.1425596 92.2818166,3.95583323 C92.2570395,3.76910686 92.212992,3.56178878 92.1496728,3.33387278 C92.0863536,3.10595677 91.9817407,2.9192332 91.8358312,2.77369648 C91.6899217,2.62815975 91.5123552,2.55539248 91.3031264,2.55539248 L90.3037887,2.55539248 L90.3037887,6.5260539 Z M87.2975166,15.1840729 L87.2975166,0.355876709 L90.5680763,0.355876709 C91.3113891,0.355876709 91.9652192,0.425898046 92.5295863,0.565942821 C93.0939534,0.705987597 93.5881113,0.925662381 94.0120749,1.22497376 C94.4360384,1.52428515 94.7581358,1.92793756 94.9783766,2.43594312 C95.1986174,2.94394868 95.3087362,3.55217324 95.3087362,4.26063504 C95.3087362,4.56818435 95.2977243,4.84277783 95.2757002,5.08442372 C95.2536761,5.3260696 95.2027462,5.60203605 95.1229089,5.91233134 C95.0430716,6.22262663 94.9343294,6.49722011 94.7966789,6.73612002 C94.6590283,6.97501993 94.4608146,7.20979735 94.2020316,7.44045934 C93.9432487,7.67112132 93.6376691,7.86333675 93.2852838,8.01711141 C94.1772591,10.8399747 94.9535963,13.228938 95.6143188,15.1840729 L92.5006798,15.1840729 L90.799328,8.35486477 L90.3037887,8.35486477 L90.3037887,15.1840729 L87.2975166,15.1840729 Z M99.5703746,13.066936 L99.8511803,13.066936 C100.242108,13.066936 100.558699,13.0216281 100.800964,12.9310109 C101.043229,12.8403937 101.227678,12.6852483 101.354316,12.4655703 C101.480955,12.2458922 101.56492,11.9973851 101.606216,11.7200415 C101.647511,11.4426979 101.668158,11.0706238 101.668158,10.6038079 C101.668158,9.82944263 101.531886,9.22808291 101.259338,8.79971065 C100.98679,8.3713384 100.522915,8.15715548 99.8676983,8.15715548 L99.5703746,8.15715548 L99.5703746,13.066936 Z M99.5538567,6.18830055 L100.065914,6.18830055 C100.341215,6.18830055 100.572464,6.13612778 100.759669,6.0317807 C100.946874,5.92743361 101.088652,5.77503423 101.185007,5.57457798 C101.281362,5.37412173 101.34881,5.15856585 101.387352,4.92790387 C101.425894,4.69724189 101.445165,4.42539434 101.445165,4.11235308 C101.445165,3.86521524 101.427271,3.64828639 101.391482,3.46156002 C101.355693,3.27483366 101.315775,3.11968834 101.271726,2.99611942 C101.227678,2.8725505 101.153348,2.76820498 101.048734,2.68307972 C100.944119,2.59795447 100.851895,2.53479797 100.772058,2.49360833 C100.69222,2.45241869 100.57109,2.4222134 100.408662,2.40299157 C100.246234,2.38376974 100.115468,2.372786 100.01636,2.37004003 C99.9172517,2.36729405 99.7630854,2.36592108 99.5538567,2.36592108 L99.5538567,6.18830055 Z M96.5641026,15.1840729 L96.5641026,0.355876709 L99.6281876,0.355876709 C100.17879,0.355876709 100.664689,0.384709024 101.085899,0.44237452 C101.50711,0.500040016 101.920055,0.612623342 102.324748,0.780127878 C102.72944,0.947632413 103.062549,1.1714261 103.324085,1.45151565 C103.585621,1.7316052 103.794847,2.10093343 103.951768,2.55951142 C104.10869,3.01808941 104.18715,3.56041153 104.18715,4.18649406 C104.18715,4.96085929 104.004077,5.57045681 103.637927,6.01530492 C103.271777,6.46015303 102.703288,6.81163269 101.932446,7.06975443 C103.699878,7.49812668 104.583581,8.74478108 104.583581,10.809755 C104.583581,12.298074 104.225695,13.3991939 103.509913,14.1131476 C102.79413,14.8271014 101.701201,15.1840729 100.231094,15.1840729 L96.5641026,15.1840729 Z M105.97935,15.1840729 L105.97935,0.355876709 L112.181851,0.355876709 L112.181851,2.4153484 L108.985622,2.4153484 L108.985622,6.45191292 L111.248585,6.45191292 L111.248585,8.56081194 L108.985622,8.56081194 L108.985622,13.1246012 L112.181851,13.1246012 L112.181851,15.1840729 L105.97935,15.1840729 Z M114.667807,15.1840729 L114.667807,2.59658191 L112.487434,2.59658191 L112.487434,0.355876709 L119.813157,0.355876709 L119.813157,2.59658191 L117.674079,2.59658191 L117.674079,15.1840729 L114.667807,15.1840729 Z M120.812495,15.1840729 L120.812495,0.355876709 L127.014996,0.355876709 L127.014996,2.4153484 L123.818767,2.4153484 L123.818767,6.45191292 L126.08173,6.45191292 L126.08173,8.56081194 L123.818767,8.56081194 L123.818767,13.1246012 L127.014996,13.1246012 L127.014996,15.1840729 L120.812495,15.1840729 Z M131.094937,6.5260539 L131.953872,6.5260539 C132.185124,6.5260539 132.383338,6.44916773 132.548519,6.29539307 C132.713699,6.14161842 132.833454,5.94665705 132.907785,5.71050311 C132.982116,5.47434918 133.034423,5.25742033 133.064706,5.05971006 C133.094989,4.86199979 133.11013,4.67527622 133.11013,4.49953376 C133.11013,4.32379129 133.097742,4.1425596 133.072965,3.95583323 C133.048188,3.76910686 133.00414,3.56178878 132.940821,3.33387278 C132.877502,3.10595677 132.772889,2.9192332 132.626979,2.77369648 C132.48107,2.62815975 132.303503,2.55539248 132.094274,2.55539248 L131.094937,2.55539248 L131.094937,6.5260539 Z M128.088665,15.1840729 L128.088665,0.355876709 L131.359224,0.355876709 C132.102537,0.355876709 132.756367,0.425898046 133.320734,0.565942821 C133.885101,0.705987597 134.379259,0.925662381 134.803223,1.22497376 C135.227186,1.52428515 135.549284,1.92793756 135.769525,2.43594312 C135.989765,2.94394868 136.099884,3.55217324 136.099884,4.26063504 C136.099884,4.56818435 136.088872,4.84277783 136.066848,5.08442372 C136.044824,5.3260696 135.993894,5.60203605 135.914057,5.91233134 C135.83422,6.22262663 135.725477,6.49722011 135.587827,6.73612002 C135.450176,6.97501993 135.251963,7.20979735 134.99318,7.44045934 C134.734397,7.67112132 134.428817,7.86333675 134.076432,8.01711141 C134.968407,10.8399747 135.744744,13.228938 136.405467,15.1840729 L133.291828,15.1840729 L131.590476,8.35486477 L131.094937,8.35486477 L131.094937,15.1840729 L128.088665,15.1840729 Z M137.355251,15.1840729 L137.355251,0.355876709 L143.557752,0.355876709 L143.557752,2.4153484 L140.361523,2.4153484 L140.361523,6.45191292 L142.624486,6.45191292 L142.624486,8.56081194 L140.361523,8.56081194 L140.361523,13.1246012 L143.557752,13.1246012 L143.557752,15.1840729 L137.355251,15.1840729 Z M144.63142,15.1840729 L144.63142,0.347638822 L146.795275,0.347638822 L150.057576,8.10772816 L150.057576,0.347638822 L152.551791,0.347638822 L152.551791,15.1840729 L150.470526,15.1840729 L147.216484,6.95442402 L147.216484,15.1840729 L144.63142,15.1840729 Z" id="DE-BUURT-VERBETEREN" fill="#333333"></path>
        </g>
    </g>
</svg>