
<svg width="150px" height="40px" viewBox="0 0 150 40" version="1.1" xmlns="http://www.w3.org/2000/svg" xmlns:xlink="http://www.w3.org/1999/xlink">
    <!-- Generator: Sketch 41.2 (35397) - http://www.bohemiancoding.com/sketch -->
    <desc>Created with Sketch.</desc>
    <defs></defs>
    <g id="Page-1" stroke="none" stroke-width="1" fill="none" fill-rule="evenodd">
        <path d="M16.6552326,20.7757746 C14.4244186,20.7757746 12.4511628,18.8152113 12.4511628,16.6011268 C12.4511628,14.5397183 14.4244186,12.6276056 16.6552326,12.6276056 C18.8872093,12.6276056 20.8587209,14.4890141 20.8587209,16.6011268 C20.8587209,18.8659155 18.9906977,20.7757746 16.6552326,20.7757746 M28.430814,5.29183099 C21.9273256,-1.01295775 11.3831395,-1.01239437 4.87790698,5.29070423 C-1.625,11.5932394 -1.62674419,21.8123944 4.87790698,28.1149296 C8.11976744,31.2557746 16.6151163,38.7453521 16.6151163,38.7453521 C16.6151163,38.7453521 25.1697674,31.275493 28.430814,28.1160563 C34.9348837,21.8123944 34.9366279,11.5932394 28.430814,5.29183099" id="Fill-1" fill="#60CDA2"></path>
        <path d="M45.9674419,8.63667606 L45.9674419,8.02484507 C45.9953488,7.07329577 46.2622093,6.33188732 46.7674419,5.8011831 C47.2726744,5.27160563 47.9465116,5.00569014 48.7883721,5.00569014 C49.6023256,5.00569014 50.2680233,5.28512676 50.7877907,5.84230986 C51.3081395,6.39949296 51.5668605,7.12738028 51.5668605,8.02484507 L51.5668605,8.63667606 L51.5668605,11.8856901 L52.1994186,11.8856901 L52.7883721,11.8856901 C53.630814,11.9127324 54.3052326,12.1442817 54.8087209,12.5792113 C55.3139535,13.0147042 55.5668605,13.599493 55.5668605,14.3335775 C55.5668605,15.0411831 55.3069767,15.6254085 54.7883721,16.0873803 C54.2680233,16.5499155 53.602907,16.7814648 52.7883721,16.7814648 L52.1994186,16.7814648 L51.5668605,16.7814648 L51.5668605,27.8378028 L51.5668605,28.4496338 C51.5389535,29.3747042 51.2738372,30.1087887 50.7668605,30.6530141 C50.2633721,31.1972394 49.5889535,31.4687887 48.7465116,31.4687887 C47.9325581,31.4687887 47.2651163,31.1893521 46.7476744,30.6327324 C46.2267442,30.0755493 45.9674419,29.3470986 45.9674419,28.4496338 L45.9674419,27.8378028 L45.9674419,16.7814648 L45.672093,16.7814648 C44.7744186,16.7814648 44.0662791,16.564 43.5465116,16.128507 C43.027907,15.6941408 42.7680233,15.0947042 42.7680233,14.3335775 C42.7680233,12.6473803 43.8337209,11.8310423 45.9674419,11.8856901 L45.9674419,8.63667606 Z" id="Fill-4" fill="#FEFEFE"></path>
        <path d="M65.3743023,27.8378028 L65.3743023,28.4496338 C65.3463953,29.3747042 65.0818605,30.1087887 64.5743023,30.6530141 C64.0690698,31.1972394 63.4103488,31.4687887 62.5963953,31.4687887 C61.7539535,31.4687887 61.0731395,31.1893521 60.5545349,30.6327324 C60.0336047,30.0755493 59.7743023,29.3470986 59.7743023,28.4496338 L59.7743023,27.8378028 L59.7743023,15.2310423 L59.7743023,14.6192113 C59.8027907,13.6947042 60.0696512,12.9600563 60.5743023,12.415831 C61.0795349,11.872169 61.7405814,11.6000563 62.5539535,11.6000563 C63.3963953,11.6000563 64.0760465,11.879493 64.5952326,12.4366761 C65.115,12.9938592 65.3743023,13.7217465 65.3743023,14.6192113 L65.3743023,15.2310423 L65.3743023,27.8378028 Z" id="Fill-6" fill="#FEFEFE"></path>
        <path d="M80.9879651,26.164169 C81.633314,26.164169 82.2437791,26.0419155 82.8193605,25.7979718 C83.3931977,25.5534648 83.9007558,25.2267042 84.3362209,24.8182535 C84.7699419,24.411493 85.1135465,23.9348732 85.3658721,23.3900845 C85.6181977,22.8464225 85.7443605,22.2621972 85.7443605,21.6362817 C85.7443605,20.9838873 85.6181977,20.3720563 85.3658721,19.8007887 C85.1135465,19.2295211 84.7775,18.7393803 84.355407,18.331493 C83.9350581,17.9236056 83.4368023,17.5974085 82.8618023,17.352338 C82.2862209,17.1072676 81.6612209,16.9855775 80.9879651,16.9855775 C80.3414535,16.9855775 79.7315698,17.1072676 79.1559884,17.352338 C78.580407,17.5974085 78.0827326,17.9236056 77.6612209,18.331493 C77.2414535,18.7393803 76.9042442,19.2227606 76.6513372,19.7799437 C76.3984302,20.3376901 76.2734302,20.9416338 76.2734302,21.5957183 C76.2734302,22.2216338 76.3984302,22.8126197 76.6513372,23.3703662 C76.9042442,23.9281127 77.2414535,24.411493 77.6612209,24.8182535 C78.0827326,25.2267042 78.580407,25.5534648 79.1559884,25.7979718 C79.7315698,26.0419155 80.3414535,26.164169 80.9879651,26.164169 L80.9879651,26.164169 Z M76.3984302,35.4317746 L76.3984302,36.0430423 C76.3711047,36.9929014 76.1112209,37.7331831 75.6199419,38.2633239 C75.1280814,38.7917746 74.4600581,39.0571268 73.6193605,39.0571268 C72.7775,39.0571268 72.0972674,38.7850141 71.5775,38.2413521 C71.058314,37.6971268 70.7990116,36.9630423 70.7990116,36.0379718 L70.7990116,35.4261408 L70.7990116,15.1083944 C70.7990116,14.456 70.8263372,13.9664225 70.8838953,13.639662 C70.9391279,13.3134648 71.0519186,13.0148732 71.2205233,12.7421972 C71.6705233,11.9810704 72.4263372,11.6002254 73.4926163,11.6002254 C74.8123837,11.6002254 75.696686,12.2526197 76.1461047,13.5585352 C77.0437791,12.7979718 77.9286628,12.2599437 78.7984302,11.9467042 C79.6681977,11.6345915 80.6931977,11.4774085 81.871686,11.4774085 C83.274593,11.4774085 84.5734302,11.7292394 85.7670349,12.232338 C86.9594767,12.736 87.983314,13.4357183 88.8402907,14.3331831 C89.6961047,15.2312113 90.3693605,16.2988169 90.8618023,17.536 C91.3525,18.7743099 91.5984302,20.1134648 91.5984302,21.5540282 C91.5984302,22.9962817 91.3525,24.3286761 90.8618023,25.5534648 C90.3693605,26.7771268 89.6961047,27.8379718 88.8402907,28.7348732 C87.983314,29.632338 86.9722674,30.3331831 85.8088953,30.8362817 C84.6426163,31.3393803 83.3734302,31.5912113 81.9984302,31.5912113 C80.9042442,31.5912113 79.9141279,31.4424789 79.0309884,31.1455775 C78.1461047,30.8481127 77.2687791,30.3624789 76.3984302,29.6875493 L76.3984302,35.4317746 Z" id="Fill-8" fill="#FEFEFE"></path>
        <path d="M105.449709,26.164169 C106.095058,26.164169 106.704942,26.0419155 107.280523,25.7979718 C107.856686,25.5534648 108.361337,25.2267042 108.796802,24.8182535 C109.231105,24.411493 109.574128,23.9348732 109.827035,23.3900845 C110.079942,22.8464225 110.205523,22.2621972 110.205523,21.6362817 C110.205523,20.9838873 110.079942,20.3720563 109.827035,19.8007887 C109.574128,19.2295211 109.238081,18.7393803 108.817733,18.331493 C108.39564,17.9236056 107.897384,17.5974085 107.322384,17.352338 C106.747965,17.1072676 106.122965,16.9855775 105.449709,16.9855775 C104.803198,16.9855775 104.193895,17.1072676 103.617151,17.352338 C103.04157,17.5974085 102.543895,17.9236056 102.122965,18.331493 C101.703198,18.7393803 101.364826,19.2227606 101.111919,19.7799437 C100.860756,20.3376901 100.734012,20.9416338 100.734012,21.5957183 C100.734012,22.2216338 100.860756,22.8126197 101.111919,23.3703662 C101.364826,23.9281127 101.703198,24.411493 102.122965,24.8182535 C102.543895,25.2267042 103.04157,25.5534648 103.617151,25.7979718 C104.193895,26.0419155 104.803198,26.164169 105.449709,26.164169 L105.449709,26.164169 Z M100.860756,35.4317746 L100.860756,36.0430423 C100.831686,36.9929014 100.571802,37.7331831 100.082267,38.2633239 C99.590407,38.7917746 98.9229651,39.0571268 98.0811047,39.0571268 C97.2392442,39.0571268 96.559593,38.7850141 96.0392442,38.2413521 C95.5200581,37.6971268 95.2601744,36.9630423 95.2601744,36.0379718 L95.2601744,35.4261408 L95.2601744,15.1083944 C95.2601744,14.456 95.2875,13.9664225 95.3444767,13.639662 C95.4002907,13.3134648 95.5136628,13.0148732 95.681686,12.7421972 C96.1311047,11.9810704 96.8880814,11.6002254 97.9537791,11.6002254 C99.2741279,11.6002254 100.157849,12.2526197 100.607849,13.5585352 C101.506105,12.7979718 102.389826,12.2599437 103.260756,11.9467042 C104.12936,11.6345915 105.154942,11.4774085 106.334012,11.4774085 C107.735756,11.4774085 109.034012,11.7292394 110.228779,12.232338 C111.420058,12.736 112.444477,13.4357183 113.300872,14.3331831 C114.156686,15.2312113 114.831105,16.2988169 115.322384,17.536 C115.813663,18.7743099 116.059593,20.1134648 116.059593,21.5540282 C116.059593,22.9962817 115.813663,24.3286761 115.322384,25.5534648 C114.831105,26.7771268 114.156686,27.8379718 113.300872,28.7348732 C112.444477,29.632338 111.434012,30.3331831 110.269477,30.8362817 C109.105523,31.3393803 107.835174,31.5912113 106.459593,31.5912113 C105.364826,31.5912113 104.374709,31.4424789 103.49157,31.1455775 C102.607267,30.8481127 101.72936,30.3624789 100.860756,29.6875493 L100.860756,35.4317746 Z" id="Fill-11" fill="#FEFEFE"></path>
        <path d="M125.405698,27.8378028 L125.405698,28.4496338 C125.377791,29.3747042 125.110349,30.1087887 124.605698,30.6530141 C124.100465,31.1972394 123.441163,31.4687887 122.627791,31.4687887 C121.785349,31.4687887 121.103953,31.1893521 120.585349,30.6327324 C120.065,30.0755493 119.805116,29.3470986 119.805116,28.4496338 L119.805116,27.8378028 L119.805116,15.2310423 L119.805116,14.6192113 C119.833605,13.6947042 120.099884,12.9600563 120.605698,12.415831 C121.11093,11.872169 121.769651,11.6000563 122.583605,11.6000563 C123.426628,11.6000563 124.107442,11.879493 124.626628,12.4366761 C125.145814,12.9938592 125.405698,13.7217465 125.405698,14.6192113 L125.405698,15.2310423 L125.405698,27.8378028 Z" id="Fill-14" fill="#FEFEFE"></path>
        <path d="M139.594244,26.164169 C140.239593,26.164169 140.850058,26.0419155 141.425058,25.7979718 C142.00064,25.5534648 142.498895,25.2267042 142.920988,24.8182535 C143.340756,24.411493 143.678547,23.9281127 143.930872,23.3703662 C144.18436,22.8126197 144.30936,22.2216338 144.30936,21.5957183 C144.30936,20.9416338 144.18436,20.3376901 143.930872,19.7799437 C143.678547,19.2227606 143.340756,18.7393803 142.920988,18.331493 C142.498895,17.9236056 142.00064,17.5974085 141.425058,17.352338 C140.850058,17.1072676 140.239593,16.9855775 139.594244,16.9855775 C138.920407,16.9855775 138.294826,17.1072676 137.720988,17.352338 C137.144244,17.5974085 136.645988,17.9236056 136.22564,18.331493 C135.804128,18.7393803 135.4675,19.2295211 135.215174,19.8007887 C134.962267,20.3720563 134.835523,20.9838873 134.835523,21.6362817 C134.835523,22.2621972 134.962267,22.8464225 135.215174,23.3900845 C135.4675,23.9348732 135.811105,24.411493 136.247733,24.8182535 C136.680872,25.2267042 137.186105,25.5534648 137.762849,25.7979718 C138.337849,26.0419155 138.948895,26.164169 139.594244,26.164169 M141.551221,31.1421972 C140.666919,31.4413521 139.677965,31.5912113 138.583198,31.5912113 C137.208779,31.5912113 135.93843,31.3393803 134.772151,30.8362817 C133.608779,30.3331831 132.598895,29.632338 131.741337,28.7348732 C130.885523,27.8379718 130.211686,26.7771268 129.72157,25.5534648 C129.229128,24.3286761 128.983779,22.9962817 128.983779,21.5540282 C128.983779,20.1134648 129.229128,18.7743099 129.72157,17.536 C130.211686,16.2988169 130.885523,15.2312113 131.741337,14.3331831 C132.598895,13.4357183 133.622151,12.736 134.814593,12.232338 C136.008198,11.7292394 137.305291,11.4774085 138.709942,11.4774085 C139.889012,11.4774085 140.912849,11.6345915 141.78436,11.9467042 C142.652384,12.2599437 143.537267,12.7979718 144.434942,13.5585352 C144.911686,12.2526197 145.79657,11.6002254 147.08843,11.6002254 C147.5925,11.6002254 148.049477,11.7021972 148.458198,11.9061408 C148.862267,12.1100845 149.164593,12.3883944 149.361105,12.7421972 C149.530291,13.0419155 149.6425,13.3540282 149.698314,13.6807887 C149.755291,14.0069859 149.782616,14.4830423 149.782616,15.1083944 L149.782616,35.4261408 L149.782616,36.0379718 C149.755291,36.9900845 149.48843,37.7309296 148.982616,38.2616338 C148.476802,38.7917746 147.803547,39.0571268 146.961686,39.0571268 C146.147151,39.0571268 145.480872,38.7776901 144.962267,38.220507 C144.4425,37.6627606 144.18436,36.9354366 144.18436,36.0379718 L144.18436,35.4261408 L144.18436,29.6734648 C143.312849,30.3534648 142.436105,30.8430423 141.551221,31.1421972" id="Fill-16" fill="#FEFEFE"></path>
        <path d="M122.583837,3.61825352 C123.51,3.61825352 124.296628,3.93149296 124.941977,4.55684507 C125.587907,5.18276056 125.910581,5.94332394 125.910581,6.84135211 C125.910581,7.73938028 125.580349,8.50726761 124.921047,9.14670423 C124.261744,9.78557746 123.455349,10.1050141 122.499535,10.1050141 C122.051279,10.1050141 121.622791,10.0171268 121.216977,9.83966197 C120.809419,9.66332394 120.451279,9.43177465 120.142558,9.14670423 C119.833837,8.86107042 119.589651,8.52811268 119.40593,8.14670423 C119.223372,7.76642254 119.132093,7.35853521 119.132093,6.92304225 C119.132093,5.97149296 119.462326,5.18276056 120.122791,4.55684507 C120.780349,3.93149296 121.60186,3.61825352 122.583837,3.61825352" id="Fill-19" fill="#FEFEFE"></path>
        <path d="M62.5542442,3.61825352 C63.4809884,3.61825352 64.2647093,3.93149296 64.9118023,4.55684507 C65.5577326,5.18276056 65.880407,5.94332394 65.880407,6.84135211 C65.880407,7.73938028 65.5501744,8.50726761 64.8902907,9.14670423 C64.2292442,9.78557746 63.4228488,10.1050141 62.4693605,10.1050141 C62.0211047,10.1050141 61.5926163,10.0171268 61.1856395,9.83966197 C60.7780814,9.66332394 60.4199419,9.43177465 60.1106395,9.14670423 C59.8030814,8.86107042 59.558314,8.52811268 59.3751744,8.14670423 C59.1931977,7.76642254 59.1019186,7.35853521 59.1019186,6.92304225 C59.1019186,5.97149296 59.4309884,5.18276056 60.0914535,4.55684507 C60.7490116,3.93149296 61.571686,3.61825352 62.5542442,3.61825352" id="Fill-21" fill="#FEFEFE"></path>
    </g>
</svg>